<?xml version="1.0" encoding="utf-8"?>
<!-- Svg Vector Icons : http://www.onlinewebfonts.com/icon -->
<!DOCTYPE svg PUBLIC "-//W3C//DTD SVG 1.1//EN" "http://www.w3.org/Graphics/SVG/1.1/DTD/svg11.dtd">
<svg version="1.1" xmlns="http://www.w3.org/2000/svg" xmlns:xlink="http://www.w3.org/1999/xlink" x="0px" y="0px" viewBox="0 0 256 256" enable-background="new 0 0 256 256" xml:space="preserve">
<metadata> Svg Vector Icons : http://www.onlinewebfonts.com/icon </metadata>
<g><g><path stroke-width="4" fill-opacity="0" stroke="#000000"  d="M116.3,120.9c-6.7,0.2-10.6,4.1-11.8,11.8h23.9C128,125,124,121.1,116.3,120.9z"/><path stroke-width="4" fill-opacity="0" stroke="#000000"  d="M70.3,112.7c0.2-6.1-3.6-9.1-11.5-9.1H44.1v18.6h15.3C66.7,122.1,70.3,118.9,70.3,112.7z"/><path stroke-width="4" fill-opacity="0" stroke="#000000"  d="M60.3,131.3H44.1v20.6h16.8c8.3,0.2,12.3-3.2,12.1-10C73,134.8,68.8,131.3,60.3,131.3z"/><path stroke-width="4" fill-opacity="0" stroke="#000000"  d="M191.8,146c-0.2,4.7,3.6,7.1,11.5,7.1h12.4v-15.6h-11.2C195.9,137.4,191.7,140.3,191.8,146z"/><path stroke-width="4" fill-opacity="0" stroke="#000000"  d="M232.6,69H23.4C16,69,10,75,10,82.4v91.2c0,7.4,6,13.4,13.4,13.4h209.2c7.4,0,13.4-6,13.4-13.4V82.4C246,75,240,69,232.6,69z M62.1,159.3H32V95.9h30.4c13.6,0,20.3,5.2,20.3,15.6c0.2,7.5-3.3,12.4-10.6,14.7c8.6,2.2,13.1,7.2,13.3,15C85.9,153.7,78.2,159.7,62.1,159.3z M140.2,140.4h-35.7c1.2,8.3,6.5,12.5,15.9,12.7c7.1,0,13.5-2.9,19.2-8.8v8.3c-4.3,5.3-11.6,8-21.8,8c-16.3-0.6-24.9-8.2-25.7-22.7c0.4-15.9,8.4-24.2,23.9-24.8C132.4,112.8,140.4,121.9,140.2,140.4z M178,157.2c-2.6,2.2-5.8,3.2-9.7,3.2c-9.1,0.2-13.5-4.2-13.3-13.3v-25.4h-8v-8h8V95.6h12.1v18.3h10v8h-10V146c-0.2,4.7,1.6,6.9,5.3,6.5c1.8,0,3.6-0.7,5.6-2.1L178,157.2L178,157.2z M224,160.4H203c-13.4,0-20.1-4.6-20.1-13.9c0.2-11.2,7.6-16.8,22.1-16.8h10.6c0.2-6.5-3.3-9.6-10.6-9.4c-6.9-0.2-11.1,2.5-12.7,8H183c2.7-10.4,10.1-15.5,22.1-15.3c12.6,0,18.9,5.4,18.9,16.2V160.4L224,160.4z"/></g></g>
</svg>