<svg width="24" height="24" viewBox="0 0 24 24" fill="none" xmlns="http://www.w3.org/2000/svg">
<path d="M10.9031 11.3345C10.275 11.3532 9.90938 11.7188 9.79688 12.4407H12.0375C12 11.7188 11.625 11.3532 10.9031 11.3345Z" stroke="black" stroke-width="0.5"/>
<path d="M6.59065 10.5655C6.6094 9.99365 6.25315 9.7124 5.51252 9.7124H4.1344V11.4562H5.56877C6.25315 11.4468 6.59065 11.1468 6.59065 10.5655Z" stroke="black" stroke-width="0.5"/>
<path d="M5.65315 12.3093H4.1344V14.2406H5.7094C6.48752 14.2593 6.86252 13.9406 6.84377 13.3031C6.84377 12.6375 6.45002 12.3093 5.65315 12.3093Z" stroke="black" stroke-width="0.5"/>
<path d="M17.9813 13.6875C17.9625 14.1281 18.3188 14.3531 19.0594 14.3531H20.2219V12.8906H19.1719C18.3657 12.8812 17.9719 13.1531 17.9813 13.6875Z" stroke="black" stroke-width="0.5"/>
<path d="M21.8063 6.46875H2.19375C1.5 6.46875 0.9375 7.03125 0.9375 7.725V16.275C0.9375 16.9688 1.5 17.5312 2.19375 17.5312H21.8063C22.5 17.5312 23.0625 16.9688 23.0625 16.275V7.725C23.0625 7.03125 22.5 6.46875 21.8063 6.46875ZM5.82187 14.9344H3V8.99063H5.85C7.125 8.99063 7.75312 9.47813 7.75312 10.4531C7.77187 11.1562 7.44375 11.6156 6.75937 11.8312C7.56562 12.0375 7.9875 12.5062 8.00625 13.2375C8.05313 14.4094 7.33125 14.9719 5.82187 14.9344ZM13.1437 13.1625H9.79688C9.90938 13.9406 10.4063 14.3344 11.2875 14.3531C11.9531 14.3531 12.5531 14.0813 13.0875 13.5281V14.3063C12.6844 14.8031 12 15.0563 11.0438 15.0563C9.51563 15 8.70937 14.2875 8.63437 12.9281C8.67187 11.4375 9.42188 10.6594 10.875 10.6031C12.4125 10.575 13.1625 11.4281 13.1437 13.1625ZM16.6875 14.7375C16.4438 14.9437 16.1438 15.0375 15.7781 15.0375C14.925 15.0562 14.5125 14.6438 14.5312 13.7906V11.4094H13.7812V10.6594H14.5312V8.9625H15.6656V10.6781H16.6031V11.4281H15.6656V13.6875C15.6469 14.1281 15.8156 14.3344 16.1625 14.2969C16.3312 14.2969 16.5 14.2312 16.6875 14.1V14.7375ZM21 15.0375H19.0312C17.775 15.0375 17.1469 14.6063 17.1469 13.7344C17.1656 12.6844 17.8594 12.1594 19.2188 12.1594H20.2125C20.2313 11.55 19.9031 11.2594 19.2188 11.2781C18.5719 11.2594 18.1781 11.5125 18.0281 12.0281H17.1562C17.4094 11.0531 18.1031 10.575 19.2281 10.5938C20.4094 10.5938 21 11.1 21 12.1125V15.0375Z" stroke="black" stroke-width="0.6"/>
</svg>
