<svg width="24" height="24" viewBox="0 0 24 24" fill="none" xmlns="http://www.w3.org/2000/svg">
<path d="M12 2.25C7.8645 2.25 4.5 5.6145 4.5 9.75C4.5 13.8855 7.8645 17.25 12 17.25C16.1355 17.25 19.5 13.8855 19.5 9.75C19.5 5.6145 16.1355 2.25 12 2.25ZM12 3.75C15.3082 3.75 18 6.44175 18 9.75C18 13.0582 15.3082 15.75 12 15.75C8.69175 15.75 6 13.0582 6 9.75C6 6.44175 8.69175 3.75 12 3.75ZM11.25 5.25V6.1425C10.7092 6.33912 10.2614 6.73073 9.9945 7.2405C9.76203 7.6893 9.69207 8.20472 9.7965 8.69925C9.88879 9.1295 10.1028 9.52417 10.413 9.83625C10.6177 10.041 10.8615 10.2068 11.13 10.3215C11.3985 10.4363 11.6925 10.5 12 10.5C12.1065 10.5 12.207 10.5203 12.297 10.557C12.3861 10.5932 12.467 10.647 12.535 10.715C12.603 10.783 12.6568 10.8639 12.693 10.953C12.7297 11.043 12.75 11.1435 12.75 11.25C12.7533 11.3977 12.7117 11.543 12.6309 11.6667C12.55 11.7904 12.4336 11.8867 12.297 11.943C12.207 11.9797 12.1065 12 12 12C11.8927 12 11.793 11.9797 11.703 11.943C11.614 11.9066 11.5332 11.8528 11.4652 11.7848C11.3957 11.7143 11.3409 11.6308 11.304 11.539C11.267 11.4472 11.2487 11.3489 11.25 11.25H9.75C9.75009 11.8335 9.98117 12.3933 10.3928 12.807C10.6336 13.0526 10.9266 13.241 11.25 13.3583V14.25H12.75V13.3575C13.1282 13.2219 13.4635 12.9884 13.7218 12.6807C13.9801 12.373 14.152 12.0022 14.22 11.6063C14.3126 11.0438 14.1842 10.4674 13.8615 9.9975C13.6987 9.7579 13.4921 9.55126 13.2525 9.3885C13.0096 9.2237 12.7371 9.10755 12.45 9.0465C12.302 9.01561 12.1512 9.00003 12 9C11.8927 9 11.793 8.97975 11.703 8.943C11.6139 8.90675 11.533 8.85304 11.465 8.78503C11.397 8.71702 11.3432 8.63609 11.307 8.547C11.2689 8.45264 11.2495 8.35176 11.25 8.25C11.25 8.14275 11.2703 8.043 11.307 7.953C11.3432 7.86391 11.397 7.78298 11.465 7.71497C11.533 7.64696 11.6139 7.59325 11.703 7.557C11.793 7.52025 11.8935 7.5 12 7.5C12.4275 7.5 12.75 7.8225 12.75 8.25H14.25C14.2502 8.01456 14.2127 7.7806 14.139 7.557C14.0286 7.23203 13.8464 6.93611 13.6059 6.69123C13.3655 6.44635 13.0729 6.25879 12.75 6.1425V5.25H11.25ZM1.5 15.75V21.75H3V17.25H7.035C6.39904 16.8248 5.81944 16.3208 5.31 15.75H1.5ZM18.69 15.75C18.1806 16.3208 17.601 16.8248 16.965 17.25H21V21.75H22.5V15.75H18.69ZM4.5 18.75V20.25H19.5V18.75H4.5Z" fill="black"/>
</svg>
