<svg width="1024" height="1024" viewBox="0 0 1024 1024" fill="none" xmlns="http://www.w3.org/2000/svg">
<g id="foreground">
<g id="proto">
<g id="Vector">
<path d="M722 638.912C722 673.363 694.061 701.292 659.596 701.292C625.131 701.292 597.191 673.363 597.191 638.912C597.191 604.46 625.131 576.532 659.596 576.532C694.061 576.532 722 604.46 722 638.912Z" fill="#EA4C1D"/>
<path d="M332.037 312H456.846V649.006L332.037 720.446V312Z" fill="#45D1FD"/>
<path d="M582.691 312H707.499V432.359V504.834L582.691 576.532V504.057V312Z" fill="#19B6F6"/>
<path d="M332.037 437.277L332.037 514.411H456.846V437.277H332.037Z" fill="#3ABEEE"/>
<path d="M582.69 514.411V437.277H456.846V514.411H582.69Z" fill="#0267C0"/>
<path d="M302 437.277L332.037 514.411L332.037 437.277H302Z" fill="#02539A"/>
<path d="M332.037 437.277V420.194L302 437.277H332.037Z" fill="#0267C0"/>
</g>
</g>
</g>
</svg>
