<svg width="1880" height="1880" viewBox="0 0 1880 1880" fill="none" xmlns="http://www.w3.org/2000/svg">
<path d="M1263.26 1148.49C1263.26 1207.22 1215.63 1254.84 1156.88 1254.84C1098.12 1254.84 1050.49 1207.22 1050.49 1148.49C1050.49 1089.76 1098.12 1042.15 1156.88 1042.15C1215.63 1042.15 1263.26 1089.76 1263.26 1148.49Z" fill="#EA4C1D"/>
<path d="M664.716 631.172C664.716 609.08 682.624 591.172 704.716 591.172H837.49C859.581 591.172 877.49 609.08 877.49 631.172V1142.51C877.49 1156.85 869.809 1170.1 857.36 1177.22L724.586 1253.22C697.92 1268.48 664.716 1249.23 664.716 1218.5V631.172Z" fill="#45D1FD"/>
<path d="M1023.68 631.172C1023.68 609.081 1041.59 591.172 1063.68 591.172H1196.45C1218.54 591.172 1236.45 609.08 1236.45 631.172V796.361V896.763C1236.45 911.085 1228.8 924.314 1216.38 931.447L1083.6 1007.72C1056.94 1023.04 1023.68 1003.79 1023.68 973.037V918.591V631.172Z" fill="#19B6F6"/>
<path d="M664.716 804.745L664.716 936.242H877.49V804.745H664.716Z" fill="#3ABEEE"/>
<path d="M1071.5 936.242C1091.3 936.242 1108.12 921.752 1111.06 902.168L1118.77 850.67C1122.39 826.489 1103.67 804.745 1079.21 804.745H877.49V936.242H1071.5Z" fill="#0267C0"/>
<path d="M613.509 804.745L664.716 936.242L664.716 804.745H613.509Z" fill="#02539A"/>
<path d="M664.716 804.745V804.745C664.716 791.753 650.694 783.596 639.4 790.019L613.509 804.745H664.716Z" fill="#0267C0"/>
</svg>
