<svg width="1024" height="1024" viewBox="0 0 1024 1024" fill="none" xmlns="http://www.w3.org/2000/svg">
<path d="M688.831 634.935C688.831 666.925 662.887 692.859 630.884 692.859C598.881 692.859 572.937 666.925 572.937 634.935C572.937 602.944 598.881 577.01 630.884 577.01C662.887 577.01 688.831 602.944 688.831 634.935Z" fill="#EA4C1D"/>
<path d="M362.058 342C362.058 330.954 371.012 322 382.058 322H457.952C468.998 322 477.952 330.954 477.952 342V623.338C477.952 630.51 474.112 637.133 467.887 640.695L391.993 684.136C378.66 691.768 362.058 682.142 362.058 666.779V342Z" fill="#45D1FD"/>
<path d="M557.578 342C557.578 330.954 566.532 322 577.578 322H653.472C664.518 322 673.472 330.954 673.472 342V433.762V489.484C673.472 496.645 669.643 503.259 663.434 506.826L587.54 550.425C574.207 558.084 557.578 548.459 557.578 533.082V500.339V342Z" fill="#19B6F6"/>
<path d="M362.058 438.329L362.058 509.953H477.952V438.329H362.058Z" fill="#3ABEEE"/>
<path d="M585.165 509.953C595.066 509.953 603.477 502.708 604.944 492.916L609.681 461.292C611.492 449.201 602.128 438.329 589.902 438.329H477.952V509.953H585.165Z" fill="#0267C0"/>
<path d="M334.166 438.329L362.058 509.953L362.058 438.329H334.166Z" fill="#02539A"/>
<path d="M362.058 438.329V438.329C362.058 431.252 354.42 426.81 348.269 430.308L334.166 438.329H362.058Z" fill="#0267C0"/>
</svg>
