<svg width="1024" height="1024" viewBox="0 0 1024 1024" fill="none" xmlns="http://www.w3.org/2000/svg">
<rect width="1024" height="1024" fill="#FFFAFA"/>
<path d="M820.726 743.451C820.726 799.036 775.624 844.096 719.988 844.096C664.351 844.096 619.249 799.036 619.249 743.451C619.249 687.865 664.351 642.805 719.988 642.805C775.624 642.805 820.726 687.865 820.726 743.451Z" fill="#EA4C1D"/>
<path d="M251.331 236C251.331 224.954 260.286 216 271.331 216H432.809C443.854 216 452.809 224.954 452.809 236V748.138C452.809 755.311 448.967 761.936 442.74 765.498L281.263 857.877C267.93 865.504 251.331 855.878 251.331 840.517V236Z" fill="#45D1FD"/>
<path d="M591.235 236C591.235 224.954 600.19 216 611.235 216H772.713C783.758 216 792.713 224.954 792.713 236V410.192V515.546C792.713 522.708 788.882 529.324 782.671 532.89L621.194 625.604C607.86 633.259 591.235 623.634 591.235 608.259V525.872V236Z" fill="#19B6F6"/>
<path d="M251.331 418.127L251.331 542.577H452.809V418.127H251.331Z" fill="#3ABEEE"/>
<path d="M651.917 542.577C661.818 542.577 670.229 535.333 671.696 525.541L684.353 441.091C686.165 429 676.801 418.127 664.574 418.127H452.809V542.577H651.917Z" fill="#0267C0"/>
<path d="M202.843 418.127L251.331 542.577L251.331 418.127H202.843Z" fill="#02539A"/>
<path d="M251.331 418.127V418.127C251.331 405.829 238.06 398.108 227.37 404.185L202.843 418.127H251.331Z" fill="#0267C0"/>
</svg>
