<svg width="1024" height="1024" viewBox="0 0 1024 1024" fill="none" xmlns="http://www.w3.org/2000/svg">
<rect width="1024" height="1024" fill="#DFD5EC"/>
<g id="v2">
<g id="icon">
<g id="background">
<rect id="Rectangle 42" width="1024" height="1024" fill="#FFFAFA"/>
</g>
<g id="proto">
<g id="Vector">
<path d="M876 727.869C876 787.503 827.638 835.845 767.981 835.845C708.324 835.845 659.962 787.503 659.962 727.869C659.962 668.235 708.324 619.892 767.981 619.892C827.638 619.892 876 668.235 876 727.869Z" fill="#EA4C1D"/>
<path d="M200.993 162H417.031V745.342L200.993 869V162Z" fill="#45D1FD"/>
<path d="M634.862 162H850.9V370.336V495.786L634.862 619.892V494.442V162Z" fill="#19B6F6"/>
<path d="M200.993 378.849L200.992 512.364H417.031V378.849H200.993Z" fill="#3ABEEE"/>
<path d="M634.862 512.364V378.849H417.031V512.364H634.862Z" fill="#0267C0"/>
<path d="M149 378.849L200.992 512.364L200.993 378.849H149Z" fill="#02539A"/>
<path d="M200.993 378.849V349.279L149 378.849H200.993Z" fill="#0267C0"/>
</g>
</g>
</g>
</g>
</svg>
