<svg width="1882" height="1880" viewBox="0 0 1882 1880" fill="none" xmlns="http://www.w3.org/2000/svg">
<path d="M1266.49 1148.2C1266.49 1206.9 1218.86 1254.49 1160.1 1254.49C1101.34 1254.49 1053.71 1206.9 1053.71 1148.2C1053.71 1089.49 1101.34 1041.91 1160.1 1041.91C1218.86 1041.91 1266.49 1089.49 1266.49 1148.2Z" fill="#21201E"/>
<path d="M666.552 631.172C666.552 609.08 684.46 591.172 706.552 591.172H839.326C861.417 591.172 879.326 609.08 879.326 631.172V1142.2C879.326 1156.54 871.642 1169.79 859.189 1176.92L726.415 1252.88C699.748 1268.13 666.552 1248.88 666.552 1218.16V631.172Z" fill="#21201E"/>
<path d="M1025.51 631.172C1025.51 609.08 1043.42 591.172 1065.51 591.172H1198.29C1220.38 591.172 1238.29 609.08 1238.29 631.172V796.252V896.584C1238.29 910.909 1230.63 924.14 1218.21 931.272L1085.43 1007.51C1058.76 1022.82 1025.51 1003.57 1025.51 972.817V918.418V631.172Z" fill="#21201E"/>
<path d="M666.552 804.632L666.552 936.06H879.326V804.632H666.552Z" fill="#21201E"/>
<path d="M1073.34 936.06C1093.14 936.06 1109.96 921.572 1112.9 901.989L1120.6 850.561C1124.23 826.378 1105.5 804.632 1081.05 804.632H879.326V936.06H1073.34Z" fill="#21201E"/>
<path d="M615.345 804.632L666.552 936.06L666.552 804.632H615.345Z" fill="#21201E"/>
<path d="M666.552 804.632V804.632C666.552 791.645 652.537 783.491 641.246 789.908L615.345 804.632H666.552Z" fill="#21201E"/>
</svg>
