<svg width="24" height="24" viewBox="0 0 24 24" fill="none" xmlns="http://www.w3.org/2000/svg">
<path d="M15 15C15 15.5304 14.7893 16.0391 14.4142 16.4142C14.0391 16.7893 13.5304 17 13 17H9V15H13V13H11V11H13V9H9V7H13C13.5304 7 14.0391 7.21071 14.4142 7.58579C14.7893 7.96086 15 8.46957 15 9V10.5C15 10.8978 14.842 11.2794 14.5607 11.5607C14.2794 11.842 13.8978 12 13.5 12C13.8978 12 14.2794 12.158 14.5607 12.4393C14.842 12.7206 15 13.1022 15 13.5V15ZM12 2C13.3132 2 14.6136 2.25866 15.8268 2.7612C17.0401 3.26375 18.1425 4.00035 19.0711 4.92893C19.9997 5.85752 20.7362 6.95991 21.2388 8.17317C21.7413 9.38642 22 10.6868 22 12C22 14.6522 20.9464 17.1957 19.0711 19.0711C17.1957 20.9464 14.6522 22 12 22C10.6868 22 9.38642 21.7413 8.17317 21.2388C6.95991 20.7362 5.85752 19.9997 4.92893 19.0711C3.05357 17.1957 2 14.6522 2 12C2 9.34784 3.05357 6.8043 4.92893 4.92893C6.8043 3.05357 9.34784 2 12 2ZM12 4C9.87827 4 7.84344 4.84285 6.34315 6.34315C4.84285 7.84344 4 9.87827 4 12C4 14.1217 4.84285 16.1566 6.34315 17.6569C7.84344 19.1571 9.87827 20 12 20C14.1217 20 16.1566 19.1571 17.6569 17.6569C19.1571 16.1566 20 14.1217 20 12C20 9.87827 19.1571 7.84344 17.6569 6.34315C16.1566 4.84285 14.1217 4 12 4Z" fill="black"/>
</svg>
