<svg width="256" height="256" viewBox="0 0 256 256" fill="none" xmlns="http://www.w3.org/2000/svg">
<path d="M127.857 76.4504C124.754 76.4504 122.237 73.9327 122.237 70.8304V37.5853C122.237 34.4831 124.754 31.9653 127.857 31.9653C130.959 31.9653 133.477 34.4831 133.477 37.5853V70.8304C133.477 73.9327 130.959 76.4504 127.857 76.4504Z" fill="#DFB65A"/>
<path d="M40.2717 164.035H7.02659C3.92435 164.035 1.40659 161.518 1.40659 158.415C1.40659 155.313 3.92435 152.795 7.02659 152.795H40.2717C43.3739 152.795 45.8917 155.313 45.8917 158.415C45.8917 161.518 43.3739 164.035 40.2717 164.035Z" fill="#DFB65A"/>
<path d="M248.687 164.035H215.444C212.342 164.035 209.824 161.518 209.824 158.415C209.824 155.313 212.342 152.795 215.444 152.795H248.687C251.789 152.795 254.307 155.313 254.307 158.415C254.307 161.518 251.789 164.035 248.687 164.035Z" fill="#DFB65A"/>
<path d="M189.789 102.103C188.35 102.103 186.914 101.555 185.816 100.456C183.621 98.2617 183.621 94.7043 185.816 92.5096L209.321 69.0012C211.516 66.8066 215.073 66.8066 217.268 69.0012C219.463 71.1958 219.463 74.7532 217.268 76.9479L193.762 100.456C192.664 101.555 191.228 102.103 189.789 102.103Z" fill="#DFB65A"/>
<path d="M65.9242 102.103C64.4855 102.103 63.0467 101.555 61.9508 100.456L38.4424 76.9479C36.2478 74.7532 36.2478 71.1958 38.4424 69.0012C40.6342 66.8066 44.1973 66.8066 46.3891 69.0012L69.8975 92.5096C72.0921 94.7043 72.0921 98.2617 69.8975 100.456C68.8016 101.555 67.3629 102.103 65.9242 102.103Z" fill="#DFB65A"/>
<path d="M94.3417 83.1185C92.1359 83.1185 90.0424 81.8119 89.146 79.6482L82.7308 64.1566C81.5422 61.2876 82.905 58.0028 85.774 56.8141C88.6374 55.6283 91.9279 56.9883 93.1166 59.8574L99.5318 75.3489C100.72 78.2179 99.3576 81.5028 96.4886 82.6914C95.7861 82.978 95.0583 83.1185 94.3417 83.1185Z" fill="#DFB65A"/>
<path d="M161.371 83.1187C160.655 83.1187 159.924 82.981 159.222 82.6888C156.353 81.5001 154.993 78.2124 156.181 75.3462L162.599 59.8547C163.788 56.9885 167.073 55.62 169.942 56.8143C172.811 58.0029 174.171 61.2906 172.982 64.1568L166.564 79.6483C165.668 81.812 163.577 83.1187 161.371 83.1187Z" fill="#DFB65A"/>
<path d="M208.779 130.518C206.573 130.518 204.482 129.211 203.583 127.047C202.395 124.178 203.757 120.893 206.624 119.705L222.115 113.289C224.99 112.101 228.269 113.464 229.458 116.333C230.646 119.202 229.284 122.487 226.417 123.675L210.926 130.09C210.223 130.38 209.495 130.518 208.779 130.518Z" fill="#DFB65A"/>
<path d="M46.9342 130.518C46.2177 130.518 45.4899 130.38 44.7874 130.088L29.2958 123.672C26.4268 122.487 25.0668 119.199 26.2526 116.33C27.4384 113.461 30.7261 112.092 33.5951 113.287L49.0867 119.702C51.9557 120.888 53.3157 124.175 52.1299 127.044C51.2335 129.211 49.1401 130.518 46.9342 130.518Z" fill="#DFB65A"/>
<path d="M182.514 196.289H73.1993C71.2126 196.289 69.3721 195.24 68.3605 193.529C62.0857 182.919 58.7671 170.774 58.7671 158.418C58.7671 120.323 89.7586 89.3315 127.854 89.3315C165.949 89.3315 196.94 120.323 196.94 158.418C196.94 170.777 193.622 182.919 187.35 193.529C186.341 195.238 184.501 196.289 182.514 196.289Z" fill="#F8C147"/>
<path d="M227.193 196.289H28.5203C25.418 196.289 22.9003 193.771 22.9003 190.669C22.9003 187.566 25.418 185.049 28.5203 185.049H227.19C230.292 185.049 232.81 187.566 232.81 190.669C232.81 193.771 230.295 196.289 227.193 196.289Z" fill="#1CE5F0"/>
<path d="M199.731 223.748H55.9824C52.8802 223.748 50.3624 221.23 50.3624 218.128C50.3624 215.026 52.8802 212.508 55.9824 212.508H199.731C202.833 212.508 205.351 215.026 205.351 218.128C205.351 221.23 202.836 223.748 199.731 223.748Z" fill="#1CE5F0"/>
</svg>
