<svg width="193" height="80" viewBox="0 0 193 80" fill="none" xmlns="http://www.w3.org/2000/svg">
<rect x="15.675" y="13.675" width="160.65" height="52.65" rx="7.425" fill="black"/>
<rect x="15.675" y="13.675" width="160.65" height="52.65" rx="7.425" stroke="#A6A6A6" stroke-width="1.35"/>
<path d="M48.3511 41.0303C48.3675 39.7884 48.7053 38.5708 49.3333 37.4906C49.9612 36.4105 50.8588 35.503 51.9425 34.8525C51.254 33.8926 50.3458 33.1026 49.2899 32.5453C48.2341 31.9881 47.0596 31.6788 45.8599 31.6422C43.3008 31.3799 40.8198 33.1372 39.5157 33.1372C38.1863 33.1372 36.1785 31.6682 34.0163 31.7116C32.6178 31.7557 31.2548 32.1528 30.0602 32.8641C28.8655 33.5754 27.88 34.5767 27.1996 35.7704C24.2522 40.7524 26.4507 48.0743 29.2741 52.1014C30.6866 54.0734 32.3376 56.2761 34.4978 56.198C36.6116 56.1124 37.4011 54.882 39.9528 54.882C42.4807 54.882 43.2214 56.198 45.4254 56.1484C47.6937 56.1124 49.1229 54.1676 50.4859 52.177C51.5009 50.7719 52.2819 49.219 52.8 47.5757C51.4822 47.0316 50.3576 46.1207 49.5664 44.9567C48.7753 43.7928 48.3526 42.4272 48.3511 41.0303Z" fill="white"/>
<path d="M44.1881 28.9937C45.4249 27.5442 46.0342 25.6811 45.8866 23.8C43.9971 23.9938 42.2518 24.8755 40.9983 26.2693C40.3854 26.9503 39.916 27.7425 39.617 28.6007C39.3179 29.4588 39.195 30.3661 39.2553 31.2707C40.2004 31.2802 41.1353 31.0802 41.9898 30.6858C42.8442 30.2914 43.5959 29.7128 44.1881 28.9937Z" fill="white"/>
<path d="M64.6679 23.6769H67.4621C69.8767 23.6769 71.0514 25.1126 71.0514 27.717C71.0514 30.3214 69.8649 31.7749 67.4621 31.7749H64.6679V23.6769ZM66.0146 24.81V30.6418H67.3138C68.9156 30.6418 69.6691 29.6748 69.6691 27.7348C69.6691 25.783 68.9097 24.81 67.3138 24.81H66.0146ZM75.311 25.3973C76.9484 25.3973 78.0934 26.4593 78.0934 28.2213V29.034C78.0934 30.8553 76.9484 31.8817 75.311 31.8817C73.6499 31.8817 72.5167 30.8672 72.5167 29.04V28.2272C72.5167 26.5127 73.6677 25.3973 75.311 25.3973ZM75.3169 26.4593C74.3796 26.4593 73.8456 27.2424 73.8456 28.2925V28.9925C73.8456 30.0426 74.344 30.8198 75.3169 30.8198C76.278 30.8198 76.7704 30.0485 76.7704 28.9925V28.2925C76.7704 27.2424 76.2543 26.4593 75.3169 26.4593ZM87.7636 25.5041L86.1143 31.7749H84.7735L83.4624 27.1475H83.4268L82.1394 31.7749H80.7927L79.0723 25.5041H80.4902L81.4987 30.2858H81.558L82.8217 25.5041H84.0616L85.3608 30.2858H85.4202L86.4465 25.5041H87.7636ZM89.0687 31.7749V25.5041H90.362V26.6313H90.4273C90.5875 26.1389 91.0443 25.4092 92.3139 25.4092C93.5775 25.4092 94.4259 26.1093 94.4259 27.539V31.7749H93.1088V27.9246C93.1088 26.9695 92.6105 26.5305 91.8689 26.5305C90.896 26.5305 90.3858 27.278 90.3858 28.2925V31.7749H89.0687ZM96.4192 31.7749V23.2497H97.7363V31.7749H96.4192ZM102.257 25.3973C103.894 25.3973 105.039 26.4593 105.039 28.2213V29.034C105.039 30.8553 103.894 31.8817 102.257 31.8817C100.596 31.8817 99.4627 30.8672 99.4627 29.04V28.2272C99.4627 26.5127 100.614 25.3973 102.257 25.3973ZM102.263 26.4593C101.326 26.4593 100.792 27.2424 100.792 28.2925V28.9925C100.792 30.0426 101.29 30.8198 102.263 30.8198C103.224 30.8198 103.716 30.0485 103.716 28.9925V28.2925C103.716 27.2424 103.2 26.4593 102.263 26.4593ZM108.451 31.8698C107.234 31.8698 106.398 31.1223 106.398 29.9536C106.398 28.8442 107.169 28.0967 108.617 28.0967H110.201V27.5094C110.201 26.7915 109.744 26.4533 109.02 26.4533C108.308 26.4533 107.988 26.75 107.887 27.1653H106.635C106.712 26.1152 107.501 25.4092 109.062 25.4092C110.402 25.4092 111.512 25.9669 111.512 27.5271V31.7749H110.26V30.9621H110.201C109.922 31.4427 109.376 31.8698 108.451 31.8698ZM108.86 30.8494C109.607 30.8494 110.201 30.3392 110.201 29.657V28.9806H108.824C108.059 28.9806 107.721 29.3663 107.721 29.8883C107.721 30.5409 108.267 30.8494 108.86 30.8494ZM115.57 25.4211C116.454 25.4211 117.13 25.8126 117.373 26.4474H117.439V23.2497H118.756V31.7749H117.474V30.7723H117.409C117.219 31.4071 116.466 31.858 115.552 31.858C114.11 31.858 113.173 30.8316 113.173 29.1764V28.1026C113.173 26.4474 114.128 25.4211 115.57 25.4211ZM115.938 26.5008C115.06 26.5008 114.514 27.1534 114.514 28.2925V28.9806C114.514 30.1256 115.065 30.7782 115.967 30.7782C116.857 30.7782 117.439 30.1316 117.439 29.0637V28.1145C117.439 27.1475 116.804 26.5008 115.938 26.5008ZM125.987 25.3973C127.625 25.3973 128.77 26.4593 128.77 28.2213V29.034C128.77 30.8553 127.625 31.8817 125.987 31.8817C124.326 31.8817 123.193 30.8672 123.193 29.04V28.2272C123.193 26.5127 124.344 25.3973 125.987 25.3973ZM125.993 26.4593C125.056 26.4593 124.522 27.2424 124.522 28.2925V28.9925C124.522 30.0426 125.02 30.8198 125.993 30.8198C126.954 30.8198 127.447 30.0485 127.447 28.9925V28.2925C127.447 27.2424 126.931 26.4593 125.993 26.4593ZM130.467 31.7749V25.5041H131.76V26.6313H131.825C131.985 26.1389 132.442 25.4092 133.712 25.4092C134.975 25.4092 135.824 26.1093 135.824 27.539V31.7749H134.507V27.9246C134.507 26.9695 134.008 26.5305 133.267 26.5305C132.294 26.5305 131.784 27.278 131.784 28.2925V31.7749H130.467ZM140.92 25.5457V23.9794H142.207V25.5457H143.613V26.5779H142.207V29.9061C142.207 30.5884 142.462 30.7782 143.168 30.7782C143.346 30.7782 143.584 30.7664 143.684 30.7545V31.763C143.578 31.7808 143.139 31.8164 142.842 31.8164C141.317 31.8164 140.902 31.2706 140.902 30.0129V26.5779H139.947V25.5457H140.92ZM145.274 31.7749V23.2497H146.585V26.6313H146.651C146.787 26.1864 147.297 25.4092 148.555 25.4092C149.777 25.4092 150.649 26.1152 150.649 27.5449V31.7749H149.338V27.9306C149.338 26.9754 148.81 26.5305 148.063 26.5305C147.119 26.5305 146.585 27.272 146.585 28.2925V31.7749H145.274ZM155.069 31.8817C153.361 31.8817 152.299 30.8316 152.299 29.0637V28.2153C152.299 26.4355 153.461 25.3973 154.992 25.3973C156.564 25.3973 157.674 26.4889 157.674 28.2153V28.951H153.604V29.2595C153.604 30.1612 154.138 30.8257 155.063 30.8257C155.751 30.8257 156.226 30.4994 156.315 30.1078H157.602C157.525 30.8316 156.76 31.8817 155.069 31.8817ZM153.604 28.0907H156.386V28.0077C156.386 27.0644 155.834 26.4355 154.998 26.4355C154.161 26.4355 153.604 27.0644 153.604 28.0077V28.0907Z" fill="white"/>
<path d="M66.5782 54.9248H63.8373L69.414 38.7288H72.4277L77.9925 54.9248H75.1449L73.7092 50.4397H68.0257L66.5782 54.9248ZM70.9327 41.529H70.8259L68.6309 48.3752H73.1041L70.9327 41.529ZM85.5569 55.1028C83.9314 55.1028 82.6974 54.3315 82.0329 53.1806H81.938V59.0895H79.3039V42.3833H81.8668V44.2224H81.9617C82.6499 43.024 83.9314 42.2171 85.6162 42.2171C88.4283 42.2171 90.4335 44.341 90.4335 48.0904V49.2058C90.4335 52.9314 88.452 55.1028 85.5569 55.1028ZM84.9518 52.9314C86.6248 52.9314 87.7638 51.5907 87.7638 49.0634V48.1854C87.7638 45.753 86.696 44.3647 84.9043 44.3647C83.0652 44.3647 81.9143 45.8598 81.9143 48.1735V49.0634C81.9143 51.4364 83.0771 52.9314 84.9518 52.9314ZM98.9471 55.1028C97.3216 55.1028 96.0876 54.3315 95.4231 53.1806H95.3282V59.0895H92.6941V42.3833H95.257V44.2224H95.352C96.0401 43.024 97.3216 42.2171 99.0064 42.2171C101.819 42.2171 103.824 44.341 103.824 48.0904V49.2058C103.824 52.9314 101.842 55.1028 98.9471 55.1028ZM98.342 52.9314C100.015 52.9314 101.154 51.5907 101.154 49.0634V48.1854C101.154 45.753 100.086 44.3647 98.2945 44.3647C96.4554 44.3647 95.3045 45.8598 95.3045 48.1735V49.0634C95.3045 51.4364 96.4673 52.9314 98.342 52.9314ZM109.282 50.4279H111.916C112.035 51.828 113.269 53.0264 115.559 53.0264C117.659 53.0264 118.905 52.0416 118.905 50.5109C118.905 49.277 118.074 48.6125 116.342 48.1972L113.684 47.5328C111.596 47.0463 109.721 45.8004 109.721 43.1664C109.721 40.0695 112.427 38.3728 115.571 38.3728C118.715 38.3728 121.337 40.0695 121.397 43.0952H118.81C118.691 41.7188 117.635 40.5797 115.535 40.5797C113.684 40.5797 112.427 41.4578 112.427 42.9646C112.427 44.0207 113.162 44.78 114.669 45.1241L117.315 45.7767C119.747 46.37 121.598 47.5209 121.598 50.2736C121.598 53.4535 119.024 55.2452 115.357 55.2452C110.849 55.2452 109.342 52.6111 109.282 50.4279ZM124.808 42.3833V39.3339H127.395V42.3833H129.839V44.4953H127.395V51.1873C127.395 52.5518 127.905 52.9314 129.317 52.9314C129.542 52.9314 129.756 52.9314 129.91 52.9077V54.9248C129.697 54.9604 129.198 55.0079 128.664 55.0079C125.615 55.0079 124.773 53.9163 124.773 51.4008V44.4953H123.04V42.3833H124.808ZM136.953 42.1697C140.56 42.1697 142.517 44.7088 142.517 48.126V49.1346C142.517 52.6704 140.572 55.1384 136.953 55.1384C133.334 55.1384 131.364 52.6704 131.364 49.1346V48.126C131.364 44.7207 133.346 42.1697 136.953 42.1697ZM136.953 44.2817C134.995 44.2817 134.022 45.8835 134.022 48.1616V49.1227C134.022 51.3652 134.983 53.0145 136.953 53.0145C138.922 53.0145 139.871 51.3771 139.871 49.1227V48.1616C139.871 45.8716 138.91 44.2817 136.953 44.2817ZM144.742 54.9248V42.3833H147.377V44.0325H147.471C147.792 43.2494 148.729 42.2053 150.473 42.2053C150.817 42.2053 151.114 42.229 151.363 42.2765V44.6021C151.138 44.5427 150.675 44.5071 150.236 44.5071C148.124 44.5071 147.412 45.8123 147.412 47.4972V54.9248H144.742ZM157.753 55.1384C154.395 55.1384 152.259 52.9196 152.259 49.2058V47.9362C152.259 44.4359 154.348 42.1697 157.646 42.1697C160.992 42.1697 163.009 44.519 163.009 48.0548V49.2532H154.858V49.5499C154.858 51.6619 155.997 53.062 157.789 53.062C159.129 53.062 160.043 52.3975 160.363 51.3178H162.867C162.487 53.3467 160.85 55.1384 157.753 55.1384ZM154.858 47.4141H160.435V47.3904C160.435 45.6106 159.331 44.2105 157.658 44.2105C155.961 44.2105 154.858 45.6106 154.858 47.3904V47.4141Z" fill="white"/>
</svg>
