<svg width="193" height="80" viewBox="0 0 193 80" fill="none" xmlns="http://www.w3.org/2000/svg">
<g clip-path="url(#clip0_108_8)">
<path d="M25.8 13H166.2C169.064 13 171.811 14.1379 173.837 16.1632C175.862 18.1886 177 20.9357 177 23.8V56.2C177 59.0643 175.862 61.8114 173.837 63.8368C171.811 65.8621 169.064 67 166.2 67H25.8C22.9357 67 20.1886 65.8621 18.1632 63.8368C16.1379 61.8114 15 59.0643 15 56.2V23.8C15 20.9357 16.1379 18.1886 18.1632 16.1632C20.1886 14.1379 22.9357 13 25.8 13Z" fill="black"/>
<mask id="mask0_108_8" style="mask-type:luminance" maskUnits="userSpaceOnUse" x="15" y="13" width="162" height="54">
<path d="M25.8 13H166.2C169.064 13 171.811 14.1379 173.837 16.1632C175.862 18.1886 177 20.9357 177 23.8V56.2C177 59.0643 175.862 61.8114 173.837 63.8368C171.811 65.8621 169.064 67 166.2 67H25.8C22.9357 67 20.1886 65.8621 18.1632 63.8368C16.1379 61.8114 15 59.0643 15 56.2V23.8C15 20.9357 16.1379 18.1886 18.1632 16.1632C20.1886 14.1379 22.9357 13 25.8 13Z" fill="white"/>
</mask>
<g mask="url(#mask0_108_8)">
<path d="M18.163 16.163C19.166 15.1602 20.3566 14.3647 21.6669 13.822C22.9773 13.2793 24.3817 12.9999 25.8 13H166.2C169.064 13 171.811 14.1379 173.837 16.1632C175.862 18.1886 177 20.9357 177 23.8V56.2C177 59.0643 175.862 61.8114 173.837 63.8368C171.811 65.8621 169.064 67 166.2 67H25.8C22.9357 67 20.1886 65.8621 18.1632 63.8368C16.1379 61.8114 15 59.0643 15 56.2V23.8C14.9999 22.3817 15.2793 20.9773 15.822 19.6669C16.3647 18.3566 17.1602 17.166 18.163 16.163Z" stroke="#888A85" stroke-width="4"/>
</g>
<path d="M81.8924 25.2175H80.4074C80.3624 24.9925 80.2949 24.8125 80.2049 24.6775C80.0699 24.4975 79.9349 24.34 79.7999 24.205C79.6199 24.115 79.4399 24.025 79.2599 23.935C79.0349 23.89 78.8099 23.8675 78.5849 23.8675C78.1799 23.8675 77.7974 23.98 77.4374 24.205C77.1224 24.385 76.8749 24.7 76.6949 25.15C76.5149 25.555 76.4249 26.05 76.4249 26.635C76.4249 27.22 76.5149 27.715 76.6949 28.12C76.8749 28.525 77.1224 28.84 77.4374 29.065C77.7974 29.29 78.2024 29.4025 78.6524 29.4025C79.0124 29.4025 79.3499 29.3125 79.6649 29.1325C79.9349 28.9975 80.1599 28.795 80.3399 28.525C80.4749 28.21 80.5424 27.8725 80.5424 27.5125L80.8799 27.58H78.7874V26.4325H81.9599V27.3775C81.9599 28.0525 81.8249 28.6375 81.5549 29.1325C81.2399 29.6275 80.8349 30.01 80.3399 30.28C79.8449 30.55 79.2599 30.685 78.5849 30.685C77.8649 30.685 77.2349 30.505 76.6949 30.145C76.1549 29.83 75.7274 29.38 75.4124 28.795C75.1424 28.165 75.0074 27.445 75.0074 26.635C75.0074 26.005 75.0974 25.4425 75.2774 24.9475C75.4574 24.4525 75.7049 24.025 76.0199 23.665C76.3349 23.305 76.7174 23.035 77.1674 22.855C77.5724 22.675 78.0449 22.585 78.5849 22.585C78.9899 22.585 79.3949 22.6525 79.7999 22.7875C80.1599 22.9225 80.4974 23.1025 80.8124 23.3275C81.0824 23.5525 81.3074 23.8225 81.4874 24.1375C81.7124 24.4525 81.8474 24.8125 81.8924 25.2175ZM88.4399 30.55H83.3099V22.72H88.4399V23.8675H84.7274V26.0275H88.1699V27.2425H84.7274V29.335H88.4399V30.55ZM91.9499 23.8675H89.5199V22.72H95.7974V23.8675H93.3674V30.55H91.9499V23.8675ZM99.7124 22.72H101.13V30.55H99.7124V22.72ZM104.775 23.8675H102.345V22.72H108.555V23.8675H106.192V30.55H104.775V23.8675ZM119.49 26.635C119.49 27.49 119.332 28.21 119.017 28.795C118.702 29.38 118.275 29.83 117.735 30.145C117.195 30.505 116.587 30.685 115.912 30.685C115.192 30.685 114.562 30.505 114.022 30.145C113.482 29.83 113.055 29.38 112.74 28.795C112.425 28.21 112.267 27.49 112.267 26.635C112.267 25.78 112.425 25.06 112.74 24.475C113.055 23.845 113.482 23.3725 114.022 23.0575C114.562 22.7425 115.192 22.585 115.912 22.585C116.587 22.585 117.195 22.7425 117.735 23.0575C118.275 23.3725 118.702 23.845 119.017 24.475C119.332 25.06 119.49 25.78 119.49 26.635ZM118.072 26.635C118.072 26.05 117.982 25.5325 117.802 25.0825C117.622 24.6775 117.352 24.385 116.992 24.205C116.677 23.98 116.317 23.8675 115.912 23.8675C115.462 23.8675 115.08 23.98 114.765 24.205C114.45 24.385 114.18 24.6775 113.955 25.0825C113.775 25.5325 113.685 26.05 113.685 26.635C113.685 27.22 113.775 27.715 113.955 28.12C114.18 28.525 114.45 28.84 114.765 29.065C115.08 29.29 115.462 29.4025 115.912 29.4025C116.317 29.4025 116.677 29.29 116.992 29.065C117.352 28.84 117.622 28.525 117.802 28.12C117.982 27.715 118.072 27.22 118.072 26.635ZM125.902 22.72H127.32V30.55H126.037L122.325 25.2175H122.257V30.55H120.84V22.72H122.122L125.835 28.0525H125.902V22.72Z" fill="white"/>
<path d="M79.3275 56.8749H76.155V39.1899H87.495V41.8899H79.3275V46.6824H86.685V49.3824H79.3275V56.8749ZM90.2625 39.1899H93.3675V56.8749H90.2625V39.1899ZM100.388 57.1449C99.5325 57.1449 98.7675 56.9874 98.0925 56.6724C97.4175 56.4024 96.9 55.9524 96.54 55.3224C96.135 54.7374 95.9325 54.0174 95.9325 53.1624C95.9325 52.3974 96.0675 51.7674 96.3375 51.2724C96.6075 50.8224 96.99 50.4399 97.485 50.1249C97.98 49.8549 98.52 49.6299 99.105 49.4499C99.69 49.3149 100.32 49.2024 100.995 49.1124C101.76 49.0224 102.39 48.9549 102.885 48.9099C103.335 48.8199 103.673 48.7074 103.898 48.5724C104.123 48.4374 104.235 48.2349 104.235 47.9649V47.8974C104.235 47.2224 104.055 46.7049 103.695 46.3449C103.29 45.9849 102.728 45.8049 102.008 45.8049C101.243 45.8049 100.635 45.9849 100.185 46.3449C99.735 46.6599 99.4425 47.0424 99.3075 47.4924L96.405 47.0874C96.63 46.2774 96.99 45.6024 97.485 45.0624C98.025 44.5224 98.6775 44.1174 99.4425 43.8474C100.208 43.5774 101.063 43.4424 102.008 43.4424C102.638 43.4424 103.268 43.5099 103.898 43.6449C104.528 43.8249 105.113 44.0724 105.653 44.3874C106.148 44.7474 106.575 45.2199 106.935 45.8049C107.25 46.3899 107.408 47.1324 107.408 48.0324V56.8749H104.37V55.0524H104.303C104.078 55.4124 103.808 55.7499 103.493 56.0649C103.133 56.3799 102.705 56.6499 102.21 56.8749C101.67 57.0549 101.063 57.1449 100.388 57.1449ZM101.198 54.8499C101.828 54.8499 102.368 54.7149 102.818 54.4449C103.268 54.2199 103.628 53.9049 103.898 53.4999C104.123 53.0499 104.235 52.5999 104.235 52.1499V50.5299C104.145 50.6199 103.988 50.7099 103.763 50.7999C103.538 50.8449 103.29 50.8899 103.02 50.9349C102.705 51.0249 102.413 51.0699 102.143 51.0699C101.873 51.1149 101.625 51.1599 101.4 51.2049C100.95 51.2499 100.523 51.3624 100.118 51.5424C99.7575 51.6774 99.4875 51.8574 99.3075 52.0824C99.0825 52.3524 98.97 52.6899 98.97 53.0949C98.97 53.6799 99.1725 54.1074 99.5775 54.3774C100.028 54.6924 100.568 54.8499 101.198 54.8499ZM109.5 43.6449H117.128V46.0074H109.5V43.6449ZM111.39 53.4324V40.4724H114.563V52.8924C114.563 53.2974 114.608 53.6124 114.698 53.8374C114.833 54.0624 115.013 54.2199 115.238 54.3099C115.463 54.3999 115.71 54.4449 115.98 54.4449C116.16 54.4449 116.34 54.4224 116.52 54.3774C116.655 54.3324 116.768 54.3099 116.858 54.3099L117.398 56.7399C117.218 56.7849 116.97 56.8524 116.655 56.9424C116.385 56.9874 116.025 57.0324 115.575 57.0774C114.765 57.0774 114.045 56.9424 113.415 56.6724C112.785 56.4474 112.29 56.0424 111.93 55.4574C111.57 54.9174 111.39 54.2424 111.39 53.4324ZM122.865 49.1124V56.8749H119.76V39.1899H122.798V45.8724H123C123.315 45.1074 123.788 44.5224 124.418 44.1174C125.093 43.6674 125.925 43.4424 126.915 43.4424C127.815 43.4424 128.625 43.6449 129.345 44.0499C130.02 44.4099 130.538 44.9724 130.898 45.7374C131.303 46.4574 131.505 47.3574 131.505 48.4374V56.8749H128.333V48.9099C128.333 48.0099 128.108 47.3124 127.658 46.8174C127.208 46.3224 126.578 46.0749 125.768 46.0749C125.228 46.0749 124.733 46.2099 124.283 46.4799C123.833 46.7049 123.495 47.0424 123.27 47.4924C123 47.9424 122.865 48.4824 122.865 49.1124ZM143.115 51.2724V43.6449H146.22V56.8749H143.183V54.5124H143.048C142.778 55.2774 142.283 55.8849 141.563 56.3349C140.888 56.8299 140.055 57.0774 139.065 57.0774C138.21 57.0774 137.445 56.8749 136.77 56.4699C136.095 56.0649 135.578 55.5024 135.218 54.7824C134.858 54.0174 134.678 53.1174 134.678 52.0824V43.6449H137.783V51.6099C137.783 52.4199 138.008 53.0724 138.458 53.5674C138.908 54.0624 139.515 54.3099 140.28 54.3099C140.73 54.3099 141.18 54.1974 141.63 53.9724C142.035 53.7474 142.395 53.4099 142.71 52.9599C142.98 52.5099 143.115 51.9474 143.115 51.2724ZM152.633 56.8749H149.595V39.1899H152.7V45.8049H152.835C153.015 45.4899 153.24 45.1524 153.51 44.7924C153.825 44.4324 154.23 44.1174 154.725 43.8474C155.22 43.5774 155.85 43.4424 156.615 43.4424C157.65 43.4424 158.573 43.7124 159.383 44.2524C160.238 44.7474 160.89 45.5124 161.34 46.5474C161.835 47.5374 162.083 48.7749 162.083 50.2599C162.083 51.6999 161.858 52.9374 161.408 53.9724C160.913 55.0074 160.26 55.7949 159.45 56.3349C158.595 56.8299 157.65 57.0774 156.615 57.0774C155.85 57.0774 155.22 56.9649 154.725 56.7399C154.23 56.4699 153.825 56.1549 153.51 55.7949C153.24 55.4349 153.015 55.0974 152.835 54.7824H152.633V56.8749ZM152.633 50.2599C152.633 51.1149 152.768 51.8574 153.038 52.4874C153.263 53.1624 153.6 53.6574 154.05 53.9724C154.545 54.3324 155.108 54.5124 155.738 54.5124C156.458 54.5124 157.043 54.3324 157.493 53.9724C157.943 53.6124 158.303 53.1174 158.573 52.4874C158.798 51.8124 158.91 51.0699 158.91 50.2599C158.91 49.4499 158.798 48.7074 158.573 48.0324C158.303 47.4024 157.943 46.9074 157.493 46.5474C157.043 46.1874 156.458 46.0074 155.738 46.0074C155.063 46.0074 154.5 46.1874 154.05 46.5474C153.6 46.9074 153.24 47.4024 152.97 48.0324C152.745 48.6624 152.633 49.4049 152.633 50.2599Z" fill="white"/>
<path d="M35.4057 39.2328C40.338 39.2328 44.3364 35.2344 44.3364 30.3021C44.3364 25.3698 40.338 21.3713 35.4057 21.3713C30.4734 21.3713 26.475 25.3698 26.475 30.3021C26.475 35.2344 30.4734 39.2328 35.4057 39.2328Z" fill="white"/>
<path d="M39.1127 42.2979H31.5528C29.167 42.2979 27.2329 44.2319 27.2329 46.6177V54.1776C27.2329 56.5634 29.167 58.4975 31.5528 58.4975H39.1127C41.4985 58.4975 43.4326 56.5634 43.4326 54.1776V46.6177C43.4326 44.2319 41.4985 42.2979 39.1127 42.2979Z" fill="white"/>
<path d="M63.9806 28.0611L62.3532 27.1216L52.9883 21.7147C52.5962 21.4883 52.1514 21.3691 51.6987 21.3691C51.2459 21.3691 50.8011 21.4883 50.409 21.7146C50.0169 21.941 49.6913 22.2666 49.4649 22.6587C49.2385 23.0509 49.1193 23.4957 49.1193 23.9484L49.1195 36.6411C49.1195 37.0938 49.2387 37.5386 49.4651 37.9307C49.6915 38.3228 50.0171 38.6484 50.4092 38.8748C50.8013 39.1011 51.246 39.2203 51.6988 39.2203C52.1515 39.2203 52.5963 39.1011 52.9884 38.8748L63.9807 32.5286C64.3728 32.3023 64.6984 31.9767 64.9248 31.5846C65.1512 31.1924 65.2704 30.7477 65.2704 30.2949C65.2704 29.8421 65.1512 29.3973 64.9248 29.0052C64.6984 28.6131 64.3727 28.2875 63.9806 28.0611Z" fill="white"/>
<path d="M63.3395 50.5003C63.3395 51.3684 62.6407 52.0673 61.7725 52.0673H49.2369C48.3688 52.0673 47.6699 51.3684 47.6699 50.5003C47.6699 49.6322 48.3688 48.9334 49.2369 48.9334H61.7725C62.6406 48.9334 63.3395 49.6322 63.3395 50.5003ZM55.5047 42.6655C56.3728 42.6655 57.0717 43.3644 57.0717 44.2325V56.7682C57.0717 57.6362 56.3728 58.3351 55.5047 58.3351C54.6366 58.3351 53.9377 57.6363 53.9377 56.7682V44.2325C53.9377 43.3644 54.6366 42.6655 55.5047 42.6655Z" fill="white"/>
</g>
<defs>
<clipPath id="clip0_108_8">
<rect width="162" height="54" fill="white" transform="translate(15 13)"/>
</clipPath>
</defs>
</svg>
