<?xml version="1.0" encoding="utf-8" standalone="no"?>
<!DOCTYPE svg PUBLIC "-//W3C//DTD SVG 1.1//EN"
  "http://www.w3.org/Graphics/SVG/1.1/DTD/svg11.dtd">
<svg xmlns:xlink="http://www.w3.org/1999/xlink" width="643.787475pt" height="291.6pt" viewBox="0 0 643.787475 291.6" xmlns="http://www.w3.org/2000/svg" version="1.1">
 <metadata>
  <rdf:RDF xmlns:dc="http://purl.org/dc/elements/1.1/" xmlns:cc="http://creativecommons.org/ns#" xmlns:rdf="http://www.w3.org/1999/02/22-rdf-syntax-ns#">
   <cc:Work>
    <dc:type rdf:resource="http://purl.org/dc/dcmitype/StillImage"/>
    <dc:date>2024-01-09T17:13:49.424261</dc:date>
    <dc:format>image/svg+xml</dc:format>
    <dc:creator>
     <cc:Agent>
      <dc:title>Matplotlib v3.7.2, https://matplotlib.org/</dc:title>
     </cc:Agent>
    </dc:creator>
   </cc:Work>
  </rdf:RDF>
 </metadata>
 <defs>
  <style type="text/css">*{stroke-linejoin: round; stroke-linecap: butt}</style>
 </defs>
 <g id="figure_1">
  <g id="patch_1">
   <path d="M -0 291.6 
L 643.787475 291.6 
L 643.787475 0 
L -0 0 
L -0 291.6 
z
" style="fill: none"/>
  </g>
  <g id="axes_1">
   <g id="patch_2">
    <path d="M 32.985 284.4 
L 590.985 284.4 
L 590.985 7.2 
L 32.985 7.2 
L 32.985 284.4 
z
" style="fill: none"/>
   </g>
   <g id="patch_3">
    <path d="M 32.985 271.8 
L 587.1906 271.8 
L 587.1906 243.8 
L 32.985 243.8 
z
" clip-path="url(#p24150e6a96)" style="fill: #440154"/>
   </g>
   <g id="patch_4">
    <path d="M 587.1906 271.8 
L 590.985 271.8 
L 590.985 243.8 
L 587.1906 243.8 
z
" clip-path="url(#p24150e6a96)" style="fill: #ffffff"/>
   </g>
   <g id="patch_5">
    <path d="M 32.985 215.8 
L 590.985 215.8 
L 590.985 187.8 
L 32.985 187.8 
z
" clip-path="url(#p24150e6a96)" style="fill: #3b528b"/>
   </g>
   <g id="patch_6">
    <path d="M 590.985 215.8 
L 590.985 215.8 
L 590.985 187.8 
L 590.985 187.8 
z
" clip-path="url(#p24150e6a96)" style="fill: #ffffff"/>
   </g>
   <g id="patch_7">
    <path d="M 32.985 159.8 
L 590.985 159.8 
L 590.985 131.8 
L 32.985 131.8 
z
" clip-path="url(#p24150e6a96)" style="fill: #21918c"/>
   </g>
   <g id="patch_8">
    <path d="M 590.985 159.8 
L 590.985 159.8 
L 590.985 131.8 
L 590.985 131.8 
z
" clip-path="url(#p24150e6a96)" style="fill: #ffffff"/>
   </g>
   <g id="patch_9">
    <path d="M 32.985 103.8 
L 552.8736 103.8 
L 552.8736 75.8 
L 32.985 75.8 
z
" clip-path="url(#p24150e6a96)" style="fill: #5ec962"/>
   </g>
   <g id="patch_10">
    <path d="M 552.8736 103.8 
L 590.985 103.8 
L 590.985 75.8 
L 552.8736 75.8 
z
" clip-path="url(#p24150e6a96)" style="fill: #ffffff"/>
   </g>
   <g id="patch_11">
    <path d="M 32.985 47.8 
L 590.985 47.8 
L 590.985 19.8 
L 32.985 19.8 
z
" clip-path="url(#p24150e6a96)" style="fill: #fde725"/>
   </g>
   <g id="patch_12">
    <path d="M 590.985 47.8 
L 590.985 47.8 
L 590.985 19.8 
L 590.985 19.8 
z
" clip-path="url(#p24150e6a96)" style="fill: #ffffff"/>
   </g>
   <g id="matplotlib.axis_1"/>
   <g id="matplotlib.axis_2">
    <g id="ytick_1">
     <g id="line2d_1">
      <defs>
       <path id="m50bde1f6e3" d="M 0 0 
L -3.5 0 
" style="stroke: #808080; stroke-width: 0.8"/>
      </defs>
      <g>
       <use xlink:href="#m50bde1f6e3" x="32.985" y="257.8" style="fill: #808080; stroke: #808080; stroke-width: 0.8"/>
      </g>
     </g>
     <g id="text_1">
      <text style="fill: #808080; font: 16px 'Noto Sans CJK SC Regular', '思源等宽', '黑体', 'Noto Serif CJK SC', '思源宋体', 'Noto Sans Mono CJK SC Regularsans-serif', sans-serif; text-anchor: end" x="25.985" y="264.1675" transform="rotate(-0 25.985 264.1675)">de</text>
     </g>
    </g>
    <g id="ytick_2">
     <g id="line2d_2">
      <g>
       <use xlink:href="#m50bde1f6e3" x="32.985" y="201.8" style="fill: #808080; stroke: #808080; stroke-width: 0.8"/>
      </g>
     </g>
     <g id="text_2">
      <text style="fill: #808080; font: 16px 'Noto Sans CJK SC Regular', '思源等宽', '黑体', 'Noto Serif CJK SC', '思源宋体', 'Noto Sans Mono CJK SC Regularsans-serif', sans-serif; text-anchor: end" x="25.985" y="208.1675" transform="rotate(-0 25.985 208.1675)">zh</text>
     </g>
    </g>
    <g id="ytick_3">
     <g id="line2d_3">
      <g>
       <use xlink:href="#m50bde1f6e3" x="32.985" y="145.8" style="fill: #808080; stroke: #808080; stroke-width: 0.8"/>
      </g>
     </g>
     <g id="text_3">
      <text style="fill: #808080; font: 16px 'Noto Sans CJK SC Regular', '思源等宽', '黑体', 'Noto Serif CJK SC', '思源宋体', 'Noto Sans Mono CJK SC Regularsans-serif', sans-serif; text-anchor: end" x="25.985" y="152.1675" transform="rotate(-0 25.985 152.1675)">vi</text>
     </g>
    </g>
    <g id="ytick_4">
     <g id="line2d_4">
      <g>
       <use xlink:href="#m50bde1f6e3" x="32.985" y="89.8" style="fill: #808080; stroke: #808080; stroke-width: 0.8"/>
      </g>
     </g>
     <g id="text_4">
      <text style="fill: #808080; font: 16px 'Noto Sans CJK SC Regular', '思源等宽', '黑体', 'Noto Serif CJK SC', '思源宋体', 'Noto Sans Mono CJK SC Regularsans-serif', sans-serif; text-anchor: end" x="25.985" y="96.1675" transform="rotate(-0 25.985 96.1675)">fa</text>
     </g>
    </g>
    <g id="ytick_5">
     <g id="line2d_5">
      <g>
       <use xlink:href="#m50bde1f6e3" x="32.985" y="33.8" style="fill: #808080; stroke: #808080; stroke-width: 0.8"/>
      </g>
     </g>
     <g id="text_5">
      <text style="fill: #808080; font: 16px 'Noto Sans CJK SC Regular', '思源等宽', '黑体', 'Noto Serif CJK SC', '思源宋体', 'Noto Sans Mono CJK SC Regularsans-serif', sans-serif; text-anchor: end" x="25.985" y="40.1675" transform="rotate(-0 25.985 40.1675)">en</text>
     </g>
    </g>
   </g>
   <g id="text_6">
    <g id="patch_13">
     <path d="M 595.5606 267.55 
L 636.587475 267.55 
Q 640.187475 267.55 640.187475 263.95 
L 640.187475 251.65 
Q 640.187475 248.05 636.587475 248.05 
L 595.5606 248.05 
Q 591.9606 248.05 591.9606 251.65 
L 591.9606 263.95 
Q 591.9606 267.55 595.5606 267.55 
z
" style="fill: #00cc00; stroke: #00cc00; stroke-linejoin: miter"/>
    </g>
    <text style="font: 12px 'Noto Sans CJK SC Regular', '思源等宽', '黑体', 'Noto Serif CJK SC', '思源宋体', 'Noto Sans Mono CJK SC Regularsans-serif', sans-serif; text-anchor: start" x="595.5606" y="261.20125" transform="rotate(-0 595.5606 261.20125)">99.32%</text>
   </g>
   <g id="text_7">
    <g id="patch_14">
     <path d="M 599.355 211.55 
L 630.38625 211.55 
Q 633.98625 211.55 633.98625 207.95 
L 633.98625 195.65 
Q 633.98625 192.05 630.38625 192.05 
L 599.355 192.05 
Q 595.755 192.05 595.755 195.65 
L 595.755 207.95 
Q 595.755 211.55 599.355 211.55 
z
" style="fill: #00cc00; stroke: #00cc00; stroke-linejoin: miter"/>
    </g>
    <text style="font: 12px 'Noto Sans CJK SC Regular', '思源等宽', '黑体', 'Noto Serif CJK SC', '思源宋体', 'Noto Sans Mono CJK SC Regularsans-serif', sans-serif; text-anchor: start" x="599.355" y="205.20125" transform="rotate(-0 599.355 205.20125)">100%</text>
   </g>
   <g id="text_8">
    <g id="patch_15">
     <path d="M 599.355 155.55 
L 630.38625 155.55 
Q 633.98625 155.55 633.98625 151.95 
L 633.98625 139.65 
Q 633.98625 136.05 630.38625 136.05 
L 599.355 136.05 
Q 595.755 136.05 595.755 139.65 
L 595.755 151.95 
Q 595.755 155.55 599.355 155.55 
z
" style="fill: #00cc00; stroke: #00cc00; stroke-linejoin: miter"/>
    </g>
    <text style="font: 12px 'Noto Sans CJK SC Regular', '思源等宽', '黑体', 'Noto Serif CJK SC', '思源宋体', 'Noto Sans Mono CJK SC Regularsans-serif', sans-serif; text-anchor: start" x="599.355" y="149.20125" transform="rotate(-0 599.355 149.20125)">100%</text>
   </g>
   <g id="text_9">
    <g id="patch_16">
     <path d="M 561.2436 99.55 
L 602.270475 99.55 
Q 605.870475 99.55 605.870475 95.95 
L 605.870475 83.65 
Q 605.870475 80.05 602.270475 80.05 
L 561.2436 80.05 
Q 557.6436 80.05 557.6436 83.65 
L 557.6436 95.95 
Q 557.6436 99.55 561.2436 99.55 
z
" style="fill: #00cc00; stroke: #00cc00; stroke-linejoin: miter"/>
    </g>
    <text style="font: 12px 'Noto Sans CJK SC Regular', '思源等宽', '黑体', 'Noto Serif CJK SC', '思源宋体', 'Noto Sans Mono CJK SC Regularsans-serif', sans-serif; text-anchor: start" x="561.2436" y="93.20125" transform="rotate(-0 561.2436 93.20125)">93.17%</text>
   </g>
   <g id="text_10">
    <g id="patch_17">
     <path d="M 599.355 43.55 
L 630.38625 43.55 
Q 633.98625 43.55 633.98625 39.95 
L 633.98625 27.65 
Q 633.98625 24.05 630.38625 24.05 
L 599.355 24.05 
Q 595.755 24.05 595.755 27.65 
L 595.755 39.95 
Q 595.755 43.55 599.355 43.55 
z
" style="fill: #00cc00; stroke: #00cc00; stroke-linejoin: miter"/>
    </g>
    <text style="font: 12px 'Noto Sans CJK SC Regular', '思源等宽', '黑体', 'Noto Serif CJK SC', '思源宋体', 'Noto Sans Mono CJK SC Regularsans-serif', sans-serif; text-anchor: start" x="599.355" y="37.20125" transform="rotate(-0 599.355 37.20125)">100%</text>
   </g>
  </g>
 </g>
 <defs>
  <clipPath id="p24150e6a96">
   <rect x="32.985" y="7.2" width="558" height="277.2"/>
  </clipPath>
 </defs>
</svg>
