<?xml version="1.0" encoding="utf-8" standalone="no"?>
<!DOCTYPE svg PUBLIC "-//W3C//DTD SVG 1.1//EN"
  "http://www.w3.org/Graphics/SVG/1.1/DTD/svg11.dtd">
<svg xmlns:xlink="http://www.w3.org/1999/xlink" width="637.58625pt" height="402.48pt" viewBox="0 0 637.58625 402.48" xmlns="http://www.w3.org/2000/svg" version="1.1">
 <metadata>
  <rdf:RDF xmlns:dc="http://purl.org/dc/elements/1.1/" xmlns:cc="http://creativecommons.org/ns#" xmlns:rdf="http://www.w3.org/1999/02/22-rdf-syntax-ns#">
   <cc:Work>
    <dc:type rdf:resource="http://purl.org/dc/dcmitype/StillImage"/>
    <dc:date>2024-01-30T18:34:40.820483</dc:date>
    <dc:format>image/svg+xml</dc:format>
    <dc:creator>
     <cc:Agent>
      <dc:title>Matplotlib v3.7.2, https://matplotlib.org/</dc:title>
     </cc:Agent>
    </dc:creator>
   </cc:Work>
  </rdf:RDF>
 </metadata>
 <defs>
  <style type="text/css">*{stroke-linejoin: round; stroke-linecap: butt}</style>
 </defs>
 <g id="figure_1">
  <g id="patch_1">
   <path d="M -0 402.48 
L 637.58625 402.48 
L 637.58625 -0 
L -0 -0 
L -0 402.48 
z
" style="fill: none"/>
  </g>
  <g id="axes_1">
   <g id="patch_2">
    <path d="M 32.985 395.28 
L 590.985 395.28 
L 590.985 7.2 
L 32.985 7.2 
L 32.985 395.28 
z
" style="fill: none"/>
   </g>
   <g id="patch_3">
    <path d="M 32.985 377.64 
L 590.985 377.64 
L 590.985 350.501538 
L 32.985 350.501538 
z
" clip-path="url(#pe147c919ff)" style="fill: #440154"/>
   </g>
   <g id="patch_4">
    <path d="M 590.985 377.64 
L 590.985 377.64 
L 590.985 350.501538 
L 590.985 350.501538 
z
" clip-path="url(#pe147c919ff)" style="fill: #ffffff"/>
   </g>
   <g id="patch_5">
    <path d="M 32.985 323.363077 
L 590.985 323.363077 
L 590.985 296.224615 
L 32.985 296.224615 
z
" clip-path="url(#pe147c919ff)" style="fill: #443983"/>
   </g>
   <g id="patch_6">
    <path d="M 590.985 323.363077 
L 590.985 323.363077 
L 590.985 296.224615 
L 590.985 296.224615 
z
" clip-path="url(#pe147c919ff)" style="fill: #ffffff"/>
   </g>
   <g id="patch_7">
    <path d="M 32.985 269.086154 
L 590.985 269.086154 
L 590.985 241.947692 
L 32.985 241.947692 
z
" clip-path="url(#pe147c919ff)" style="fill: #31688e"/>
   </g>
   <g id="patch_8">
    <path d="M 590.985 269.086154 
L 590.985 269.086154 
L 590.985 241.947692 
L 590.985 241.947692 
z
" clip-path="url(#pe147c919ff)" style="fill: #ffffff"/>
   </g>
   <g id="patch_9">
    <path d="M 32.985 214.809231 
L 590.985 214.809231 
L 590.985 187.670769 
L 32.985 187.670769 
z
" clip-path="url(#pe147c919ff)" style="fill: #21918c"/>
   </g>
   <g id="patch_10">
    <path d="M 590.985 214.809231 
L 590.985 214.809231 
L 590.985 187.670769 
L 590.985 187.670769 
z
" clip-path="url(#pe147c919ff)" style="fill: #ffffff"/>
   </g>
   <g id="patch_11">
    <path d="M 32.985 160.532308 
L 590.985 160.532308 
L 590.985 133.393846 
L 32.985 133.393846 
z
" clip-path="url(#pe147c919ff)" style="fill: #35b779"/>
   </g>
   <g id="patch_12">
    <path d="M 590.985 160.532308 
L 590.985 160.532308 
L 590.985 133.393846 
L 590.985 133.393846 
z
" clip-path="url(#pe147c919ff)" style="fill: #ffffff"/>
   </g>
   <g id="patch_13">
    <path d="M 32.985 106.255385 
L 552.8736 106.255385 
L 552.8736 79.116923 
L 32.985 79.116923 
z
" clip-path="url(#pe147c919ff)" style="fill: #90d743"/>
   </g>
   <g id="patch_14">
    <path d="M 552.8736 106.255385 
L 590.985 106.255385 
L 590.985 79.116923 
L 552.8736 79.116923 
z
" clip-path="url(#pe147c919ff)" style="fill: #ffffff"/>
   </g>
   <g id="patch_15">
    <path d="M 32.985 51.978462 
L 590.985 51.978462 
L 590.985 24.84 
L 32.985 24.84 
z
" clip-path="url(#pe147c919ff)" style="fill: #fde725"/>
   </g>
   <g id="patch_16">
    <path d="M 590.985 51.978462 
L 590.985 51.978462 
L 590.985 24.84 
L 590.985 24.84 
z
" clip-path="url(#pe147c919ff)" style="fill: #ffffff"/>
   </g>
   <g id="matplotlib.axis_1"/>
   <g id="matplotlib.axis_2">
    <g id="ytick_1">
     <g id="line2d_1">
      <defs>
       <path id="me33e778225" d="M 0 0 
L -3.5 0 
" style="stroke: #808080; stroke-width: 0.8"/>
      </defs>
      <g>
       <use xlink:href="#me33e778225" x="32.985" y="364.070769" style="fill: #808080; stroke: #808080; stroke-width: 0.8"/>
      </g>
     </g>
     <g id="text_1">
      <text style="fill: #808080; font: 16px 'Noto Sans CJK SC Regular', '思源等宽', '黑体', 'Noto Serif CJK SC', '思源宋体', 'Noto Sans Mono CJK SC Regularsans-serif', sans-serif; text-anchor: end" x="25.985" y="370.438269" transform="rotate(-0 25.985 370.438269)">de</text>
     </g>
    </g>
    <g id="ytick_2">
     <g id="line2d_2">
      <g>
       <use xlink:href="#me33e778225" x="32.985" y="309.793846" style="fill: #808080; stroke: #808080; stroke-width: 0.8"/>
      </g>
     </g>
     <g id="text_2">
      <text style="fill: #808080; font: 16px 'Noto Sans CJK SC Regular', '思源等宽', '黑体', 'Noto Serif CJK SC', '思源宋体', 'Noto Sans Mono CJK SC Regularsans-serif', sans-serif; text-anchor: end" x="25.985" y="316.161346" transform="rotate(-0 25.985 316.161346)">zh</text>
     </g>
    </g>
    <g id="ytick_3">
     <g id="line2d_3">
      <g>
       <use xlink:href="#me33e778225" x="32.985" y="255.516923" style="fill: #808080; stroke: #808080; stroke-width: 0.8"/>
      </g>
     </g>
     <g id="text_3">
      <text style="fill: #808080; font: 16px 'Noto Sans CJK SC Regular', '思源等宽', '黑体', 'Noto Serif CJK SC', '思源宋体', 'Noto Sans Mono CJK SC Regularsans-serif', sans-serif; text-anchor: end" x="25.985" y="261.884423" transform="rotate(-0 25.985 261.884423)">vi</text>
     </g>
    </g>
    <g id="ytick_4">
     <g id="line2d_4">
      <g>
       <use xlink:href="#me33e778225" x="32.985" y="201.24" style="fill: #808080; stroke: #808080; stroke-width: 0.8"/>
      </g>
     </g>
     <g id="text_4">
      <text style="fill: #808080; font: 16px 'Noto Sans CJK SC Regular', '思源等宽', '黑体', 'Noto Serif CJK SC', '思源宋体', 'Noto Sans Mono CJK SC Regularsans-serif', sans-serif; text-anchor: end" x="25.985" y="207.6075" transform="rotate(-0 25.985 207.6075)">ar</text>
     </g>
    </g>
    <g id="ytick_5">
     <g id="line2d_5">
      <g>
       <use xlink:href="#me33e778225" x="32.985" y="146.963077" style="fill: #808080; stroke: #808080; stroke-width: 0.8"/>
      </g>
     </g>
     <g id="text_5">
      <text style="fill: #808080; font: 16px 'Noto Sans CJK SC Regular', '思源等宽', '黑体', 'Noto Serif CJK SC', '思源宋体', 'Noto Sans Mono CJK SC Regularsans-serif', sans-serif; text-anchor: end" x="25.985" y="153.330577" transform="rotate(-0 25.985 153.330577)">fr</text>
     </g>
    </g>
    <g id="ytick_6">
     <g id="line2d_6">
      <g>
       <use xlink:href="#me33e778225" x="32.985" y="92.686154" style="fill: #808080; stroke: #808080; stroke-width: 0.8"/>
      </g>
     </g>
     <g id="text_6">
      <text style="fill: #808080; font: 16px 'Noto Sans CJK SC Regular', '思源等宽', '黑体', 'Noto Serif CJK SC', '思源宋体', 'Noto Sans Mono CJK SC Regularsans-serif', sans-serif; text-anchor: end" x="25.985" y="99.053654" transform="rotate(-0 25.985 99.053654)">fa</text>
     </g>
    </g>
    <g id="ytick_7">
     <g id="line2d_7">
      <g>
       <use xlink:href="#me33e778225" x="32.985" y="38.409231" style="fill: #808080; stroke: #808080; stroke-width: 0.8"/>
      </g>
     </g>
     <g id="text_7">
      <text style="fill: #808080; font: 16px 'Noto Sans CJK SC Regular', '思源等宽', '黑体', 'Noto Serif CJK SC', '思源宋体', 'Noto Sans Mono CJK SC Regularsans-serif', sans-serif; text-anchor: end" x="25.985" y="44.776731" transform="rotate(-0 25.985 44.776731)">en</text>
     </g>
    </g>
   </g>
   <g id="text_8">
    <g id="patch_17">
     <path d="M 599.355 373.820769 
L 630.38625 373.820769 
Q 633.98625 373.820769 633.98625 370.220769 
L 633.98625 357.920769 
Q 633.98625 354.320769 630.38625 354.320769 
L 599.355 354.320769 
Q 595.755 354.320769 595.755 357.920769 
L 595.755 370.220769 
Q 595.755 373.820769 599.355 373.820769 
z
" style="fill: #00cc00; stroke: #00cc00; stroke-linejoin: miter"/>
    </g>
    <text style="font: 12px 'Noto Sans CJK SC Regular', '思源等宽', '黑体', 'Noto Serif CJK SC', '思源宋体', 'Noto Sans Mono CJK SC Regularsans-serif', sans-serif; text-anchor: start" x="599.355" y="367.472019" transform="rotate(-0 599.355 367.472019)">100%</text>
   </g>
   <g id="text_9">
    <g id="patch_18">
     <path d="M 599.355 319.543846 
L 630.38625 319.543846 
Q 633.98625 319.543846 633.98625 315.943846 
L 633.98625 303.643846 
Q 633.98625 300.043846 630.38625 300.043846 
L 599.355 300.043846 
Q 595.755 300.043846 595.755 303.643846 
L 595.755 315.943846 
Q 595.755 319.543846 599.355 319.543846 
z
" style="fill: #00cc00; stroke: #00cc00; stroke-linejoin: miter"/>
    </g>
    <text style="font: 12px 'Noto Sans CJK SC Regular', '思源等宽', '黑体', 'Noto Serif CJK SC', '思源宋体', 'Noto Sans Mono CJK SC Regularsans-serif', sans-serif; text-anchor: start" x="599.355" y="313.195096" transform="rotate(-0 599.355 313.195096)">100%</text>
   </g>
   <g id="text_10">
    <g id="patch_19">
     <path d="M 599.355 265.266923 
L 630.38625 265.266923 
Q 633.98625 265.266923 633.98625 261.666923 
L 633.98625 249.366923 
Q 633.98625 245.766923 630.38625 245.766923 
L 599.355 245.766923 
Q 595.755 245.766923 595.755 249.366923 
L 595.755 261.666923 
Q 595.755 265.266923 599.355 265.266923 
z
" style="fill: #00cc00; stroke: #00cc00; stroke-linejoin: miter"/>
    </g>
    <text style="font: 12px 'Noto Sans CJK SC Regular', '思源等宽', '黑体', 'Noto Serif CJK SC', '思源宋体', 'Noto Sans Mono CJK SC Regularsans-serif', sans-serif; text-anchor: start" x="599.355" y="258.918173" transform="rotate(-0 599.355 258.918173)">100%</text>
   </g>
   <g id="text_11">
    <g id="patch_20">
     <path d="M 599.355 210.99 
L 630.38625 210.99 
Q 633.98625 210.99 633.98625 207.39 
L 633.98625 195.09 
Q 633.98625 191.49 630.38625 191.49 
L 599.355 191.49 
Q 595.755 191.49 595.755 195.09 
L 595.755 207.39 
Q 595.755 210.99 599.355 210.99 
z
" style="fill: #00cc00; stroke: #00cc00; stroke-linejoin: miter"/>
    </g>
    <text style="font: 12px 'Noto Sans CJK SC Regular', '思源等宽', '黑体', 'Noto Serif CJK SC', '思源宋体', 'Noto Sans Mono CJK SC Regularsans-serif', sans-serif; text-anchor: start" x="599.355" y="204.64125" transform="rotate(-0 599.355 204.64125)">100%</text>
   </g>
   <g id="text_12">
    <g id="patch_21">
     <path d="M 599.355 156.713077 
L 630.38625 156.713077 
Q 633.98625 156.713077 633.98625 153.113077 
L 633.98625 140.813077 
Q 633.98625 137.213077 630.38625 137.213077 
L 599.355 137.213077 
Q 595.755 137.213077 595.755 140.813077 
L 595.755 153.113077 
Q 595.755 156.713077 599.355 156.713077 
z
" style="fill: #00cc00; stroke: #00cc00; stroke-linejoin: miter"/>
    </g>
    <text style="font: 12px 'Noto Sans CJK SC Regular', '思源等宽', '黑体', 'Noto Serif CJK SC', '思源宋体', 'Noto Sans Mono CJK SC Regularsans-serif', sans-serif; text-anchor: start" x="599.355" y="150.364327" transform="rotate(-0 599.355 150.364327)">100%</text>
   </g>
   <g id="text_13">
    <g id="patch_22">
     <path d="M 561.2436 102.436154 
L 602.270475 102.436154 
Q 605.870475 102.436154 605.870475 98.836154 
L 605.870475 86.536154 
Q 605.870475 82.936154 602.270475 82.936154 
L 561.2436 82.936154 
Q 557.6436 82.936154 557.6436 86.536154 
L 557.6436 98.836154 
Q 557.6436 102.436154 561.2436 102.436154 
z
" style="fill: #00cc00; stroke: #00cc00; stroke-linejoin: miter"/>
    </g>
    <text style="font: 12px 'Noto Sans CJK SC Regular', '思源等宽', '黑体', 'Noto Serif CJK SC', '思源宋体', 'Noto Sans Mono CJK SC Regularsans-serif', sans-serif; text-anchor: start" x="561.2436" y="96.087404" transform="rotate(-0 561.2436 96.087404)">93.17%</text>
   </g>
   <g id="text_14">
    <g id="patch_23">
     <path d="M 599.355 48.159231 
L 630.38625 48.159231 
Q 633.98625 48.159231 633.98625 44.559231 
L 633.98625 32.259231 
Q 633.98625 28.659231 630.38625 28.659231 
L 599.355 28.659231 
Q 595.755 28.659231 595.755 32.259231 
L 595.755 44.559231 
Q 595.755 48.159231 599.355 48.159231 
z
" style="fill: #00cc00; stroke: #00cc00; stroke-linejoin: miter"/>
    </g>
    <text style="font: 12px 'Noto Sans CJK SC Regular', '思源等宽', '黑体', 'Noto Serif CJK SC', '思源宋体', 'Noto Sans Mono CJK SC Regularsans-serif', sans-serif; text-anchor: start" x="599.355" y="41.810481" transform="rotate(-0 599.355 41.810481)">100%</text>
   </g>
  </g>
 </g>
 <defs>
  <clipPath id="pe147c919ff">
   <rect x="32.985" y="7.2" width="558" height="388.08"/>
  </clipPath>
 </defs>
</svg>
