<?xml version="1.0" encoding="utf-8" standalone="no"?>
<!DOCTYPE svg PUBLIC "-//W3C//DTD SVG 1.1//EN"
  "http://www.w3.org/Graphics/SVG/1.1/DTD/svg11.dtd">
<svg xmlns:xlink="http://www.w3.org/1999/xlink" width="642.079375pt" height="402.48pt" viewBox="0 0 642.079375 402.48" xmlns="http://www.w3.org/2000/svg" version="1.1">
 <metadata>
  <rdf:RDF xmlns:dc="http://purl.org/dc/elements/1.1/" xmlns:cc="http://creativecommons.org/ns#" xmlns:rdf="http://www.w3.org/1999/02/22-rdf-syntax-ns#">
   <cc:Work>
    <dc:type rdf:resource="http://purl.org/dc/dcmitype/StillImage"/>
    <dc:date>2024-04-17T17:45:09.988901</dc:date>
    <dc:format>image/svg+xml</dc:format>
    <dc:creator>
     <cc:Agent>
      <dc:title>Matplotlib v3.8.4, https://matplotlib.org/</dc:title>
     </cc:Agent>
    </dc:creator>
   </cc:Work>
  </rdf:RDF>
 </metadata>
 <defs>
  <style type="text/css">*{stroke-linejoin: round; stroke-linecap: butt}</style>
 </defs>
 <g id="figure_1">
  <g id="patch_1">
   <path d="M 0 402.48 
L 642.079375 402.48 
L 642.079375 -0 
L 0 -0 
L 0 402.48 
z
" style="fill: none"/>
  </g>
  <g id="axes_1">
   <g id="patch_2">
    <path d="M 34.2025 395.28 
L 592.2025 395.28 
L 592.2025 7.2 
L 34.2025 7.2 
L 34.2025 395.28 
z
" style="fill: none"/>
   </g>
   <g id="patch_3">
    <path d="M 34.2025 377.64 
L 592.2025 377.64 
L 592.2025 350.501538 
L 34.2025 350.501538 
z
" clip-path="url(#p9a8272edfd)" style="fill: #440154"/>
   </g>
   <g id="patch_4">
    <path d="M 592.2025 377.64 
L 592.2025 377.64 
L 592.2025 350.501538 
L 592.2025 350.501538 
z
" clip-path="url(#p9a8272edfd)" style="fill: #ffffff"/>
   </g>
   <g id="patch_5">
    <path d="M 34.2025 323.363077 
L 592.2025 323.363077 
L 592.2025 296.224615 
L 34.2025 296.224615 
z
" clip-path="url(#p9a8272edfd)" style="fill: #443983"/>
   </g>
   <g id="patch_6">
    <path d="M 592.2025 323.363077 
L 592.2025 323.363077 
L 592.2025 296.224615 
L 592.2025 296.224615 
z
" clip-path="url(#p9a8272edfd)" style="fill: #ffffff"/>
   </g>
   <g id="patch_7">
    <path d="M 34.2025 269.086154 
L 592.2025 269.086154 
L 592.2025 241.947692 
L 34.2025 241.947692 
z
" clip-path="url(#p9a8272edfd)" style="fill: #31688e"/>
   </g>
   <g id="patch_8">
    <path d="M 592.2025 269.086154 
L 592.2025 269.086154 
L 592.2025 241.947692 
L 592.2025 241.947692 
z
" clip-path="url(#p9a8272edfd)" style="fill: #ffffff"/>
   </g>
   <g id="patch_9">
    <path d="M 34.2025 214.809231 
L 592.2025 214.809231 
L 592.2025 187.670769 
L 34.2025 187.670769 
z
" clip-path="url(#p9a8272edfd)" style="fill: #21918c"/>
   </g>
   <g id="patch_10">
    <path d="M 592.2025 214.809231 
L 592.2025 214.809231 
L 592.2025 187.670769 
L 592.2025 187.670769 
z
" clip-path="url(#p9a8272edfd)" style="fill: #ffffff"/>
   </g>
   <g id="patch_11">
    <path d="M 34.2025 160.532308 
L 592.2025 160.532308 
L 592.2025 133.393846 
L 34.2025 133.393846 
z
" clip-path="url(#p9a8272edfd)" style="fill: #35b779"/>
   </g>
   <g id="patch_12">
    <path d="M 592.2025 160.532308 
L 592.2025 160.532308 
L 592.2025 133.393846 
L 592.2025 133.393846 
z
" clip-path="url(#p9a8272edfd)" style="fill: #ffffff"/>
   </g>
   <g id="patch_13">
    <path d="M 34.2025 106.255385 
L 592.2025 106.255385 
L 592.2025 79.116923 
L 34.2025 79.116923 
z
" clip-path="url(#p9a8272edfd)" style="fill: #90d743"/>
   </g>
   <g id="patch_14">
    <path d="M 592.2025 106.255385 
L 592.2025 106.255385 
L 592.2025 79.116923 
L 592.2025 79.116923 
z
" clip-path="url(#p9a8272edfd)" style="fill: #ffffff"/>
   </g>
   <g id="patch_15">
    <path d="M 34.2025 51.978462 
L 592.2025 51.978462 
L 592.2025 24.84 
L 34.2025 24.84 
z
" clip-path="url(#p9a8272edfd)" style="fill: #fde725"/>
   </g>
   <g id="patch_16">
    <path d="M 592.2025 51.978462 
L 592.2025 51.978462 
L 592.2025 24.84 
L 592.2025 24.84 
z
" clip-path="url(#p9a8272edfd)" style="fill: #ffffff"/>
   </g>
   <g id="matplotlib.axis_1"/>
   <g id="matplotlib.axis_2">
    <g id="ytick_1">
     <g id="line2d_1">
      <defs>
       <path id="m8200ed03a0" d="M 0 0 
L -3.5 0 
" style="stroke: #808080; stroke-width: 0.8"/>
      </defs>
      <g>
       <use xlink:href="#m8200ed03a0" x="34.2025" y="364.070769" style="fill: #808080; stroke: #808080; stroke-width: 0.8"/>
      </g>
     </g>
     <g id="text_1">
      <text style="fill: #808080; font: 16px 'DejaVu Sans', 'Bitstream Vera Sans', 'Computer Modern Sans Serif', 'Lucida Grande', 'Verdana', 'Geneva', 'Lucid', 'Arial', 'Helvetica', 'Avant Garde', sans-serif; text-anchor: end" x="27.2025" y="370.149519" transform="rotate(-0 27.2025 370.149519)">ar</text>
     </g>
    </g>
    <g id="ytick_2">
     <g id="line2d_2">
      <g>
       <use xlink:href="#m8200ed03a0" x="34.2025" y="309.793846" style="fill: #808080; stroke: #808080; stroke-width: 0.8"/>
      </g>
     </g>
     <g id="text_2">
      <text style="fill: #808080; font: 16px 'DejaVu Sans', 'Bitstream Vera Sans', 'Computer Modern Sans Serif', 'Lucida Grande', 'Verdana', 'Geneva', 'Lucid', 'Arial', 'Helvetica', 'Avant Garde', sans-serif; text-anchor: end" x="27.2025" y="315.872596" transform="rotate(-0 27.2025 315.872596)">de</text>
     </g>
    </g>
    <g id="ytick_3">
     <g id="line2d_3">
      <g>
       <use xlink:href="#m8200ed03a0" x="34.2025" y="255.516923" style="fill: #808080; stroke: #808080; stroke-width: 0.8"/>
      </g>
     </g>
     <g id="text_3">
      <text style="fill: #808080; font: 16px 'DejaVu Sans', 'Bitstream Vera Sans', 'Computer Modern Sans Serif', 'Lucida Grande', 'Verdana', 'Geneva', 'Lucid', 'Arial', 'Helvetica', 'Avant Garde', sans-serif; text-anchor: end" x="27.2025" y="261.595673" transform="rotate(-0 27.2025 261.595673)">fa</text>
     </g>
    </g>
    <g id="ytick_4">
     <g id="line2d_4">
      <g>
       <use xlink:href="#m8200ed03a0" x="34.2025" y="201.24" style="fill: #808080; stroke: #808080; stroke-width: 0.8"/>
      </g>
     </g>
     <g id="text_4">
      <text style="fill: #808080; font: 16px 'DejaVu Sans', 'Bitstream Vera Sans', 'Computer Modern Sans Serif', 'Lucida Grande', 'Verdana', 'Geneva', 'Lucid', 'Arial', 'Helvetica', 'Avant Garde', sans-serif; text-anchor: end" x="27.2025" y="207.31875" transform="rotate(-0 27.2025 207.31875)">fr</text>
     </g>
    </g>
    <g id="ytick_5">
     <g id="line2d_5">
      <g>
       <use xlink:href="#m8200ed03a0" x="34.2025" y="146.963077" style="fill: #808080; stroke: #808080; stroke-width: 0.8"/>
      </g>
     </g>
     <g id="text_5">
      <text style="fill: #808080; font: 16px 'DejaVu Sans', 'Bitstream Vera Sans', 'Computer Modern Sans Serif', 'Lucida Grande', 'Verdana', 'Geneva', 'Lucid', 'Arial', 'Helvetica', 'Avant Garde', sans-serif; text-anchor: end" x="27.2025" y="153.041827" transform="rotate(-0 27.2025 153.041827)">vi</text>
     </g>
    </g>
    <g id="ytick_6">
     <g id="line2d_6">
      <g>
       <use xlink:href="#m8200ed03a0" x="34.2025" y="92.686154" style="fill: #808080; stroke: #808080; stroke-width: 0.8"/>
      </g>
     </g>
     <g id="text_6">
      <text style="fill: #808080; font: 16px 'DejaVu Sans', 'Bitstream Vera Sans', 'Computer Modern Sans Serif', 'Lucida Grande', 'Verdana', 'Geneva', 'Lucid', 'Arial', 'Helvetica', 'Avant Garde', sans-serif; text-anchor: end" x="27.2025" y="98.764904" transform="rotate(-0 27.2025 98.764904)">zh</text>
     </g>
    </g>
    <g id="ytick_7">
     <g id="line2d_7">
      <g>
       <use xlink:href="#m8200ed03a0" x="34.2025" y="38.409231" style="fill: #808080; stroke: #808080; stroke-width: 0.8"/>
      </g>
     </g>
     <g id="text_7">
      <text style="fill: #808080; font: 16px 'DejaVu Sans', 'Bitstream Vera Sans', 'Computer Modern Sans Serif', 'Lucida Grande', 'Verdana', 'Geneva', 'Lucid', 'Arial', 'Helvetica', 'Avant Garde', sans-serif; text-anchor: end" x="27.2025" y="44.487981" transform="rotate(-0 27.2025 44.487981)">en</text>
     </g>
    </g>
   </g>
   <g id="text_8">
    <g id="patch_17">
     <path d="M 600.5725 373.477644 
L 634.879375 373.477644 
Q 638.479375 373.477644 638.479375 369.877644 
L 638.479375 358.263894 
Q 638.479375 354.663894 634.879375 354.663894 
L 600.5725 354.663894 
Q 596.9725 354.663894 596.9725 358.263894 
L 596.9725 369.877644 
Q 596.9725 373.477644 600.5725 373.477644 
z
" style="fill: #00cc00; stroke: #00cc00; stroke-linejoin: miter"/>
    </g>
    <text style="font: 12px 'DejaVu Sans', 'Bitstream Vera Sans', 'Computer Modern Sans Serif', 'Lucida Grande', 'Verdana', 'Geneva', 'Lucid', 'Arial', 'Helvetica', 'Avant Garde', sans-serif; text-anchor: start" x="600.5725" y="367.382019" transform="rotate(-0 600.5725 367.382019)">100%</text>
   </g>
   <g id="text_9">
    <g id="patch_18">
     <path d="M 600.5725 319.200721 
L 634.879375 319.200721 
Q 638.479375 319.200721 638.479375 315.600721 
L 638.479375 303.986971 
Q 638.479375 300.386971 634.879375 300.386971 
L 600.5725 300.386971 
Q 596.9725 300.386971 596.9725 303.986971 
L 596.9725 315.600721 
Q 596.9725 319.200721 600.5725 319.200721 
z
" style="fill: #00cc00; stroke: #00cc00; stroke-linejoin: miter"/>
    </g>
    <text style="font: 12px 'DejaVu Sans', 'Bitstream Vera Sans', 'Computer Modern Sans Serif', 'Lucida Grande', 'Verdana', 'Geneva', 'Lucid', 'Arial', 'Helvetica', 'Avant Garde', sans-serif; text-anchor: start" x="600.5725" y="313.105096" transform="rotate(-0 600.5725 313.105096)">100%</text>
   </g>
   <g id="text_10">
    <g id="patch_19">
     <path d="M 600.5725 264.923798 
L 634.879375 264.923798 
Q 638.479375 264.923798 638.479375 261.323798 
L 638.479375 249.710048 
Q 638.479375 246.110048 634.879375 246.110048 
L 600.5725 246.110048 
Q 596.9725 246.110048 596.9725 249.710048 
L 596.9725 261.323798 
Q 596.9725 264.923798 600.5725 264.923798 
z
" style="fill: #00cc00; stroke: #00cc00; stroke-linejoin: miter"/>
    </g>
    <text style="font: 12px 'DejaVu Sans', 'Bitstream Vera Sans', 'Computer Modern Sans Serif', 'Lucida Grande', 'Verdana', 'Geneva', 'Lucid', 'Arial', 'Helvetica', 'Avant Garde', sans-serif; text-anchor: start" x="600.5725" y="258.828173" transform="rotate(-0 600.5725 258.828173)">100%</text>
   </g>
   <g id="text_11">
    <g id="patch_20">
     <path d="M 600.5725 210.646875 
L 634.879375 210.646875 
Q 638.479375 210.646875 638.479375 207.046875 
L 638.479375 195.433125 
Q 638.479375 191.833125 634.879375 191.833125 
L 600.5725 191.833125 
Q 596.9725 191.833125 596.9725 195.433125 
L 596.9725 207.046875 
Q 596.9725 210.646875 600.5725 210.646875 
z
" style="fill: #00cc00; stroke: #00cc00; stroke-linejoin: miter"/>
    </g>
    <text style="font: 12px 'DejaVu Sans', 'Bitstream Vera Sans', 'Computer Modern Sans Serif', 'Lucida Grande', 'Verdana', 'Geneva', 'Lucid', 'Arial', 'Helvetica', 'Avant Garde', sans-serif; text-anchor: start" x="600.5725" y="204.55125" transform="rotate(-0 600.5725 204.55125)">100%</text>
   </g>
   <g id="text_12">
    <g id="patch_21">
     <path d="M 600.5725 156.369952 
L 634.879375 156.369952 
Q 638.479375 156.369952 638.479375 152.769952 
L 638.479375 141.156202 
Q 638.479375 137.556202 634.879375 137.556202 
L 600.5725 137.556202 
Q 596.9725 137.556202 596.9725 141.156202 
L 596.9725 152.769952 
Q 596.9725 156.369952 600.5725 156.369952 
z
" style="fill: #00cc00; stroke: #00cc00; stroke-linejoin: miter"/>
    </g>
    <text style="font: 12px 'DejaVu Sans', 'Bitstream Vera Sans', 'Computer Modern Sans Serif', 'Lucida Grande', 'Verdana', 'Geneva', 'Lucid', 'Arial', 'Helvetica', 'Avant Garde', sans-serif; text-anchor: start" x="600.5725" y="150.274327" transform="rotate(-0 600.5725 150.274327)">100%</text>
   </g>
   <g id="text_13">
    <g id="patch_22">
     <path d="M 600.5725 102.093029 
L 634.879375 102.093029 
Q 638.479375 102.093029 638.479375 98.493029 
L 638.479375 86.879279 
Q 638.479375 83.279279 634.879375 83.279279 
L 600.5725 83.279279 
Q 596.9725 83.279279 596.9725 86.879279 
L 596.9725 98.493029 
Q 596.9725 102.093029 600.5725 102.093029 
z
" style="fill: #00cc00; stroke: #00cc00; stroke-linejoin: miter"/>
    </g>
    <text style="font: 12px 'DejaVu Sans', 'Bitstream Vera Sans', 'Computer Modern Sans Serif', 'Lucida Grande', 'Verdana', 'Geneva', 'Lucid', 'Arial', 'Helvetica', 'Avant Garde', sans-serif; text-anchor: start" x="600.5725" y="95.997404" transform="rotate(-0 600.5725 95.997404)">100%</text>
   </g>
   <g id="text_14">
    <g id="patch_23">
     <path d="M 600.5725 47.816106 
L 634.879375 47.816106 
Q 638.479375 47.816106 638.479375 44.216106 
L 638.479375 32.602356 
Q 638.479375 29.002356 634.879375 29.002356 
L 600.5725 29.002356 
Q 596.9725 29.002356 596.9725 32.602356 
L 596.9725 44.216106 
Q 596.9725 47.816106 600.5725 47.816106 
z
" style="fill: #00cc00; stroke: #00cc00; stroke-linejoin: miter"/>
    </g>
    <text style="font: 12px 'DejaVu Sans', 'Bitstream Vera Sans', 'Computer Modern Sans Serif', 'Lucida Grande', 'Verdana', 'Geneva', 'Lucid', 'Arial', 'Helvetica', 'Avant Garde', sans-serif; text-anchor: start" x="600.5725" y="41.720481" transform="rotate(-0 600.5725 41.720481)">100%</text>
   </g>
  </g>
 </g>
 <defs>
  <clipPath id="p9a8272edfd">
   <rect x="34.2025" y="7.2" width="558" height="388.08"/>
  </clipPath>
 </defs>
</svg>
