<?xml version="1.0" encoding="utf-8" standalone="no"?>
<!DOCTYPE svg PUBLIC "-//W3C//DTD SVG 1.1//EN"
  "http://www.w3.org/Graphics/SVG/1.1/DTD/svg11.dtd">
<svg xmlns:xlink="http://www.w3.org/1999/xlink" width="637.58625pt" height="457.92pt" viewBox="0 0 637.58625 457.92" xmlns="http://www.w3.org/2000/svg" version="1.1">
 <metadata>
  <rdf:RDF xmlns:dc="http://purl.org/dc/elements/1.1/" xmlns:cc="http://creativecommons.org/ns#" xmlns:rdf="http://www.w3.org/1999/02/22-rdf-syntax-ns#">
   <cc:Work>
    <dc:type rdf:resource="http://purl.org/dc/dcmitype/StillImage"/>
    <dc:date>2024-04-25T09:46:26.128729</dc:date>
    <dc:format>image/svg+xml</dc:format>
    <dc:creator>
     <cc:Agent>
      <dc:title>Matplotlib v3.8.4, https://matplotlib.org/</dc:title>
     </cc:Agent>
    </dc:creator>
   </cc:Work>
  </rdf:RDF>
 </metadata>
 <defs>
  <style type="text/css">*{stroke-linejoin: round; stroke-linecap: butt}</style>
 </defs>
 <g id="figure_1">
  <g id="patch_1">
   <path d="M -0 457.92 
L 637.58625 457.92 
L 637.58625 0 
L -0 0 
L -0 457.92 
z
" style="fill: none"/>
  </g>
  <g id="axes_1">
   <g id="patch_2">
    <path d="M 32.985 450.72 
L 590.985 450.72 
L 590.985 7.2 
L 32.985 7.2 
L 32.985 450.72 
z
" style="fill: none"/>
   </g>
   <g id="patch_3">
    <path d="M 32.985 430.56 
L 590.985 430.56 
L 590.985 403.68 
L 32.985 403.68 
z
" clip-path="url(#pe343550791)" style="fill: #440154"/>
   </g>
   <g id="patch_4">
    <path d="M 590.985 430.56 
L 590.985 430.56 
L 590.985 403.68 
L 590.985 403.68 
z
" clip-path="url(#pe343550791)" style="fill: #ffffff"/>
   </g>
   <g id="patch_5">
    <path d="M 32.985 376.8 
L 590.985 376.8 
L 590.985 349.92 
L 32.985 349.92 
z
" clip-path="url(#pe343550791)" style="fill: #46327e"/>
   </g>
   <g id="patch_6">
    <path d="M 590.985 376.8 
L 590.985 376.8 
L 590.985 349.92 
L 590.985 349.92 
z
" clip-path="url(#pe343550791)" style="fill: #ffffff"/>
   </g>
   <g id="patch_7">
    <path d="M 32.985 323.04 
L 590.985 323.04 
L 590.985 296.16 
L 32.985 296.16 
z
" clip-path="url(#pe343550791)" style="fill: #365c8d"/>
   </g>
   <g id="patch_8">
    <path d="M 590.985 323.04 
L 590.985 323.04 
L 590.985 296.16 
L 590.985 296.16 
z
" clip-path="url(#pe343550791)" style="fill: #ffffff"/>
   </g>
   <g id="patch_9">
    <path d="M 32.985 269.28 
L 590.985 269.28 
L 590.985 242.4 
L 32.985 242.4 
z
" clip-path="url(#pe343550791)" style="fill: #277f8e"/>
   </g>
   <g id="patch_10">
    <path d="M 590.985 269.28 
L 590.985 269.28 
L 590.985 242.4 
L 590.985 242.4 
z
" clip-path="url(#pe343550791)" style="fill: #ffffff"/>
   </g>
   <g id="patch_11">
    <path d="M 32.985 215.52 
L 590.985 215.52 
L 590.985 188.64 
L 32.985 188.64 
z
" clip-path="url(#pe343550791)" style="fill: #1fa187"/>
   </g>
   <g id="patch_12">
    <path d="M 590.985 215.52 
L 590.985 215.52 
L 590.985 188.64 
L 590.985 188.64 
z
" clip-path="url(#pe343550791)" style="fill: #ffffff"/>
   </g>
   <g id="patch_13">
    <path d="M 32.985 161.76 
L 590.985 161.76 
L 590.985 134.88 
L 32.985 134.88 
z
" clip-path="url(#pe343550791)" style="fill: #4ac16d"/>
   </g>
   <g id="patch_14">
    <path d="M 590.985 161.76 
L 590.985 161.76 
L 590.985 134.88 
L 590.985 134.88 
z
" clip-path="url(#pe343550791)" style="fill: #ffffff"/>
   </g>
   <g id="patch_15">
    <path d="M 32.985 108 
L 590.985 108 
L 590.985 81.12 
L 32.985 81.12 
z
" clip-path="url(#pe343550791)" style="fill: #a0da39"/>
   </g>
   <g id="patch_16">
    <path d="M 590.985 108 
L 590.985 108 
L 590.985 81.12 
L 590.985 81.12 
z
" clip-path="url(#pe343550791)" style="fill: #ffffff"/>
   </g>
   <g id="patch_17">
    <path d="M 32.985 54.24 
L 590.985 54.24 
L 590.985 27.36 
L 32.985 27.36 
z
" clip-path="url(#pe343550791)" style="fill: #fde725"/>
   </g>
   <g id="patch_18">
    <path d="M 590.985 54.24 
L 590.985 54.24 
L 590.985 27.36 
L 590.985 27.36 
z
" clip-path="url(#pe343550791)" style="fill: #ffffff"/>
   </g>
   <g id="matplotlib.axis_1"/>
   <g id="matplotlib.axis_2">
    <g id="ytick_1">
     <g id="line2d_1">
      <defs>
       <path id="mc6682607d3" d="M 0 0 
L -3.5 0 
" style="stroke: #808080; stroke-width: 0.8"/>
      </defs>
      <g>
       <use xlink:href="#mc6682607d3" x="32.985" y="417.12" style="fill: #808080; stroke: #808080; stroke-width: 0.8"/>
      </g>
     </g>
     <g id="text_1">
      <text style="fill: #808080; font: 16px 'Noto Sans CJK SC Regular', '思源等宽', '黑体', 'Noto Serif CJK SC', '思源宋体', 'Noto Sans Mono CJK SC Regularsans-serif', sans-serif; text-anchor: end" x="25.985" y="423.4875" transform="rotate(-0 25.985 423.4875)">de</text>
     </g>
    </g>
    <g id="ytick_2">
     <g id="line2d_2">
      <g>
       <use xlink:href="#mc6682607d3" x="32.985" y="363.36" style="fill: #808080; stroke: #808080; stroke-width: 0.8"/>
      </g>
     </g>
     <g id="text_2">
      <text style="fill: #808080; font: 16px 'Noto Sans CJK SC Regular', '思源等宽', '黑体', 'Noto Serif CJK SC', '思源宋体', 'Noto Sans Mono CJK SC Regularsans-serif', sans-serif; text-anchor: end" x="25.985" y="369.7275" transform="rotate(-0 25.985 369.7275)">zh</text>
     </g>
    </g>
    <g id="ytick_3">
     <g id="line2d_3">
      <g>
       <use xlink:href="#mc6682607d3" x="32.985" y="309.6" style="fill: #808080; stroke: #808080; stroke-width: 0.8"/>
      </g>
     </g>
     <g id="text_3">
      <text style="fill: #808080; font: 16px 'Noto Sans CJK SC Regular', '思源等宽', '黑体', 'Noto Serif CJK SC', '思源宋体', 'Noto Sans Mono CJK SC Regularsans-serif', sans-serif; text-anchor: end" x="25.985" y="315.9675" transform="rotate(-0 25.985 315.9675)">vi</text>
     </g>
    </g>
    <g id="ytick_4">
     <g id="line2d_4">
      <g>
       <use xlink:href="#mc6682607d3" x="32.985" y="255.84" style="fill: #808080; stroke: #808080; stroke-width: 0.8"/>
      </g>
     </g>
     <g id="text_4">
      <text style="fill: #808080; font: 16px 'Noto Sans CJK SC Regular', '思源等宽', '黑体', 'Noto Serif CJK SC', '思源宋体', 'Noto Sans Mono CJK SC Regularsans-serif', sans-serif; text-anchor: end" x="25.985" y="262.2075" transform="rotate(-0 25.985 262.2075)">ar</text>
     </g>
    </g>
    <g id="ytick_5">
     <g id="line2d_5">
      <g>
       <use xlink:href="#mc6682607d3" x="32.985" y="202.08" style="fill: #808080; stroke: #808080; stroke-width: 0.8"/>
      </g>
     </g>
     <g id="text_5">
      <text style="fill: #808080; font: 16px 'Noto Sans CJK SC Regular', '思源等宽', '黑体', 'Noto Serif CJK SC', '思源宋体', 'Noto Sans Mono CJK SC Regularsans-serif', sans-serif; text-anchor: end" x="25.985" y="208.4475" transform="rotate(-0 25.985 208.4475)">fr</text>
     </g>
    </g>
    <g id="ytick_6">
     <g id="line2d_6">
      <g>
       <use xlink:href="#mc6682607d3" x="32.985" y="148.32" style="fill: #808080; stroke: #808080; stroke-width: 0.8"/>
      </g>
     </g>
     <g id="text_6">
      <text style="fill: #808080; font: 16px 'Noto Sans CJK SC Regular', '思源等宽', '黑体', 'Noto Serif CJK SC', '思源宋体', 'Noto Sans Mono CJK SC Regularsans-serif', sans-serif; text-anchor: end" x="25.985" y="154.6875" transform="rotate(-0 25.985 154.6875)">ru</text>
     </g>
    </g>
    <g id="ytick_7">
     <g id="line2d_7">
      <g>
       <use xlink:href="#mc6682607d3" x="32.985" y="94.56" style="fill: #808080; stroke: #808080; stroke-width: 0.8"/>
      </g>
     </g>
     <g id="text_7">
      <text style="fill: #808080; font: 16px 'Noto Sans CJK SC Regular', '思源等宽', '黑体', 'Noto Serif CJK SC', '思源宋体', 'Noto Sans Mono CJK SC Regularsans-serif', sans-serif; text-anchor: end" x="25.985" y="100.9275" transform="rotate(-0 25.985 100.9275)">fa</text>
     </g>
    </g>
    <g id="ytick_8">
     <g id="line2d_8">
      <g>
       <use xlink:href="#mc6682607d3" x="32.985" y="40.8" style="fill: #808080; stroke: #808080; stroke-width: 0.8"/>
      </g>
     </g>
     <g id="text_8">
      <text style="fill: #808080; font: 16px 'Noto Sans CJK SC Regular', '思源等宽', '黑体', 'Noto Serif CJK SC', '思源宋体', 'Noto Sans Mono CJK SC Regularsans-serif', sans-serif; text-anchor: end" x="25.985" y="47.1675" transform="rotate(-0 25.985 47.1675)">en</text>
     </g>
    </g>
   </g>
   <g id="text_9">
    <g id="patch_19">
     <path d="M 599.355 426.87 
L 630.38625 426.87 
Q 633.98625 426.87 633.98625 423.27 
L 633.98625 410.97 
Q 633.98625 407.37 630.38625 407.37 
L 599.355 407.37 
Q 595.755 407.37 595.755 410.97 
L 595.755 423.27 
Q 595.755 426.87 599.355 426.87 
z
" style="fill: #00cc00; stroke: #00cc00; stroke-linejoin: miter"/>
    </g>
    <text style="font: 12px 'Noto Sans CJK SC Regular', '思源等宽', '黑体', 'Noto Serif CJK SC', '思源宋体', 'Noto Sans Mono CJK SC Regularsans-serif', sans-serif; text-anchor: start" x="599.355" y="420.52125" transform="rotate(-0 599.355 420.52125)">100%</text>
   </g>
   <g id="text_10">
    <g id="patch_20">
     <path d="M 599.355 373.11 
L 630.38625 373.11 
Q 633.98625 373.11 633.98625 369.51 
L 633.98625 357.21 
Q 633.98625 353.61 630.38625 353.61 
L 599.355 353.61 
Q 595.755 353.61 595.755 357.21 
L 595.755 369.51 
Q 595.755 373.11 599.355 373.11 
z
" style="fill: #00cc00; stroke: #00cc00; stroke-linejoin: miter"/>
    </g>
    <text style="font: 12px 'Noto Sans CJK SC Regular', '思源等宽', '黑体', 'Noto Serif CJK SC', '思源宋体', 'Noto Sans Mono CJK SC Regularsans-serif', sans-serif; text-anchor: start" x="599.355" y="366.76125" transform="rotate(-0 599.355 366.76125)">100%</text>
   </g>
   <g id="text_11">
    <g id="patch_21">
     <path d="M 599.355 319.35 
L 630.38625 319.35 
Q 633.98625 319.35 633.98625 315.75 
L 633.98625 303.45 
Q 633.98625 299.85 630.38625 299.85 
L 599.355 299.85 
Q 595.755 299.85 595.755 303.45 
L 595.755 315.75 
Q 595.755 319.35 599.355 319.35 
z
" style="fill: #00cc00; stroke: #00cc00; stroke-linejoin: miter"/>
    </g>
    <text style="font: 12px 'Noto Sans CJK SC Regular', '思源等宽', '黑体', 'Noto Serif CJK SC', '思源宋体', 'Noto Sans Mono CJK SC Regularsans-serif', sans-serif; text-anchor: start" x="599.355" y="313.00125" transform="rotate(-0 599.355 313.00125)">100%</text>
   </g>
   <g id="text_12">
    <g id="patch_22">
     <path d="M 599.355 265.59 
L 630.38625 265.59 
Q 633.98625 265.59 633.98625 261.99 
L 633.98625 249.69 
Q 633.98625 246.09 630.38625 246.09 
L 599.355 246.09 
Q 595.755 246.09 595.755 249.69 
L 595.755 261.99 
Q 595.755 265.59 599.355 265.59 
z
" style="fill: #00cc00; stroke: #00cc00; stroke-linejoin: miter"/>
    </g>
    <text style="font: 12px 'Noto Sans CJK SC Regular', '思源等宽', '黑体', 'Noto Serif CJK SC', '思源宋体', 'Noto Sans Mono CJK SC Regularsans-serif', sans-serif; text-anchor: start" x="599.355" y="259.24125" transform="rotate(-0 599.355 259.24125)">100%</text>
   </g>
   <g id="text_13">
    <g id="patch_23">
     <path d="M 599.355 211.83 
L 630.38625 211.83 
Q 633.98625 211.83 633.98625 208.23 
L 633.98625 195.93 
Q 633.98625 192.33 630.38625 192.33 
L 599.355 192.33 
Q 595.755 192.33 595.755 195.93 
L 595.755 208.23 
Q 595.755 211.83 599.355 211.83 
z
" style="fill: #00cc00; stroke: #00cc00; stroke-linejoin: miter"/>
    </g>
    <text style="font: 12px 'Noto Sans CJK SC Regular', '思源等宽', '黑体', 'Noto Serif CJK SC', '思源宋体', 'Noto Sans Mono CJK SC Regularsans-serif', sans-serif; text-anchor: start" x="599.355" y="205.48125" transform="rotate(-0 599.355 205.48125)">100%</text>
   </g>
   <g id="text_14">
    <g id="patch_24">
     <path d="M 599.355 158.07 
L 630.38625 158.07 
Q 633.98625 158.07 633.98625 154.47 
L 633.98625 142.17 
Q 633.98625 138.57 630.38625 138.57 
L 599.355 138.57 
Q 595.755 138.57 595.755 142.17 
L 595.755 154.47 
Q 595.755 158.07 599.355 158.07 
z
" style="fill: #00cc00; stroke: #00cc00; stroke-linejoin: miter"/>
    </g>
    <text style="font: 12px 'Noto Sans CJK SC Regular', '思源等宽', '黑体', 'Noto Serif CJK SC', '思源宋体', 'Noto Sans Mono CJK SC Regularsans-serif', sans-serif; text-anchor: start" x="599.355" y="151.72125" transform="rotate(-0 599.355 151.72125)">100%</text>
   </g>
   <g id="text_15">
    <g id="patch_25">
     <path d="M 599.355 104.31 
L 630.38625 104.31 
Q 633.98625 104.31 633.98625 100.71 
L 633.98625 88.41 
Q 633.98625 84.81 630.38625 84.81 
L 599.355 84.81 
Q 595.755 84.81 595.755 88.41 
L 595.755 100.71 
Q 595.755 104.31 599.355 104.31 
z
" style="fill: #00cc00; stroke: #00cc00; stroke-linejoin: miter"/>
    </g>
    <text style="font: 12px 'Noto Sans CJK SC Regular', '思源等宽', '黑体', 'Noto Serif CJK SC', '思源宋体', 'Noto Sans Mono CJK SC Regularsans-serif', sans-serif; text-anchor: start" x="599.355" y="97.96125" transform="rotate(-0 599.355 97.96125)">100%</text>
   </g>
   <g id="text_16">
    <g id="patch_26">
     <path d="M 599.355 50.55 
L 630.38625 50.55 
Q 633.98625 50.55 633.98625 46.95 
L 633.98625 34.65 
Q 633.98625 31.05 630.38625 31.05 
L 599.355 31.05 
Q 595.755 31.05 595.755 34.65 
L 595.755 46.95 
Q 595.755 50.55 599.355 50.55 
z
" style="fill: #00cc00; stroke: #00cc00; stroke-linejoin: miter"/>
    </g>
    <text style="font: 12px 'Noto Sans CJK SC Regular', '思源等宽', '黑体', 'Noto Serif CJK SC', '思源宋体', 'Noto Sans Mono CJK SC Regularsans-serif', sans-serif; text-anchor: start" x="599.355" y="44.20125" transform="rotate(-0 599.355 44.20125)">100%</text>
   </g>
  </g>
 </g>
 <defs>
  <clipPath id="pe343550791">
   <rect x="32.985" y="7.2" width="558" height="443.52"/>
  </clipPath>
 </defs>
</svg>
