<?xml version="1.0" encoding="utf-8" standalone="no"?>
<!DOCTYPE svg PUBLIC "-//W3C//DTD SVG 1.1//EN"
  "http://www.w3.org/Graphics/SVG/1.1/DTD/svg11.dtd">
<svg xmlns:xlink="http://www.w3.org/1999/xlink" width="637.58625pt" height="236.16pt" viewBox="0 0 637.58625 236.16" xmlns="http://www.w3.org/2000/svg" version="1.1">
 <metadata>
  <rdf:RDF xmlns:dc="http://purl.org/dc/elements/1.1/" xmlns:cc="http://creativecommons.org/ns#" xmlns:rdf="http://www.w3.org/1999/02/22-rdf-syntax-ns#">
   <cc:Work>
    <dc:type rdf:resource="http://purl.org/dc/dcmitype/StillImage"/>
    <dc:date>2023-11-28T07:47:48.735050</dc:date>
    <dc:format>image/svg+xml</dc:format>
    <dc:creator>
     <cc:Agent>
      <dc:title>Matplotlib v3.7.2, https://matplotlib.org/</dc:title>
     </cc:Agent>
    </dc:creator>
   </cc:Work>
  </rdf:RDF>
 </metadata>
 <defs>
  <style type="text/css">*{stroke-linejoin: round; stroke-linecap: butt}</style>
 </defs>
 <g id="figure_1">
  <g id="patch_1">
   <path d="M -0 236.16 
L 637.58625 236.16 
L 637.58625 0 
L -0 0 
L -0 236.16 
z
" style="fill: none"/>
  </g>
  <g id="axes_1">
   <g id="patch_2">
    <path d="M 32.985 228.96 
L 590.985 228.96 
L 590.985 7.2 
L 32.985 7.2 
L 32.985 228.96 
z
" style="fill: none"/>
   </g>
   <g id="patch_3">
    <path d="M 32.985 218.88 
L 590.985 218.88 
L 590.985 190.08 
L 32.985 190.08 
z
" clip-path="url(#p326629923f)" style="fill: #440154"/>
   </g>
   <g id="patch_4">
    <path d="M 590.985 218.88 
L 590.985 218.88 
L 590.985 190.08 
L 590.985 190.08 
z
" clip-path="url(#p326629923f)" style="fill: #ffffff"/>
   </g>
   <g id="patch_5">
    <path d="M 32.985 161.28 
L 590.985 161.28 
L 590.985 132.48 
L 32.985 132.48 
z
" clip-path="url(#p326629923f)" style="fill: #31688e"/>
   </g>
   <g id="patch_6">
    <path d="M 590.985 161.28 
L 590.985 161.28 
L 590.985 132.48 
L 590.985 132.48 
z
" clip-path="url(#p326629923f)" style="fill: #ffffff"/>
   </g>
   <g id="patch_7">
    <path d="M 32.985 103.68 
L 555.7194 103.68 
L 555.7194 74.88 
L 32.985 74.88 
z
" clip-path="url(#p326629923f)" style="fill: #35b779"/>
   </g>
   <g id="patch_8">
    <path d="M 555.7194 103.68 
L 590.985 103.68 
L 590.985 74.88 
L 555.7194 74.88 
z
" clip-path="url(#p326629923f)" style="fill: #ffffff"/>
   </g>
   <g id="patch_9">
    <path d="M 32.985 46.08 
L 590.985 46.08 
L 590.985 17.28 
L 32.985 17.28 
z
" clip-path="url(#p326629923f)" style="fill: #fde725"/>
   </g>
   <g id="patch_10">
    <path d="M 590.985 46.08 
L 590.985 46.08 
L 590.985 17.28 
L 590.985 17.28 
z
" clip-path="url(#p326629923f)" style="fill: #ffffff"/>
   </g>
   <g id="matplotlib.axis_1"/>
   <g id="matplotlib.axis_2">
    <g id="ytick_1">
     <g id="line2d_1">
      <defs>
       <path id="m6ba1d8ffdd" d="M 0 0 
L -3.5 0 
" style="stroke: #808080; stroke-width: 0.8"/>
      </defs>
      <g>
       <use xlink:href="#m6ba1d8ffdd" x="32.985" y="204.48" style="fill: #808080; stroke: #808080; stroke-width: 0.8"/>
      </g>
     </g>
     <g id="text_1">
      <text style="fill: #808080; font: 16px 'Noto Sans CJK SC Regular', '思源等宽', '黑体', 'Noto Serif CJK SC', '思源宋体', 'Noto Sans Mono CJK SC Regularsans-serif', sans-serif; text-anchor: end" x="25.985" y="210.8475" transform="rotate(-0 25.985 210.8475)">de</text>
     </g>
    </g>
    <g id="ytick_2">
     <g id="line2d_2">
      <g>
       <use xlink:href="#m6ba1d8ffdd" x="32.985" y="146.88" style="fill: #808080; stroke: #808080; stroke-width: 0.8"/>
      </g>
     </g>
     <g id="text_2">
      <text style="fill: #808080; font: 16px 'Noto Sans CJK SC Regular', '思源等宽', '黑体', 'Noto Serif CJK SC', '思源宋体', 'Noto Sans Mono CJK SC Regularsans-serif', sans-serif; text-anchor: end" x="25.985" y="153.2475" transform="rotate(-0 25.985 153.2475)">zh</text>
     </g>
    </g>
    <g id="ytick_3">
     <g id="line2d_3">
      <g>
       <use xlink:href="#m6ba1d8ffdd" x="32.985" y="89.28" style="fill: #808080; stroke: #808080; stroke-width: 0.8"/>
      </g>
     </g>
     <g id="text_3">
      <text style="fill: #808080; font: 16px 'Noto Sans CJK SC Regular', '思源等宽', '黑体', 'Noto Serif CJK SC', '思源宋体', 'Noto Sans Mono CJK SC Regularsans-serif', sans-serif; text-anchor: end" x="25.985" y="95.6475" transform="rotate(-0 25.985 95.6475)">fa</text>
     </g>
    </g>
    <g id="ytick_4">
     <g id="line2d_4">
      <g>
       <use xlink:href="#m6ba1d8ffdd" x="32.985" y="31.68" style="fill: #808080; stroke: #808080; stroke-width: 0.8"/>
      </g>
     </g>
     <g id="text_4">
      <text style="fill: #808080; font: 16px 'Noto Sans CJK SC Regular', '思源等宽', '黑体', 'Noto Serif CJK SC', '思源宋体', 'Noto Sans Mono CJK SC Regularsans-serif', sans-serif; text-anchor: end" x="25.985" y="38.0475" transform="rotate(-0 25.985 38.0475)">en</text>
     </g>
    </g>
   </g>
   <g id="text_5">
    <g id="patch_11">
     <path d="M 599.355 214.23 
L 630.38625 214.23 
Q 633.98625 214.23 633.98625 210.63 
L 633.98625 198.33 
Q 633.98625 194.73 630.38625 194.73 
L 599.355 194.73 
Q 595.755 194.73 595.755 198.33 
L 595.755 210.63 
Q 595.755 214.23 599.355 214.23 
z
" style="fill: #00cc00; stroke: #00cc00; stroke-linejoin: miter"/>
    </g>
    <text style="font: 12px 'Noto Sans CJK SC Regular', '思源等宽', '黑体', 'Noto Serif CJK SC', '思源宋体', 'Noto Sans Mono CJK SC Regularsans-serif', sans-serif; text-anchor: start" x="599.355" y="207.88125" transform="rotate(-0 599.355 207.88125)">100%</text>
   </g>
   <g id="text_6">
    <g id="patch_12">
     <path d="M 599.355 156.63 
L 630.38625 156.63 
Q 633.98625 156.63 633.98625 153.03 
L 633.98625 140.73 
Q 633.98625 137.13 630.38625 137.13 
L 599.355 137.13 
Q 595.755 137.13 595.755 140.73 
L 595.755 153.03 
Q 595.755 156.63 599.355 156.63 
z
" style="fill: #00cc00; stroke: #00cc00; stroke-linejoin: miter"/>
    </g>
    <text style="font: 12px 'Noto Sans CJK SC Regular', '思源等宽', '黑体', 'Noto Serif CJK SC', '思源宋体', 'Noto Sans Mono CJK SC Regularsans-serif', sans-serif; text-anchor: start" x="599.355" y="150.28125" transform="rotate(-0 599.355 150.28125)">100%</text>
   </g>
   <g id="text_7">
    <g id="patch_13">
     <path d="M 564.0894 99.03 
L 605.116275 99.03 
Q 608.716275 99.03 608.716275 95.43 
L 608.716275 83.13 
Q 608.716275 79.53 605.116275 79.53 
L 564.0894 79.53 
Q 560.4894 79.53 560.4894 83.13 
L 560.4894 95.43 
Q 560.4894 99.03 564.0894 99.03 
z
" style="fill: #00cc00; stroke: #00cc00; stroke-linejoin: miter"/>
    </g>
    <text style="font: 12px 'Noto Sans CJK SC Regular', '思源等宽', '黑体', 'Noto Serif CJK SC', '思源宋体', 'Noto Sans Mono CJK SC Regularsans-serif', sans-serif; text-anchor: start" x="564.0894" y="92.68125" transform="rotate(-0 564.0894 92.68125)">93.68%</text>
   </g>
   <g id="text_8">
    <g id="patch_14">
     <path d="M 599.355 41.43 
L 630.38625 41.43 
Q 633.98625 41.43 633.98625 37.83 
L 633.98625 25.53 
Q 633.98625 21.93 630.38625 21.93 
L 599.355 21.93 
Q 595.755 21.93 595.755 25.53 
L 595.755 37.83 
Q 595.755 41.43 599.355 41.43 
z
" style="fill: #00cc00; stroke: #00cc00; stroke-linejoin: miter"/>
    </g>
    <text style="font: 12px 'Noto Sans CJK SC Regular', '思源等宽', '黑体', 'Noto Serif CJK SC', '思源宋体', 'Noto Sans Mono CJK SC Regularsans-serif', sans-serif; text-anchor: start" x="599.355" y="35.08125" transform="rotate(-0 599.355 35.08125)">100%</text>
   </g>
  </g>
 </g>
 <defs>
  <clipPath id="p326629923f">
   <rect x="32.985" y="7.2" width="558" height="221.76"/>
  </clipPath>
 </defs>
</svg>
