<svg width="575" xmlns="http://www.w3.org/2000/svg" height="200" id="screenshot-424258af-1982-8022-8007-3c0746b55fa9" viewBox="0 0 575 200" xmlns:xlink="http://www.w3.org/1999/xlink" fill="none" version="1.1"><style>@font-face {
    font-family: 'sourcesanspro';
    font-style: normal;
    font-weight: 700;
    font-display: block;
    src: url(http://penpot-frontend:8080/fonts/sourcesanspro-bold.woff) format('woff');
  }</style><g id="shape-424258af-1982-8022-8007-3c0746b55fa9" rx="0" ry="0"><g id="shape-424258af-1982-8022-8007-3c0746b55faa" rx="0" ry="0" style="display: none;"><g id="shape-424258af-1982-8022-8007-3c0746b55faf"><defs><pattern patternUnits="userSpaceOnUse" x="0" y="0" width="575" height="200" id="fill-0-render-3"><g><image id="fill-image-render-3-0" href="http://penpot-frontend:8080/assets/by-file-media-id/e1c66c8b-4d5c-8083-8006-3a48ce75bcd9" preserveAspectRatio="xMidYMid slice" width="575" height="200" opacity="1"/></g></pattern></defs><g class="fills" id="fills-424258af-1982-8022-8007-3c0746b55faf"><rect rx="0" ry="0" x="0" y="0" transform="matrix(1.000000, 0.000000, 0.000000, 1.000000, 0.000000, 0.000000)" width="575" height="200" fill="url(#fill-0-render-3)"/></g></g><g id="shape-424258af-1982-8022-8007-3c0746b55fb0" style="display: none;"><g class="fills" id="fills-424258af-1982-8022-8007-3c0746b55fb0"><rect rx="0" ry="0" x="68.53715170278645" y="53.60000000000002" transform="matrix(1.000000, 0.000000, 0.000000, 1.000000, 0.000000, 0.000000)" width="437.0356037151703" height="95.20000000000005" style="fill: rgb(0, 0, 0); fill-opacity: 1;"/></g></g></g><g id="shape-424258af-1982-8022-8007-3c0746b55fab" style="display: none;"><defs><pattern patternUnits="userSpaceOnUse" x="0.32041060556093726" y="0" width="516.8000000000002" height="200" id="fill-0-render-5"><g><image id="fill-image-render-5-0" href="http://penpot-frontend:8080/assets/by-file-media-id/e1c66c8b-4d5c-8083-8006-3a48ce75bcd9" preserveAspectRatio="xMidYMid slice" width="516.8000000000002" height="200" opacity="1"/></g></pattern></defs><g class="fills" id="fills-424258af-1982-8022-8007-3c0746b55fab"><rect rx="0" ry="0" x="0.32041060556093726" y="0" transform="matrix(1.000000, 0.000000, 0.000000, 1.000000, 0.000000, 0.000000)" width="516.8000000000002" height="200" fill="url(#fill-0-render-5)"/></g></g><g id="shape-424258af-1982-8022-8007-3c0746b55fac" style="display: none;"><defs><clipPath id="frame-clip-424258af-1982-8022-8007-3c0746b55fac-render-6" class="frame-clip frame-clip-def"><rect rx="0" ry="0" x="169.92041060556107" y="53.59999999999991" width="136.8" height="26.399999999999977" transform="matrix(1.000000, 0.000000, 0.000000, 1.000000, 0.000000, 0.000000)"/></clipPath></defs><g class="frame-container-wrapper"><g class="frame-container-blur"><g class="frame-container-shadows"><g clip-path="url(#frame-clip-424258af-1982-8022-8007-3c0746b55fac-render-6)" fill="none"><g class="fills" id="fills-424258af-1982-8022-8007-3c0746b55fac"><rect width="136.8" height="26.399999999999977" class="frame-background" x="169.92041060556107" transform="matrix(1.000000, 0.000000, 0.000000, 1.000000, 0.000000, 0.000000)" style="fill: rgb(255, 255, 255); fill-opacity: 1;" ry="0" rx="0" y="53.59999999999991"/></g><g class="frame-children"/></g></g></g></g></g><g id="shape-424258af-1982-8022-8007-3c0746b55fad" style="display: none;"><defs><clipPath id="frame-clip-424258af-1982-8022-8007-3c0746b55fad-render-7" class="frame-clip frame-clip-def"><rect rx="0" ry="0" x="169.92041060556102" y="87.20000000000005" width="284.80000000000007" height="61.60000000000002" transform="matrix(1.000000, 0.000000, 0.000000, 1.000000, 0.000000, 0.000000)"/></clipPath></defs><g class="frame-container-wrapper"><g class="frame-container-blur"><g class="frame-container-shadows"><g clip-path="url(#frame-clip-424258af-1982-8022-8007-3c0746b55fad-render-7)" fill="none"><g class="fills" id="fills-424258af-1982-8022-8007-3c0746b55fad"><rect rx="0" ry="0" x="169.92041060556102" y="87.20000000000005" width="284.80000000000007" height="61.60000000000002" transform="matrix(1.000000, 0.000000, 0.000000, 1.000000, 0.000000, 0.000000)" class="frame-background"/></g><g class="frame-children"><g id="shape-424258af-1982-8022-8007-3c0746b55fb1"><g class="fills" id="fills-424258af-1982-8022-8007-3c0746b55fb1"><rect rx="0" ry="0" x="59.92041060556096" y="67.20000000000005" transform="matrix(1.000000, 0.000000, 0.000000, 1.000000, 0.000000, 0.000000)" width="491" height="119" style="fill: rgb(0, 0, 0); fill-opacity: 1;"/></g></g><g id="shape-424258af-1982-8022-8007-3c0746b55fb2"><g transform="matrix(1.000000, 0.000000, 0.000000, 1.000000, 0.000000, 0.000000)" class="text-container" x="169.92041060556096" y="78.19999999999993" width="307" height="96" rx="0" ry="0"><defs><pattern patternUnits="objectBoundingBox" width="306.4296875" height="110" id="fill-0-render-9-0"><g><rect width="306.4296875" height="110" style="fill: rgb(232, 233, 234); fill-opacity: 1;"/></g></pattern></defs><g class="fills" id="fills-424258af-1982-8022-8007-3c0746b55fb2"><text x="169.92041060556096" y="181.19999999999993" dominant-baseline="ideographic" textLength="306.4296875" lengthAdjust="spacingAndGlyphs" style="text-transform: none; font-family: sourcesanspro; letter-spacing: 2px; font-style: normal; font-weight: 700; white-space: pre; font-size: 80px; text-decoration: none; direction: ltr; fill: rgb(232, 233, 234); fill-opacity: 1;">AltStore</text></g></g></g></g></g></g></g></g></g><g id="shape-424258af-1982-8022-8007-3c0746b55fae" style="display: none;"><defs><clipPath id="frame-clip-424258af-1982-8022-8007-3c0746b55fae-render-10" class="frame-clip frame-clip-def"><rect rx="15" ry="15" x="60.32041060556094" y="53.59999999999991" width="95.20000000000005" height="95.19999999999993" transform="matrix(1.000000, 0.000000, 0.000000, 1.000000, 0.000000, 0.000000)"/></clipPath></defs><g class="frame-container-wrapper"><g class="frame-container-blur"><g class="frame-container-shadows"><g clip-path="url(#frame-clip-424258af-1982-8022-8007-3c0746b55fae-render-10)" fill="none"><g class="fills" id="fills-424258af-1982-8022-8007-3c0746b55fae"><rect width="95.20000000000005" height="95.19999999999993" class="frame-background" x="60.32041060556094" transform="matrix(1.000000, 0.000000, 0.000000, 1.000000, 0.000000, 0.000000)" style="fill: rgb(255, 255, 255); fill-opacity: 0;" ry="15" rx="15" y="53.59999999999991"/></g><g class="frame-children"><g id="shape-424258af-1982-8022-8007-3c0746b55fb3"><defs><pattern patternUnits="userSpaceOnUse" x="60.320410605560824" y="53.600000000000136" width="119" height="119" id="fill-0-render-11"><g><image id="fill-image-render-11-0" href="http://penpot-frontend:8080/assets/by-file-media-id/e1c66c8b-4d5c-8083-8006-3a4b15729a9e" preserveAspectRatio="xMidYMid slice" width="119" height="119" opacity="1"/></g></pattern></defs><g class="fills" id="fills-424258af-1982-8022-8007-3c0746b55fb3"><rect rx="0" ry="0" x="60.320410605560824" y="53.600000000000136" transform="matrix(1.000000, 0.000000, 0.000000, 1.000000, 0.000000, 0.000000)" width="119" height="119" fill="url(#fill-0-render-11)"/></g></g></g></g></g></g></g></g><g id="shape-424258af-1982-8022-8007-3c0760ffc2a4" width="161" height="44" rx="0" ry="0" style="fill: rgb(0, 0, 0);"><g id="shape-424258af-1982-8022-8007-3c07610066f0" style="display: none;"><g class="fills" id="fills-424258af-1982-8022-8007-3c07610066f0"><rect width="530" height="145" x="23" transform="matrix(1.000000, 0.000000, 0.000000, 1.000000, 0.000000, 0.000000)" style="fill: none;" ry="0" fill="none" rx="0" y="28"/></g></g><g id="shape-424258af-1982-8022-8007-3c0761009829"><g class="fills" id="fills-424258af-1982-8022-8007-3c0761009829"><rect rx="4" ry="4" x="26.291925465838176" y="31.29545454545473" transform="matrix(1.000000, 0.000000, 0.000000, 1.000000, 0.000000, 0.000000)" width="523.4161490683232" height="138.409090909091" style="fill: rgb(32, 32, 32);"/></g></g><g id="shape-424258af-1982-8022-8007-3c076100982a"><g class="fills" id="fills-424258af-1982-8022-8007-3c076100982a"><rect width="526.7080745341614" height="141.70454545454527" x="24.6459627329192" transform="matrix(1.000000, 0.000000, 0.000000, 1.000000, 0.000000, 0.000000)" style="fill: none;" ry="4.5" fill="none" rx="4.5" y="29.64772727272748"/></g><g fill="none" id="strokes-2c3ff4ed-c96e-80a9-8007-3c08f77bfc5b-424258af-1982-8022-8007-3c076100982a" class="strokes"><g class="stroke-shape"><rect rx="4.5" ry="4.5" x="24.6459627329192" y="29.64772727272748" transform="matrix(1.000000, 0.000000, 0.000000, 1.000000, 0.000000, 0.000000)" width="526.7080745341614" height="141.70454545454527" style="fill: none; stroke-width: 1; stroke: rgb(0, 0, 0); stroke-opacity: 0.1;"/></g></g></g><g id="shape-424258af-1982-8022-8007-3c076100982b" clip-path="url(#render-16-a)" rx="0" ry="0" style="fill: rgb(0, 0, 0);"><defs><clipPath id="render-16-a" class="svg-def" transform="matrix(3.291925, 0.000000, 0.000000, 3.295455, 23.000000, 28.000000)"><rect width="22" height="22" fill="#fff" transform="translate(10 11)"/></clipPath></defs><g id="shape-424258af-1982-8022-8007-3c076100982c" clip-path="url(#render-17-b)" rx="0" ry="0" style="fill: rgb(0, 0, 0);"><defs><clipPath id="render-17-b" class="svg-def" transform="matrix(3.291925, 0.000000, 0.000000, 3.295455, 23.000000, 28.000000)"><rect width="22" height="22" fill="#fff" transform="translate(10 11)"/></clipPath></defs><g id="shape-424258af-1982-8022-8007-3c076100f136"><defs><linearGradient x1="15.188" y1="11.008" x2="19.66" y2="31.549" id="render-18-c" gradientUnits="userSpaceOnUse" gradientTransform="matrix(3.291925, 0.000000, 0.000000, 3.295455, 23.000000, 28.000000)"><stop offset=".271" stop-color="#fff"/><stop offset="1" stop-color="#DFDFDF"/></linearGradient></defs><g class="fills" id="fills-424258af-1982-8022-8007-3c076100f136"><path d="M57.05108642578125,76.33343505859375C57.05108642578125,74.6649169921875,58.402099609375,73.3125,60.068359375,73.3125L124.1925048828125,73.3125C125.85882568359375,73.3125,127.2098388671875,74.6649169921875,127.2098388671875,76.33343505859375L127.2098388671875,122.023681640625C127.2098388671875,128.9056396484375,121.6368408203125,134.484375,114.76239013671875,134.484375L69.49847412109375,134.484375C62.62408447265625,134.484375,57.05108642578125,128.9056396484375,57.05108642578125,122.023681640625L57.05108642578125,76.33343505859375Z" fill="url(#render-18-c)" style="fill: url(&quot;#render-18-c&quot;);"/></g></g><g id="shape-424258af-1982-8022-8007-3c076100f137" mask="url(#render-19-e)" filter="url(#render-19-f)" rx="0" ry="0" style="fill: rgb(0, 0, 0);"><defs><filter y1="61.22806818181818" filterUnits="userSpaceOnUse" width="47.528819875776435" x1="68.36602484472078" height="22.656249999999993" color-interpolation-filters="sRGB" class="svg-def" x="68.36602484472078" id="render-19-f" data-old-y="61.22806818181818" data-old-width="47.528819875776435" data-old-x="68.36602484472078" y="61.22806818181818" x2="115.89484472049722" y2="83.88431818181817" data-old-height="22.656249999999993"><feFlood flood-opacity="0" result="BackgroundImageFix"/><feColorMatrix in="SourceAlpha" values="0 0 0 0 0 0 0 0 0 0 0 0 0 0 0 0 0 0 127 0" result="hardAlpha"/><feOffset dy=".229"/><feGaussianBlur stdDeviation=".229"/><feColorMatrix values="0 0 0 0 0 0 0 0 0 0 0 0 0 0 0 0 0 0 0.1 0"/><feBlend in2="BackgroundImageFix" result="effect1_dropShadow_1049_9370"/><feColorMatrix in="SourceAlpha" values="0 0 0 0 0 0 0 0 0 0 0 0 0 0 0 0 0 0 127 0" result="hardAlpha"/><feOffset dy=".458"/><feGaussianBlur stdDeviation=".688"/><feColorMatrix values="0 0 0 0 0 0 0 0 0 0 0 0 0 0 0 0 0 0 0.2 0"/><feBlend in2="effect1_dropShadow_1049_9370" result="effect2_dropShadow_1049_9370"/><feBlend in="SourceGraphic" in2="effect2_dropShadow_1049_9370" result="shape"/></filter><mask y1="70.8409090909091" width="72.42236024844726" maskUnits="userSpaceOnUse" x1="55.91925465838537" height="65.9090909090909" class="svg-def" x="55.91925465838537" id="render-19-e" style="mask-type: alpha;" data-old-y="70.8409090909091" data-old-width="72.42236024844726" data-old-x="55.91925465838537" y="70.8409090909091" x2="128.34161490683263" y2="136.75" data-old-height="65.9090909090909"><g class="svg-mask-wrapper" transform="matrix(3.291925, 0.000000, 0.000000, 3.295455, 23.000000, 28.000000)"><path d="M10.3438 14.6667C10.3438 14.1604 10.7542 13.75 11.2604 13.75H30.7396C31.2458 13.75 31.6562 14.1604 31.6562 14.6667V28.5313C31.6562 30.6196 29.9633 32.3125 27.875 32.3125H14.125C12.0367 32.3125 10.3438 30.6196 10.3438 28.5313V14.6667Z" fill="url(#render-19-d)"/></g></mask><linearGradient x1="21" y1="13.75" x2="25.096" y2="32.954" id="render-19-d" gradientUnits="userSpaceOnUse" class="svg-def" gradientTransform="matrix(3.291925, 0.000000, 0.000000, 3.295455, 23.000000, 28.000000)"><stop stop-color="#0078D4"/><stop offset="1" stop-color="#114A8B"/></linearGradient></defs><g id="shape-424258af-1982-8022-8007-3c07610129de"><defs><linearGradient x1="21" y1="11.688" x2="21.193" y2="14.649" id="render-20-g" gradientUnits="userSpaceOnUse" gradientTransform="matrix(3.291925, 0.000000, 0.000000, 3.295455, 23.000000, 28.000000)"><stop stop-color="#28AFEA"/><stop offset="1" stop-color="#0078D4"/></linearGradient></defs><g class="fills" id="fills-424258af-1982-8022-8007-3c07610129de"><path d="M75.15667724609375,75.578125L75.15667724609375,66.515625L109.10418701171875,66.515625L109.10418701171875,75.578125" fill="none" stroke="url(#render-20-g)" stroke-width="1.375" stroke-linecap="round" style="fill: none;"/></g></g></g><g id="shape-424258af-1982-8022-8007-3c07610129df" filter="url(#render-21-h)" rx="0" ry="0" style="fill: rgb(0, 0, 0);"><defs><filter y1="86.15159090909091" filterUnits="userSpaceOnUse" width="38.47602484472068" x1="72.89242236024867" height="38.517272727272726" color-interpolation-filters="sRGB" class="svg-def" x="72.89242236024867" id="render-21-h" data-old-y="86.15159090909091" data-old-width="38.47602484472068" data-old-x="72.89242236024867" y="86.15159090909091" x2="111.36844720496936" y2="124.66886363636364" data-old-height="38.517272727272726"><feFlood flood-opacity="0" result="BackgroundImageFix"/><feColorMatrix in="SourceAlpha" values="0 0 0 0 0 0 0 0 0 0 0 0 0 0 0 0 0 0 127 0" result="hardAlpha"/><feOffset dy=".229"/><feGaussianBlur stdDeviation=".229"/><feColorMatrix values="0 0 0 0 1 0 0 0 0 1 0 0 0 0 1 0 0 0 0.6 0"/><feBlend in2="BackgroundImageFix" result="effect1_dropShadow_1049_9370"/><feColorMatrix in="SourceAlpha" values="0 0 0 0 0 0 0 0 0 0 0 0 0 0 0 0 0 0 127 0" result="hardAlpha"/><feOffset dy=".458"/><feGaussianBlur stdDeviation=".688"/><feColorMatrix values="0 0 0 0 1 0 0 0 0 1 0 0 0 0 1 0 0 0 0.6 0"/><feBlend in2="effect1_dropShadow_1049_9370" result="effect2_dropShadow_1049_9370"/><feBlend in="SourceGraphic" in2="effect2_dropShadow_1049_9370" result="shape"/></filter></defs><g id="shape-424258af-1982-8022-8007-3c07610129e0"><g class="fills" id="fills-424258af-1982-8022-8007-3c07610129e0"><path d="M90.99969482421875,89.171875L77.42041015625,89.171875L77.42041015625,102.765625L90.99969482421875,102.765625L90.99969482421875,89.171875Z" style="fill: rgb(242, 80, 34);"/></g></g><g id="shape-424258af-1982-8022-8007-3c07610149bd"><g class="fills" id="fills-424258af-1982-8022-8007-3c07610149bd"><path d="M106.8414306640625,89.171875L93.26226806640625,89.171875L93.26226806640625,102.765625L106.8414306640625,102.765625L106.8414306640625,89.171875Z" style="fill: rgb(127, 186, 0);"/></g></g><g id="shape-424258af-1982-8022-8007-3c07610149be"><g class="fills" id="fills-424258af-1982-8022-8007-3c07610149be"><path d="M106.8414306640625,105.03131103515625L93.26226806640625,105.03131103515625L93.26226806640625,118.625L106.8414306640625,118.625L106.8414306640625,105.03131103515625Z" style="fill: rgb(255, 185, 0);"/></g></g><g id="shape-424258af-1982-8022-8007-3c07610149bf"><g class="fills" id="fills-424258af-1982-8022-8007-3c07610149bf"><path d="M90.99859619140625,105.03131103515625L77.41943359375,105.03131103515625L77.41943359375,118.625L90.99859619140625,118.625L90.99859619140625,105.03131103515625Z" style="fill: rgb(0, 164, 239);"/></g></g></g><g id="shape-424258af-1982-8022-8007-3c07610149c0"><defs><linearGradient x1="21" y1="11.688" x2="21.193" y2="14.649" id="render-26-i" gradientUnits="userSpaceOnUse" gradientTransform="matrix(3.291925, 0.000000, 0.000000, 3.295455, 23.000000, 28.000000)"><stop stop-color="#30DAFF"/><stop offset="1" stop-color="#0094D4"/></linearGradient></defs><g class="fills" id="fills-424258af-1982-8022-8007-3c07610149c0"><path d="M75.15667724609375,75.578125L75.15667724609375,68.78125C75.15667724609375,67.52996826171875,76.16986083984375,66.515625,77.41986083984375,66.515625L106.8414306640625,66.515625C108.09100341796875,66.515625,109.10418701171875,67.52996826171875,109.10418701171875,68.78125L109.10418701171875,75.578125" fill="none" stroke="url(#render-26-i)" stroke-width="1.375" stroke-linecap="round" style="fill: none;"/></g></g><g id="shape-424258af-1982-8022-8007-3c07610149c1"><defs><linearGradient x1="20.503" y1="11" x2="20.503" y2="12.375" id="render-27-j" gradientUnits="userSpaceOnUse" gradientTransform="matrix(3.291925, 0.000000, 0.000000, 3.295455, 23.000000, 28.000000)"><stop stop-color="#22BCFF"/><stop offset="1" stop-color="#0088F0"/></linearGradient></defs><g class="fills" id="fills-424258af-1982-8022-8007-3c07610149c1"><rect width="29.423229813664875" height="4.53125" x="77.4188198757762" transform="matrix(1.000000, 0.000000, 0.000000, 1.000000, 0.000000, 0.000000)" style="fill: url(&quot;#render-27-j&quot;);" ry="0" fill="url(#render-27-j)" rx="0" y="64.25"/></g></g><g id="shape-424258af-1982-8022-8007-3c07610149c2" mask="url(#render-28-l)" filter="url(#render-28-m)" rx="0" ry="0" style="fill: rgb(0, 0, 0);"><defs><filter y1="58.96409090909091" filterUnits="userSpaceOnUse" width="51.548260869563535" x1="66.3546583850933" height="20.39227272727277" color-interpolation-filters="sRGB" class="svg-def" x="66.3546583850933" id="render-28-m" data-old-y="58.96409090909091" data-old-width="51.548260869563535" data-old-x="66.3546583850933" y="58.96409090909091" x2="117.90291925465684" y2="79.35636363636368" data-old-height="20.39227272727277"><feFlood flood-opacity="0" result="BackgroundImageFix"/><feColorMatrix in="SourceAlpha" values="0 0 0 0 0 0 0 0 0 0 0 0 0 0 0 0 0 0 127 0" result="hardAlpha"/><feOffset dy="-.917"/><feGaussianBlur stdDeviation=".229"/><feColorMatrix values="0 0 0 0 0 0 0 0 0 0 0 0 0 0 0 0 0 0 0.1 0"/><feBlend in2="BackgroundImageFix" result="effect1_dropShadow_1049_9370"/><feColorMatrix in="SourceAlpha" values="0 0 0 0 0 0 0 0 0 0 0 0 0 0 0 0 0 0 127 0" result="hardAlpha"/><feOffset dy="-.917"/><feGaussianBlur stdDeviation=".688"/><feColorMatrix values="0 0 0 0 0 0 0 0 0 0 0 0 0 0 0 0 0 0 0.2 0"/><feBlend in2="effect1_dropShadow_1049_9370" result="effect2_dropShadow_1049_9370"/><feBlend in="SourceGraphic" in2="effect2_dropShadow_1049_9370" result="shape"/></filter><mask y1="64.25000000000001" width="32.919254658384006" maskUnits="userSpaceOnUse" x1="75.67080745341599" height="6.590909090909108" class="svg-def" x="75.67080745341599" id="render-28-l" style="mask-type: alpha;" data-old-y="64.25000000000001" data-old-width="32.919254658384006" data-old-x="75.67080745341599" y="64.25000000000001" x2="108.5900621118" y2="70.84090909090912" data-old-height="6.590909090909108"><g class="svg-mask-wrapper" transform="matrix(3.291925, 0.000000, 0.000000, 3.295455, 23.000000, 28.000000)"><rect x="16.531" y="11" width="8.938" height="1.375" fill="url(#render-28-k)"/></g></mask><linearGradient x1="20.503" y1="11" x2="20.503" y2="12.375" id="render-28-k" gradientUnits="userSpaceOnUse" class="svg-def" gradientTransform="matrix(3.291925, 0.000000, 0.000000, 3.295455, 23.000000, 28.000000)"><stop stop-color="#28AFEA"/><stop offset="1" stop-color="#3CCBF4"/></linearGradient></defs><g id="shape-424258af-1982-8022-8007-3c07610195ff"><g class="fills" id="fills-424258af-1982-8022-8007-3c07610195ff"><rect rx="0" ry="0" x="70.88105590062116" y="66.51727272727271" transform="matrix(1.000000, 0.000000, 0.000000, 1.000000, 0.000000, 0.000000)" width="6.5377639751550305" height="11.329772727272712" style="fill: rgb(196, 196, 196);"/></g></g></g></g></g><g id="shape-424258af-1982-8022-8007-3c07610216d5"><g class="fills" id="fills-424258af-1982-8022-8007-3c07610216d5"><path d="M151.11505126953125,84.022705078125L151.11505126953125,60.9481201171875L157.48028564453125,60.9481201171875C161.541748046875,60.9481201171875,164.5849609375,61.88677978515625,166.61026000976562,63.763916015625C168.64639282226562,65.63037109375,169.66427612304688,68.44110107421875,169.66427612304688,72.195556640625C169.66427612304688,75.75732421875,168.53369140625,78.62158203125,166.272705078125,80.78863525390625C164.02239990234375,82.94488525390625,161.00567626953125,84.022705078125,157.22308349609375,84.022705078125L151.11505126953125,84.022705078125ZM153.8154296875,63.39373779296875L153.8154296875,81.57684326171875L157.2552490234375,81.57684326171875C160.27716064453125,81.57684326171875,162.62933349609375,80.766845703125,164.3116455078125,79.14715576171875C165.9940185546875,77.52734375,166.83526611328125,75.2318115234375,166.83526611328125,72.26031494140625C166.83526611328125,69.2994384765625,166.04766845703125,67.0841064453125,164.472412109375,65.61474609375C162.9078369140625,64.13397216796875,160.55560302734375,63.39373779296875,157.416015625,63.39373779296875L153.8154296875,63.39373779296875ZM180.72308349609375,84.40887451171875C178.29071044921875,84.40887451171875,176.34579467773438,83.6417236328125,174.8880615234375,82.107666015625C173.44161987304688,80.56317138671875,172.71832275390625,78.51959228515625,172.71832275390625,75.9771728515625C172.71832275390625,73.22015380859375,173.46835327148438,71.06396484375,174.96865844726562,69.508544921875C176.46896362304688,67.95318603515625,178.51556396484375,67.17010498046875,181.10885620117188,67.1593017578125C183.56256103515625,67.14862060546875,185.47576904296875,67.90472412109375,186.84722900390625,69.4281005859375C188.22958374023438,70.95135498046875,188.92074584960938,73.048583984375,188.92074584960938,75.719970703125C188.92074584960938,78.35845947265625,188.17593383789062,80.46661376953125,186.68649291992188,82.0435791015625C185.20770263671875,83.6204833984375,183.21994018554688,84.40887451171875,180.72308349609375,84.40887451171875ZM180.91595458984375,82.18853759765625C182.61981201171875,82.18853759765625,183.927001953125,81.63580322265625,184.8380126953125,80.53094482421875C185.75982666015625,79.41546630859375,186.22036743164062,77.84375,186.22036743164062,75.81646728515625C186.22036743164062,73.74578857421875,185.75982666015625,72.15814208984375,184.8380126953125,71.05352783203125C183.91653442382812,69.93756103515625,182.60897827148438,69.379638671875,180.91595458984375,69.379638671875C179.22299194335938,69.379638671875,177.88345336914062,69.9591064453125,176.89752197265625,71.11767578125C175.91159057617188,72.27606201171875,175.41873168945312,73.86376953125,175.41873168945312,75.880615234375C175.41873168945312,77.8328857421875,175.91680908203125,79.37261962890625,176.91357421875,80.4990234375C177.91018676757812,81.62530517578125,179.2442626953125,82.18853759765625,180.91595458984375,82.18853759765625ZM213.86740112304688,67.54547119140625L208.9324951171875,84.022705078125L206.20016479492188,84.022705078125L202.79248046875,72.195556640625C202.7069091796875,71.8955078125,202.6478271484375,71.6434326171875,202.61566162109375,71.4393310546875C202.59439086914062,71.22491455078125,202.57290649414062,70.978271484375,202.5513916015625,70.6990966796875L202.48709106445312,70.6990966796875C202.465576171875,70.978271484375,202.42803955078125,71.21966552734375,202.37457275390625,71.423583984375C202.32113647460938,71.62713623046875,202.2459716796875,71.88458251953125,202.1495361328125,72.195556640625L198.46859741210938,84.022705078125L195.83270263671875,84.022705078125L190.84963989257812,67.54547119140625L193.61434936523438,67.54547119140625L197.02197265625,79.93585205078125C197.07583618164062,80.11798095703125,197.11843872070312,80.33245849609375,197.15057373046875,80.5792236328125C197.19357299804688,80.82586669921875,197.22552490234375,81.10504150390625,197.24700927734375,81.41595458984375L197.3756103515625,81.41595458984375C197.39691162109375,81.17999267578125,197.42926025390625,80.93841552734375,197.4720458984375,80.69207763671875C197.51483154296875,80.4342041015625,197.579345703125,80.1717529296875,197.66494750976562,79.9034423828125L201.45834350585938,67.54547119140625L203.86941528320312,67.54547119140625L207.27713012695312,79.967529296875C207.33074951171875,80.1717529296875,207.37353515625,80.39678955078125,207.40570068359375,80.64361572265625C207.44869995117188,80.8795166015625,207.486083984375,81.1478271484375,207.5181884765625,81.44830322265625L207.64682006835938,81.44830322265625C207.65768432617188,81.2335205078125,207.68417358398438,81.00299072265625,207.7271728515625,80.7562255859375C207.78060913085938,80.50946044921875,207.84490966796875,80.24676513671875,207.9200439453125,79.967529296875L211.26361083984375,67.54547119140625L213.86740112304688,67.54547119140625ZM230.58419799804688,84.022705078125L227.94808959960938,84.022705078125L227.94808959960938,74.6253662109375C227.94808959960938,72.8768310546875,227.62661743164062,71.5682373046875,226.98367309570312,70.6990966796875C226.3515625,69.8197021484375,225.39773559570312,69.379638671875,224.12249755859375,69.379638671875C222.80447387695312,69.379638671875,221.71142578125,69.878662109375,220.84341430664062,70.8760986328125C219.98629760742188,71.8631591796875,219.55752563476562,73.1131591796875,219.55752563476562,74.6253662109375L219.55752563476562,84.022705078125L216.92141723632812,84.022705078125L216.92141723632812,67.54547119140625L219.55752563476562,67.54547119140625L219.55752563476562,70.2808837890625L219.62179565429688,70.2808837890625C220.2432861328125,69.240234375,221.004150390625,68.462646484375,221.90432739257812,67.94769287109375C222.80447387695312,67.42218017578125,223.843994140625,67.1593017578125,225.02267456054688,67.1593017578125C226.82290649414062,67.1593017578125,228.1998291015625,67.7437744140625,229.15359497070312,68.91302490234375C230.107177734375,70.07171630859375,230.58419799804688,71.75048828125,230.58419799804688,73.949951171875L230.58419799804688,84.022705078125ZM235.56710815429688,84.022705078125L235.56710815429688,59.62860107421875L238.2030029296875,59.62860107421875L238.2030029296875,84.022705078125L235.56710815429688,84.022705078125ZM250.4193115234375,84.40887451171875C247.9869384765625,84.40887451171875,246.04180908203125,83.6417236328125,244.58453369140625,82.107666015625C243.13790893554688,80.56317138671875,242.41433715820312,78.51959228515625,242.41433715820312,75.9771728515625C242.41433715820312,73.22015380859375,243.16458129882812,71.06396484375,244.66488647460938,69.508544921875C246.16519165039062,67.95318603515625,248.2117919921875,67.17010498046875,250.80508422851562,67.1593017578125C253.25897216796875,67.14862060546875,255.1719970703125,67.90472412109375,256.54345703125,69.4281005859375C257.926025390625,70.95135498046875,258.6169738769531,73.048583984375,258.6169738769531,75.719970703125C258.6169738769531,78.35845947265625,257.87237548828125,80.46661376953125,256.3827209472656,82.0435791015625C254.9039306640625,83.6204833984375,252.91598510742188,84.40887451171875,250.4193115234375,84.40887451171875ZM250.61221313476562,82.18853759765625C252.31625366210938,82.18853759765625,253.62344360351562,81.63580322265625,254.53424072265625,80.53094482421875C255.45565795898438,79.41546630859375,255.91659545898438,77.84375,255.91659545898438,75.81646728515625C255.91659545898438,73.74578857421875,255.45565795898438,72.15814208984375,254.53424072265625,71.05352783203125C253.61260986328125,69.93756103515625,252.30520629882812,69.379638671875,250.61221313476562,69.379638671875C248.91921997070312,69.379638671875,247.57989501953125,69.9591064453125,246.59375,71.11767578125C245.60800170898438,72.27606201171875,245.11517333984375,73.86376953125,245.11517333984375,75.880615234375C245.11517333984375,77.8328857421875,245.61322021484375,79.37261962890625,246.61001586914062,80.4990234375C247.60641479492188,81.62530517578125,248.94049072265625,82.18853759765625,250.61221313476562,82.18853759765625ZM274.4820861816406,84.022705078125L271.84576416015625,84.022705078125L271.84576416015625,81.44830322265625L271.7812805175781,81.44830322265625C271.2134704589844,82.4349365234375,270.51165771484375,83.17510986328125,269.67578125,83.668701171875C268.85040283203125,84.162109375,267.8863830566406,84.40887451171875,266.7825012207031,84.40887451171875C265.2394104003906,84.40887451171875,263.99090576171875,83.9583740234375,263.0373229980469,83.0572509765625C262.0837097167969,82.15618896484375,261.6067199707031,80.96002197265625,261.6067199707031,79.46917724609375C261.6067199707031,78.0635986328125,262.08892822265625,76.89959716796875,263.0533752441406,75.9771728515625C264.0176086425781,75.0545654296875,265.3840637207031,74.464599609375,267.1522216796875,74.2071533203125L271.84576416015625,73.579833984375L271.84576416015625,73.20977783203125C271.84576416015625,71.82568359375,271.5242919921875,70.8441162109375,270.88134765625,70.26483154296875C270.2384033203125,69.67486572265625,269.3812561035156,69.379638671875,268.30975341796875,69.379638671875C267.45220947265625,69.379638671875,266.627197265625,69.54095458984375,265.8341369628906,69.862548828125C265.0411376953125,70.1844482421875,264.2964782714844,70.677734375,263.5998840332031,71.3427734375L262.0567626953125,69.749755859375C262.97845458984375,68.8597412109375,263.958740234375,68.2052001953125,264.998291015625,67.78662109375C266.03790283203125,67.36846923828125,267.19500732421875,67.1593017578125,268.47027587890625,67.1593017578125C270.463623046875,67.1593017578125,271.9637145996094,67.67437744140625,272.9709167480469,68.70416259765625C273.9783630371094,69.72320556640625,274.4820861816406,71.257080078125,274.4820861816406,73.30584716796875L274.4820861816406,84.022705078125ZM271.84576416015625,77.32904052734375L271.84576416015625,75.68756103515625L267.87554931640625,76.234619140625C266.6647644042969,76.40618896484375,265.7537536621094,76.71209716796875,265.14300537109375,77.151611328125C264.53216552734375,77.59173583984375,264.2267761230469,78.28369140625,264.2267761230469,79.22760009765625C264.2267761230469,80.214599609375,264.5108642578125,80.9708251953125,265.07867431640625,81.4964599609375C265.6573486328125,82.01116943359375,266.3591613769531,82.268798828125,267.1845397949219,82.268798828125C268.6097106933594,82.268798828125,269.7401123046875,81.80218505859375,270.575927734375,80.86883544921875C271.4226379394531,79.93585205078125,271.84576416015625,78.7554931640625,271.84576416015625,77.32904052734375ZM290.9254150390625,81.22283935546875C290.31463623046875,82.28509521484375,289.53765869140625,83.08416748046875,288.5947265625,83.6204833984375C287.6624450683594,84.14605712890625,286.55316162109375,84.40887451171875,285.2674560546875,84.40887451171875C283.1993408203125,84.40887451171875,281.5435485839844,83.67413330078125,280.3006286621094,82.2042236328125C279.068359375,80.7239990234375,278.4521484375,78.712646484375,278.4521484375,76.1702880859375C278.4521484375,73.4456787109375,279.1376953125,71.26251220703125,280.50958251953125,69.6212158203125C281.8813171386719,67.979736328125,283.7082824707031,67.1593017578125,285.9905700683594,67.1593017578125C287.1268005371094,67.1593017578125,288.1016540527344,67.384521484375,288.9162292480469,67.8350830078125C289.74139404296875,68.27496337890625,290.41107177734375,68.94012451171875,290.9254150390625,69.83056640625L290.98974609375,69.83056640625L290.98974609375,59.62860107421875L293.6258544921875,59.62860107421875L293.6258544921875,84.022705078125L290.98974609375,84.022705078125L290.98974609375,81.22283935546875L290.9254150390625,81.22283935546875ZM281.1525573730469,76.04156494140625C281.1525573730469,77.9403076171875,281.5919494628906,79.4420166015625,282.4705810546875,80.5469970703125C283.360107421875,81.64111328125,284.5493469238281,82.18853759765625,286.03900146484375,82.18853759765625C287.5177917480469,82.18853759765625,288.71270751953125,81.6573486328125,289.6234436035156,80.59552001953125C290.534423828125,79.5333251953125,290.98974609375,78.1923828125,290.98974609375,76.57281494140625L290.98974609375,74.14300537109375C290.98974609375,72.81268310546875,290.5448913574219,71.6861572265625,289.6556091308594,70.763916015625C288.7767639160156,69.841064453125,287.6678466796875,69.379638671875,286.3283386230469,69.379638671875C284.7209167480469,69.379638671875,283.4565124511719,69.969970703125,282.5346984863281,71.15008544921875C281.61346435546875,72.32977294921875,281.1525573730469,73.96038818359375,281.1525573730469,76.04156494140625ZM315.85595703125,61.7850341796875C315.5559997558594,61.6884765625,315.282958984375,61.61846923828125,315.0362243652344,61.57562255859375C314.800537109375,61.53277587890625,314.54876708984375,61.51104736328125,314.28076171875,61.51104736328125C313.3806457519531,61.51104736328125,312.71075439453125,61.75262451171875,312.27130126953125,62.23541259765625C311.832275390625,62.71832275390625,311.6127014160156,63.4261474609375,311.6127014160156,64.35943603515625L311.6127014160156,67.54547119140625L315.47021484375,67.54547119140625L315.47021484375,69.7982177734375L311.6127014160156,69.7982177734375L311.6127014160156,84.022705078125L308.9926452636719,84.022705078125L308.9926452636719,69.7982177734375L306.1795349121094,69.7982177734375L306.1795349121094,67.54547119140625L308.9926452636719,67.54547119140625L308.9926452636719,64.23046875C308.9926452636719,62.67510986328125,309.4692077636719,61.4630126953125,310.4230651855469,60.5941162109375C311.3766174316406,59.71453857421875,312.6842041015625,59.27459716796875,314.34503173828125,59.27459716796875C314.7521057128906,59.27459716796875,315.121826171875,59.3067626953125,315.45391845703125,59.3712158203125C315.7864685058594,59.42486572265625,316.1292419433594,59.51055908203125,316.4826354980469,59.62860107421875L315.85595703125,61.7850341796875ZM326.4325866699219,69.7982177734375C326.229248046875,69.73406982421875,326.04681396484375,69.6907958984375,325.8860778808594,69.6693115234375C325.7253112792969,69.63751220703125,325.5216064453125,69.6212158203125,325.27508544921875,69.6212158203125C323.9355163574219,69.6212158203125,322.8802490234375,70.195068359375,322.10870361328125,71.3427734375C321.3373718261719,72.47998046875,320.9513854980469,73.9066162109375,320.9513854980469,75.6231689453125L320.9513854980469,84.022705078125L318.3152770996094,84.022705078125L318.3152770996094,67.54547119140625L320.9513854980469,67.54547119140625L320.9513854980469,70.8118896484375L321.01568603515625,70.8118896484375C321.3905944824219,69.65313720703125,321.96405029296875,68.7735595703125,322.7358093261719,68.17303466796875C323.50714111328125,67.5615234375,324.39642333984375,67.25579833984375,325.40386962890625,67.25579833984375C325.7359619140625,67.25579833984375,326.0148620605469,67.2718505859375,326.23968505859375,67.30426025390625C326.4753723144531,67.3363037109375,326.684326171875,67.384521484375,326.8665771484375,67.4488525390625L326.4325866699219,69.7982177734375ZM336.6394958496094,84.40887451171875C334.2071228027344,84.40887451171875,332.261962890625,83.6417236328125,330.8046569824219,82.107666015625C329.3580322265625,80.56317138671875,328.6349182128906,78.51959228515625,328.6349182128906,75.9771728515625C328.6349182128906,73.22015380859375,329.384765625,71.06396484375,330.88482666015625,69.508544921875C332.38531494140625,67.95318603515625,334.43194580078125,67.17010498046875,337.0252685546875,67.1593017578125C339.4791259765625,67.14862060546875,341.3921203613281,67.90472412109375,342.7633972167969,69.4281005859375C344.1459655761719,70.95135498046875,344.837158203125,73.048583984375,344.837158203125,75.719970703125C344.837158203125,78.35845947265625,344.092529296875,80.46661376953125,342.6029052734375,82.0435791015625C341.1241149902344,83.6204833984375,339.1365661621094,84.40887451171875,336.6394958496094,84.40887451171875ZM336.8323669433594,82.18853759765625C338.5362243652344,82.18853759765625,339.8436279296875,81.63580322265625,340.75439453125,80.53094482421875C341.67584228515625,79.41546630859375,342.13671875,77.84375,342.13671875,75.81646728515625C342.13671875,73.74578857421875,341.67584228515625,72.15814208984375,340.75439453125,71.05352783203125C339.8325500488281,69.93756103515625,338.5253601074219,69.379638671875,336.8323669433594,69.379638671875C335.139404296875,69.379638671875,333.8000183105469,69.9591064453125,332.81390380859375,71.11767578125C331.8279724121094,72.27606201171875,331.3351135253906,73.86376953125,331.3351135253906,75.880615234375C331.3351135253906,77.8328857421875,331.8334045410156,79.37261962890625,332.8299865722656,80.4990234375C333.8265686035156,81.62530517578125,335.16070556640625,82.18853759765625,336.8323669433594,82.18853759765625ZM372.4214782714844,84.022705078125L369.7845458984375,84.022705078125L369.7845458984375,74.5611572265625C369.7845458984375,72.7374267578125,369.4982604980469,71.41796875,368.9318542480469,70.6025390625C368.3757019042969,69.78729248046875,367.43096923828125,69.379638671875,366.1042785644531,69.379638671875C364.9784851074219,69.379638671875,364.01727294921875,69.89471435546875,363.22705078125,70.924560546875C362.4436340332031,71.9544677734375,362.0518493652344,73.18798828125,362.0518493652344,74.6253662109375L362.0518493652344,84.022705078125L359.4149169921875,84.022705078125L359.4149169921875,74.2391357421875C359.4149169921875,72.61932373046875,359.1054992675781,71.4073486328125,358.48345947265625,70.6025390625C357.8612060546875,69.78729248046875,356.9263000488281,69.379638671875,355.672119140625,69.379638671875C354.513427734375,69.379638671875,353.5588073730469,69.86798095703125,352.8113708496094,70.8441162109375C352.05950927734375,71.80938720703125,351.6846008300781,73.0699462890625,351.6846008300781,74.6253662109375L351.6846008300781,84.022705078125L349.04852294921875,84.022705078125L349.04852294921875,67.54547119140625L351.6846008300781,67.54547119140625L351.6846008300781,70.1522216796875L351.7489013671875,70.1522216796875C352.3374328613281,69.154541015625,353.054931640625,68.408935546875,353.9044189453125,67.91552734375C354.7603454589844,67.41131591796875,355.74444580078125,67.1593017578125,356.8603820800781,67.1593017578125C357.9863586425781,67.1593017578125,358.96728515625,67.47564697265625,359.8034973144531,68.108642578125C360.6363525390625,68.730712890625,361.2123718261719,69.5513916015625,361.5218200683594,70.57080078125C362.13421630859375,69.43328857421875,362.8945007324219,68.58050537109375,363.8031005859375,68.0120849609375C364.715087890625,67.4437255859375,365.7749328613281,67.1593017578125,366.98651123046875,67.1593017578125C368.79705810546875,67.1593017578125,370.15325927734375,67.71722412109375,371.052001953125,68.83270263671875C371.96380615234375,69.948486328125,372.4214782714844,71.62713623046875,372.4214782714844,73.86907958984375L372.4214782714844,84.022705078125ZM394.2799072265625,83.82965087890625C393.828857421875,84.01190185546875,393.3843994140625,84.14605712890625,392.94659423828125,84.23187255859375C392.51861572265625,84.3284912109375,392.0314025878906,84.376708984375,391.4850769042969,84.376708984375C390.1746520996094,84.376708984375,389.1477355957031,83.9959716796875,388.3970947265625,83.234130859375C387.6564636230469,82.46209716796875,387.28778076171875,81.32464599609375,387.28778076171875,79.82293701171875L387.28778076171875,69.7982177734375L384.4599914550781,69.7982177734375L384.4599914550781,67.54547119140625L387.28778076171875,67.54547119140625L387.28778076171875,63.52264404296875L389.9247131347656,62.6697998046875L389.9247131347656,67.54547119140625L394.0723876953125,67.54547119140625L394.0723876953125,69.7982177734375L389.9247131347656,69.7982177734375L389.9247131347656,79.5172119140625C389.9247131347656,80.46136474609375,390.08905029296875,81.1424560546875,390.42181396484375,81.560791015625C390.7641906738281,81.97918701171875,391.2743225097656,82.18853759765625,391.94921875,82.18853759765625C392.271728515625,82.18853759765625,392.58111572265625,82.15093994140625,392.88067626953125,82.07568359375C393.1802673339844,82.000732421875,393.4338684082031,81.9150390625,393.63775634765625,81.81842041015625L394.2799072265625,83.82965087890625ZM411.25311279296875,84.022705078125L408.619384765625,84.022705078125L408.619384765625,74.52880859375C408.619384765625,72.81268310546875,408.2967224121094,71.525390625,407.6549987792969,70.66729736328125C407.02288818359375,69.80889892578125,406.0680847167969,69.379638671875,404.79425048828125,69.379638671875C403.5071105957031,69.379638671875,402.42413330078125,69.878662109375,401.54510498046875,70.8760986328125C400.66607666015625,71.8631591796875,400.22845458984375,73.134521484375,400.22845458984375,74.69012451171875L400.22845458984375,84.022705078125L397.591552734375,84.022705078125L397.591552734375,59.62860107421875L400.22845458984375,59.62860107421875L400.22845458984375,70.2808837890625L400.2907409667969,70.2808837890625C400.9228515625,69.240234375,401.6899719238281,68.462646484375,402.5919189453125,67.94769287109375C403.4906311035156,67.42218017578125,404.524169921875,67.1593017578125,405.69293212890625,67.1593017578125C407.5462646484375,67.1593017578125,408.9354553222656,67.71722412109375,409.8570861816406,68.83270263671875C410.7887878417969,69.948486328125,411.25311279296875,71.62713623046875,411.25311279296875,73.86907958984375L411.25311279296875,84.022705078125ZM429.46722412109375,76.379638671875L417.8269348144531,76.379638671875C417.8697204589844,78.2352294921875,418.3602600097656,79.66748046875,419.2918395996094,80.67578125C420.2333679199219,81.6734619140625,421.5534362792969,82.1722412109375,423.24542236328125,82.1722412109375C423.98614501953125,82.1722412109375,424.7235107421875,82.06488037109375,425.4642333984375,81.8504638671875C426.2147521972656,81.62530517578125,426.9521484375,81.27093505859375,427.6830139160156,80.78863525390625L428.9043273925781,82.6708984375C427.97265625,83.27166748046875,427.0377197265625,83.7115478515625,426.10614013671875,83.99029541015625C425.1744689941406,84.26953125,424.1507568359375,84.40887451171875,423.0380859375,84.40887451171875C420.5494384765625,84.40887451171875,418.61041259765625,83.668701171875,417.2179260253906,82.18853759765625C415.8255310058594,80.707763671875,415.124267578125,78.642822265625,415.11114501953125,75.9932861328125C415.1011657714844,73.343505859375,415.7991027832031,71.208984375,417.2014465332031,69.58905029296875C418.6170349121094,67.96923828125,420.4473571777344,67.1593017578125,422.69903564453125,67.1593017578125C424.842041015625,67.1593017578125,426.5044860839844,67.86187744140625,427.6830139160156,69.26739501953125C428.871337890625,70.66168212890625,429.46722412109375,72.59808349609375,429.46722412109375,75.07623291015625L429.46722412109375,76.379638671875ZM426.76458740234375,74.22344970703125C426.754638671875,72.6998291015625,426.38592529296875,71.5145263671875,425.65521240234375,70.66729736328125C424.9276123046875,69.80889892578125,423.92694091796875,69.379638671875,422.649658203125,69.379638671875C421.3954162597656,69.379638671875,420.3321228027344,69.8197021484375,419.45318603515625,70.6990966796875C418.5840759277344,71.5682373046875,418.05413818359375,72.74267578125,417.85986328125,74.22344970703125L426.76458740234375,74.22344970703125Z" style="fill: rgb(255, 255, 255);"/></g></g><g id="shape-424258af-1982-8022-8007-3c076102a891"><g class="fills" id="fills-424258af-1982-8022-8007-3c076102a891"><path d="M192.27700805664062,140.04547119140625L186.20751953125,140.04547119140625L186.20751953125,116.48828125C186.20751953125,115.42388916015625,186.23318481445312,114.26556396484375,186.28463745117188,113.012451171875C186.35336303710938,111.742431640625,186.43896484375,110.39501953125,186.54183959960938,108.9703369140625L186.38751220703125,108.9703369140625C186.1817626953125,109.94873046875,185.98446655273438,110.78961181640625,185.79598999023438,111.4932861328125C185.6243896484375,112.18011474609375,185.45321655273438,112.72900390625,185.28164672851562,113.14093017578125L174.45428466796875,140.04547119140625L170.23654174804688,140.04547119140625L159.35772705078125,113.37261962890625C159.22052001953125,112.99530029296875,159.049072265625,112.4373779296875,158.8433837890625,111.69921875C158.65472412109375,110.96142578125,158.44891357421875,110.05145263671875,158.22613525390625,108.9703369140625L158.07159423828125,108.9703369140625C158.1746826171875,110.20611572265625,158.24322509765625,111.5194091796875,158.27777099609375,112.90948486328125C158.31195068359375,114.28265380859375,158.3289794921875,115.73284912109375,158.3289794921875,117.26025390625L158.3289794921875,140.04547119140625L152.67095947265625,140.04547119140625L152.67095947265625,103.12603759765625L161.31231689453125,103.12603759765625L170.90521240234375,127.12109375C171.28250122070312,128.03082275390625,171.59091186523438,128.87176513671875,171.83102416992188,129.6444091796875C172.08822631835938,130.39923095703125,172.2855224609375,131.103271484375,172.42257690429688,131.75531005859375L172.57687377929688,131.75531005859375C172.88528442382812,130.7769775390625,173.17703247070312,129.89324951171875,173.4512939453125,129.10357666015625C173.72573852539062,128.3140869140625,173.98294067382812,127.6275634765625,174.22280883789062,127.04388427734375L183.94427490234375,103.12603759765625L192.27700805664062,103.12603759765625L192.27700805664062,140.04547119140625ZM203.7215576171875,108.58416748046875C202.62411499023438,108.58416748046875,201.71554565429688,108.232421875,200.99545288085938,107.52862548828125C200.27532958984375,106.824951171875,199.915283203125,105.95794677734375,199.915283203125,104.928466796875C199.915283203125,103.86407470703125,200.27532958984375,102.98870849609375,200.99545288085938,102.30218505859375C201.71554565429688,101.61553955078125,202.62411499023438,101.27239990234375,203.7215576171875,101.27239990234375C204.83609008789062,101.27239990234375,205.7532958984375,101.61553955078125,206.47341918945312,102.30218505859375C207.19351196289062,102.98870849609375,207.55355834960938,103.86407470703125,207.55355834960938,104.928466796875C207.55355834960938,105.97540283203125,207.19351196289062,106.85076904296875,206.47341918945312,107.5543212890625C205.7532958984375,108.240966796875,204.83609008789062,108.58416748046875,203.7215576171875,108.58416748046875ZM206.67913818359375,140.04547119140625L200.68679809570312,140.04547119140625L200.68679809570312,113.68182373046875L206.67913818359375,113.68182373046875L206.67913818359375,140.04547119140625ZM234.1973876953125,138.4234619140625C232.8944091796875,139.21295166015625,231.60003662109375,139.779541015625,230.31414794921875,140.12249755859375C229.02822875976562,140.48309326171875,227.63101196289062,140.663330078125,226.1220703125,140.663330078125C222.075927734375,140.663330078125,218.83541870117188,139.47900390625,216.40060424804688,137.11041259765625C213.98312377929688,134.7418212890625,212.77435302734375,131.5238037109375,212.77435302734375,127.45574951171875C212.77435302734375,123.0792236328125,214.02572631835938,119.58624267578125,216.52920532226562,116.97723388671875C219.04959106445312,114.36834716796875,222.44439697265625,113.06396484375,226.71359252929688,113.06396484375C228.20526123046875,113.06396484375,229.55987548828125,113.22705078125,230.777099609375,113.5528564453125C232.01156616210938,113.86199951171875,233.26327514648438,114.376708984375,234.53195190429688,115.09783935546875L232.19155883789062,119.2686767578125C231.29989624023438,118.77099609375,230.42544555664062,118.410400390625,229.56829833984375,118.18731689453125C228.711181640625,117.9471435546875,227.7764892578125,117.82684326171875,226.76507568359375,117.82684326171875C224.24465942382812,117.82684326171875,222.2987060546875,118.65924072265625,220.92703247070312,120.32421875C219.5552978515625,121.98907470703125,218.86956787109375,124.19476318359375,218.86956787109375,126.94061279296875C218.86956787109375,129.82421875,219.60693359375,132.03851318359375,221.08132934570312,133.58349609375C222.572998046875,135.1280517578125,224.4417724609375,135.900390625,226.68789672851562,135.900390625C227.3736572265625,135.900390625,228.16229248046875,135.78009033203125,229.05416870117188,135.53997802734375C229.94564819335938,135.28253173828125,230.8455810546875,134.87921142578125,231.75436401367188,134.32989501953125L234.1973876953125,138.4234619140625ZM253.92340087890625,118.70208740234375C253.59774780273438,118.61639404296875,253.28048706054688,118.55645751953125,252.97186279296875,118.52227783203125C252.68032836914062,118.47052001953125,252.3375244140625,118.44482421875,251.94314575195312,118.44482421875C249.79986572265625,118.44482421875,248.15390014648438,119.2342529296875,247.00521850585938,120.81353759765625C245.85635375976562,122.392333984375,245.28213500976562,124.45196533203125,245.28213500976562,126.9925537109375L245.28213500976562,140.04547119140625L239.28976440429688,140.04547119140625L239.28976440429688,113.68182373046875L245.28213500976562,113.68182373046875L245.28213500976562,118.75390625L245.38497924804688,118.75390625C246.00222778320312,116.93438720703125,246.91082763671875,115.56121826171875,248.11111450195312,114.6346435546875C249.31143188476562,113.69049072265625,250.7259521484375,113.2183837890625,252.3546142578125,113.2183837890625C252.81753540039062,113.2183837890625,253.22903442382812,113.244140625,253.58908081054688,113.29559326171875C253.96640014648438,113.346923828125,254.3262939453125,113.42437744140625,254.66925048828125,113.52740478515625L253.92340087890625,118.70208740234375ZM270.4602355957031,140.663330078125C266.3453063964844,140.663330078125,263.0790710449219,139.4361572265625,260.6615905761719,136.98175048828125C258.2609558105469,134.5101318359375,257.0610656738281,131.20599365234375,257.0610656738281,127.06964111328125C257.07830810546875,122.69287109375,258.32989501953125,119.2686767578125,260.81591796875,116.79705810546875C263.3021240234375,114.30841064453125,266.6880798339844,113.06396484375,270.97454833984375,113.06396484375C275.1065368652344,113.04681396484375,278.3299560546875,114.26556396484375,280.64459228515625,116.7198486328125C282.9765319824219,119.15716552734375,284.1423034667969,122.4613037109375,284.1423034667969,126.6319580078125C284.1423034667969,130.92303466796875,282.9078063964844,134.33837890625,280.4388427734375,136.87896728515625C277.98699951171875,139.40179443359375,274.66070556640625,140.663330078125,270.4602355957031,140.663330078125ZM270.74310302734375,135.900390625C273.12646484375,135.900390625,274.9349365234375,135.119384765625,276.16943359375,133.557373046875C277.42138671875,131.99566650390625,278.0470886230469,129.738525390625,278.0470886230469,126.78662109375C278.0470886230469,123.86846923828125,277.42138671875,121.64593505859375,276.16943359375,120.11822509765625C274.91790771484375,118.5908203125,273.1007385253906,117.82684326171875,270.7174072265625,117.82684326171875C268.36859130859375,117.82684326171875,266.51690673828125,118.6336669921875,265.1622619628906,120.2469482421875C263.82470703125,121.86053466796875,263.15625,124.09173583984375,263.15625,126.94061279296875C263.15625,129.80712890625,263.82470703125,132.021484375,265.1622619628906,133.58349609375C266.49981689453125,135.1280517578125,268.3601379394531,135.900390625,270.74310302734375,135.900390625ZM287.6911926269531,137.93426513671875L290.2889099121094,133.7120361328125C291.317626953125,134.43292236328125,292.4062194824219,135.01654052734375,293.55511474609375,135.46270751953125C294.7210693359375,135.89190673828125,295.98126220703125,136.10638427734375,297.335693359375,136.10638427734375C298.81048583984375,136.10638427734375,299.9503173828125,135.8404541015625,300.7562255859375,135.3082275390625C301.57916259765625,134.75897216796875,301.99066162109375,133.9434814453125,301.99066162109375,132.86236572265625C301.99066162109375,132.004150390625,301.647705078125,131.2921142578125,300.9619445800781,130.72552490234375C300.29327392578125,130.14202880859375,299.1444396972656,129.6614990234375,297.5157165527344,129.28369140625C294.2237854003906,128.5113525390625,291.9091796875,127.490234375,290.5716247558594,126.22003173828125C289.25152587890625,124.95001220703125,288.5915222167969,123.27655029296875,288.5915222167969,121.1993408203125C288.5915222167969,118.81390380859375,289.5173645019531,116.8656005859375,291.3690490722656,115.35528564453125C293.2207946777344,113.82781982421875,295.646728515625,113.06396484375,298.6473388671875,113.06396484375C300.13897705078125,113.06396484375,301.5621337890625,113.26123046875,302.91632080078125,113.6561279296875C304.2709655761719,114.03387451171875,305.5914306640625,114.64306640625,306.87713623046875,115.4840087890625L304.4596252441406,119.60333251953125C303.32781982421875,118.8824462890625,302.29046630859375,118.36761474609375,301.34771728515625,118.05859375C300.40460205078125,117.7496337890625,299.4361267089844,117.59515380859375,298.4415588378906,117.59515380859375C297.03570556640625,117.59515380859375,295.9384460449219,117.861083984375,295.1496276855469,118.39324951171875C294.37811279296875,118.907958984375,293.9923095703125,119.62908935546875,293.9923095703125,120.55572509765625C293.9923095703125,121.53424072265625,294.38653564453125,122.2637939453125,295.1753845214844,122.74432373046875C295.98126220703125,123.20770263671875,297.3270568847656,123.6624755859375,299.212890625,124.1090087890625C302.0591735839844,124.79534912109375,304.14215087890625,125.79095458984375,305.4626159667969,127.0953369140625C306.78271484375,128.3824462890625,307.4427490234375,130.1075439453125,307.4427490234375,132.27020263671875C307.4427490234375,134.82769775390625,306.5086364746094,136.87030029296875,304.6396484375,138.39776611328125C302.7879333496094,139.9080810546875,300.2762145996094,140.663330078125,297.1042175292969,140.663330078125C295.3897399902344,140.663330078125,293.7437744140625,140.44024658203125,292.1663513183594,139.99395751953125C290.6061706542969,139.53076171875,289.11431884765625,138.8438720703125,287.6911926269531,137.93426513671875ZM324.6741027832031,140.663330078125C320.5592041015625,140.663330078125,317.29296875,139.4361572265625,314.87548828125,136.98175048828125C312.47528076171875,134.5101318359375,311.27496337890625,131.20599365234375,311.27496337890625,127.06964111328125C311.2920227050781,122.69287109375,312.5435791015625,119.2686767578125,315.02978515625,116.79705810546875C317.515625,114.30841064453125,320.90216064453125,113.06396484375,325.1884460449219,113.06396484375C329.3206481933594,113.04681396484375,332.5436706542969,114.26556396484375,334.8584899902344,116.7198486328125C337.1902160644531,119.15716552734375,338.35614013671875,122.4613037109375,338.35614013671875,126.6319580078125C338.35614013671875,130.92303466796875,337.1217041015625,134.33837890625,334.65277099609375,136.87896728515625C332.2010803222656,139.40179443359375,328.87481689453125,140.663330078125,324.6741027832031,140.663330078125ZM324.9570007324219,135.900390625C327.34014892578125,135.900390625,329.1490478515625,135.119384765625,330.383544921875,133.557373046875C331.63507080078125,131.99566650390625,332.2609558105469,129.738525390625,332.2609558105469,126.78662109375C332.2609558105469,123.86846923828125,331.63507080078125,121.64593505859375,330.383544921875,120.11822509765625C329.1319885253906,118.5908203125,327.3144226074219,117.82684326171875,324.93145751953125,117.82684326171875C322.582275390625,117.82684326171875,320.7305908203125,118.6336669921875,319.3759765625,120.2469482421875C318.038818359375,121.86053466796875,317.3701171875,124.09173583984375,317.3701171875,126.94061279296875C317.3701171875,129.80712890625,318.038818359375,132.021484375,319.3759765625,133.58349609375C320.7135009765625,135.1280517578125,322.57366943359375,135.900390625,324.9570007324219,135.900390625ZM358.7006530761719,105.7261962890625C358.2200622558594,105.5374755859375,357.7822265625,105.408935546875,357.38720703125,105.34039306640625C356.9921875,105.2542724609375,356.5642395019531,105.21142578125,356.1033020019531,105.21142578125C354.8326721191406,105.21142578125,353.8714599609375,105.58062744140625,353.21966552734375,106.3184814453125C352.58758544921875,107.03948974609375,352.2682800292969,108.0865478515625,352.2682800292969,109.459716796875L352.2682800292969,113.68182373046875L358.3648986816406,113.68182373046875L358.3648986816406,118.36761474609375L352.2682800292969,118.36761474609375L352.2682800292969,140.04547119140625L346.3031005859375,140.04547119140625L346.3031005859375,118.36761474609375L341.828125,118.36761474609375L341.828125,113.68182373046875L346.3031005859375,113.68182373046875L346.3031005859375,109.1505126953125C346.3031005859375,106.4730224609375,347.1606140136719,104.35345458984375,348.8748779296875,102.79144287109375C350.6064453125,101.21221923828125,352.89697265625,100.4229736328125,355.7412414550781,100.4229736328125C356.6333312988281,100.4229736328125,357.4036865234375,100.48291015625,358.0555114746094,100.602783203125C358.707275390625,100.72308349609375,359.3854064941406,100.89483642578125,360.08660888671875,101.11785888671875L358.7006530761719,105.7261962890625ZM376.957763671875,139.68505859375C376.1874084472656,140.01123046875,375.3808898925781,140.25140380859375,374.54144287109375,140.4058837890625C373.70196533203125,140.5601806640625,372.800048828125,140.63763427734375,371.842041015625,140.63763427734375C369.4060363769531,140.63763427734375,367.5296325683594,139.99395751953125,366.20953369140625,138.7069091796875C364.90594482421875,137.40203857421875,364.254150390625,135.46270751953125,364.254150390625,132.88818359375L364.254150390625,118.36761474609375L359.829833984375,118.36761474609375L359.829833984375,113.68182373046875L364.254150390625,113.68182373046875L364.254150390625,107.2711181640625L370.2223815917969,105.46893310546875L370.2223815917969,113.68182373046875L376.52313232421875,113.68182373046875L376.52313232421875,118.36761474609375L370.2223815917969,118.36761474609375L370.2223815917969,132.39892578125C370.2223815917969,133.68621826171875,370.4528503417969,134.61328125,370.9169616699219,135.1793212890625C371.3943786621094,135.74591064453125,372.13177490234375,136.02886962890625,373.1259460449219,136.02886962890625C373.6065368652344,136.02886962890625,374.0608215332031,135.97760009765625,374.48876953125,135.8746337890625C374.93646240234375,135.75439453125,375.3314514160156,135.60858154296875,375.6738586425781,135.4371337890625L376.957763671875,139.68505859375ZM393.7004699707031,137.39361572265625L396.4294128417969,132.68218994140625C398.0918273925781,133.7120361328125,399.6423645019531,134.4415283203125,401.0841979980469,134.87054443359375C402.5227966308594,135.28253173828125,404.13580322265625,135.48846435546875,405.9167785644531,135.48846435546875C408.0433654785156,135.48846435546875,409.71563720703125,135.03369140625,410.93365478515625,134.12396240234375C412.1680908203125,133.1971435546875,412.78375244140625,131.87542724609375,412.78375244140625,130.1590576171875C412.78375244140625,128.5970458984375,412.2701721191406,127.369873046875,411.2430725097656,126.47747802734375C410.2292175292969,125.56787109375,408.50750732421875,124.73541259765625,406.071533203125,123.9801025390625C402.31866455078125,122.86456298828125,399.5567932128906,121.4827880859375,397.7922668457031,119.83502197265625C396.0245361328125,118.18731689453125,395.1423034667969,115.9560546875,395.1423034667969,113.14093017578125C395.1423034667969,110.0860595703125,396.2813415527344,107.5543212890625,398.5625915527344,105.54595947265625C400.8439025878906,103.52093505859375,403.93829345703125,102.5081787109375,407.8458251953125,102.5081787109375C409.5609436035156,102.5081787109375,411.24969482421875,102.697021484375,412.9121398925781,103.07440185546875C414.5777893066406,103.45208740234375,416.2237548828125,104.03564453125,417.85003662109375,104.82525634765625L415.5621032714844,109.71697998046875C414.1399841308594,108.97882080078125,412.777099609375,108.45562744140625,411.4735107421875,108.146484375C410.1864013671875,107.83770751953125,408.87615966796875,107.68304443359375,407.53643798828125,107.68304443359375C405.5842590332031,107.68304443359375,404.0403747558594,108.11212158203125,402.907958984375,108.9703369140625C401.7952575683594,109.828369140625,401.2356872558594,111.0384521484375,401.2356872558594,112.60052490234375C401.2356872558594,113.99102783203125,401.7524719238281,115.08941650390625,402.77960205078125,115.89599609375C403.8099060058594,116.6856689453125,405.5744323730469,117.46624755859375,408.07952880859375,118.23876953125C411.9179382324219,119.388916015625,414.6798400878906,120.822021484375,416.3587646484375,122.53839111328125C418.057373046875,124.254638671875,418.90667724609375,126.61480712890625,418.90667724609375,129.61822509765625C418.90667724609375,132.8453369140625,417.7578125,135.49713134765625,415.46002197265625,137.5738525390625C413.16229248046875,139.63348388671875,409.8868103027344,140.663330078125,405.6336975097656,140.663330078125C403.5103454589844,140.663330078125,401.4331970214844,140.39739990234375,399.4118957519531,139.865234375C397.3874206542969,139.31591796875,395.48468017578125,138.4920654296875,393.7004699707031,137.39361572265625ZM437.49951171875,139.68505859375C436.72918701171875,140.01123046875,435.92266845703125,140.25140380859375,435.0832214355469,140.4058837890625C434.24053955078125,140.5601806640625,433.341796875,140.63763427734375,432.38055419921875,140.63763427734375C429.94781494140625,140.63763427734375,428.06817626953125,139.99395751953125,426.74810791015625,138.7069091796875C425.44775390625,137.40203857421875,424.7959289550781,135.46270751953125,424.7959289550781,132.88818359375L424.7959289550781,118.36761474609375L420.37158203125,118.36761474609375L420.37158203125,113.68182373046875L424.7959289550781,113.68182373046875L424.7959289550781,107.2711181640625L430.7609558105469,105.46893310546875L430.7609558105469,113.68182373046875L437.0616760253906,113.68182373046875L437.0616760253906,118.36761474609375L430.7609558105469,118.36761474609375L430.7609558105469,132.39892578125C430.7609558105469,133.68621826171875,430.99462890625,134.61328125,431.45556640625,135.1793212890625C431.9361267089844,135.74591064453125,432.6735534667969,136.02886962890625,433.66766357421875,136.02886962890625C434.1483154296875,136.02886962890625,434.60260009765625,135.97760009765625,435.03057861328125,135.8746337890625C435.4750061035156,135.75439453125,435.8700256347656,135.60858154296875,436.21240234375,135.4371337890625L437.49951171875,139.68505859375ZM453.88336181640625,140.663330078125C449.76849365234375,140.663330078125,446.4996643066406,139.4361572265625,444.0833740234375,136.98175048828125C441.68353271484375,134.5101318359375,440.4820251464844,131.20599365234375,440.4820251464844,127.06964111328125C440.5016784667969,122.69287109375,441.7526550292969,119.2686767578125,444.2380676269531,116.79705810546875C446.7234802246094,114.30841064453125,450.11083984375,113.06396484375,454.3969421386719,113.06396484375C458.5283203125,113.04681396484375,461.75115966796875,114.26556396484375,464.06536865234375,116.7198486328125C466.3992919921875,119.15716552734375,467.56463623046875,122.4613037109375,467.56463623046875,126.6319580078125C467.56463623046875,130.92303466796875,466.3302001953125,134.33837890625,463.8612060546875,136.87896728515625C461.40875244140625,139.40179443359375,458.0838928222656,140.663330078125,453.88336181640625,140.663330078125ZM454.1664733886719,135.900390625C456.5498352050781,135.900390625,458.3571472167969,135.119384765625,459.59161376953125,133.557373046875C460.8425598144531,131.99566650390625,461.468017578125,129.738525390625,461.468017578125,126.78662109375C461.468017578125,123.86846923828125,460.8425598144531,121.64593505859375,459.59161376953125,120.11822509765625C458.3406677246094,118.5908203125,456.52349853515625,117.82684326171875,454.1401672363281,117.82684326171875C451.7897644042969,117.82684326171875,449.9396667480469,118.6336669921875,448.58343505859375,120.2469482421875C447.24688720703125,121.86053466796875,446.57861328125,124.09173583984375,446.57861328125,126.94061279296875C446.57861328125,129.80712890625,447.24688720703125,132.021484375,448.58343505859375,133.58349609375C449.9231872558594,135.1280517578125,451.78314208984375,135.900390625,454.1664733886719,135.900390625ZM488.3201904296875,118.70208740234375C487.99432373046875,118.61639404296875,487.675048828125,118.55645751953125,487.3656311035156,118.52227783203125C487.0758972167969,118.47052001953125,486.7335205078125,118.44482421875,486.3385009765625,118.44482421875C484.1954650878906,118.44482421875,482.54949951171875,119.2342529296875,481.400634765625,120.81353759765625C480.2517395019531,122.392333984375,479.67889404296875,124.45196533203125,479.67889404296875,126.9925537109375L479.67889404296875,140.04547119140625L473.6843566894531,140.04547119140625L473.6843566894531,113.68182373046875L479.67889404296875,113.68182373046875L479.67889404296875,118.75390625L479.78094482421875,118.75390625C480.3966064453125,116.93438720703125,481.30517578125,115.56121826171875,482.5067138671875,114.6346435546875C483.7082214355469,113.69049072265625,485.1205139160156,113.2183837890625,486.75,113.2183837890625C487.214111328125,113.2183837890625,487.6256103515625,113.244140625,487.9844665527344,113.29559326171875C488.3630065917969,113.346923828125,488.72186279296875,113.42437744140625,489.064208984375,113.52740478515625L488.3201904296875,118.70208740234375ZM515.4522705078125,128.43438720703125L497.47509765625,128.43438720703125C497.5771484375,130.92303466796875,498.2980651855469,132.81951904296875,499.6346130371094,134.12396240234375C500.97113037109375,135.41143798828125,502.8409423828125,136.05511474609375,505.2407531738281,136.05511474609375C506.21844482421875,136.05511474609375,507.3343811035156,135.8575439453125,508.5853271484375,135.46270751953125C509.8362731933594,135.06805419921875,511.07073974609375,134.43292236328125,512.2887573242188,133.557373046875L514.9881591796875,137.2908935546875C513.358642578125,138.47479248046875,511.7060546875,139.333251953125,510.02392578125,139.865234375C508.34503173828125,140.39739990234375,506.49169921875,140.663330078125,504.47039794921875,140.663330078125C500.3719787597656,140.663330078125,497.18212890625,139.48748779296875,494.904052734375,137.13623046875C492.622802734375,134.767333984375,491.4739074707031,131.4635009765625,491.45745849609375,127.22412109375C491.45745849609375,123.00177001953125,492.62939453125,119.58624267578125,494.97979736328125,116.97723388671875C497.3466796875,114.36834716796875,500.3719787597656,113.06396484375,504.0589294433594,113.06396484375C507.5911560058594,113.06396484375,510.3663330078125,114.179443359375,512.3908081054688,116.41082763671875C514.4317626953125,118.625,515.4522705078125,121.7659912109375,515.4522705078125,125.83380126953125L515.4522705078125,128.43438720703125ZM509.66510009765625,124.28924560546875C509.66510009765625,122.023193359375,509.1679992675781,120.32421875,508.173828125,119.19146728515625C507.1961669921875,118.041259765625,505.80694580078125,117.46624755859375,504.00628662109375,117.46624755859375C502.3108825683594,117.46624755859375,500.8592529296875,118.0841064453125,499.6609191894531,119.3199462890625C498.47906494140625,120.5386962890625,497.74835205078125,122.195068359375,497.47509765625,124.28924560546875L509.66510009765625,124.28924560546875Z" style="fill: rgb(255, 255, 255);"/></g></g><g id="shape-424258af-1982-8022-8007-3c076102fbd9"><defs fill="none" style="fill: rgb(0, 0, 0);"/></g></g></g></svg>