<svg width="24" height="24" viewBox="0 0 24 24" fill="none" xmlns="http://www.w3.org/2000/svg">
<path d="M10.2 11C9.88174 11 9.57652 11.1264 9.35147 11.3515C9.12643 11.5765 9 11.8817 9 12.2V17H10.2V12.2H11.4V16.4H12.6V12.2H13.8V17H15V12.2C15 11.8817 14.8736 11.5765 14.6485 11.3515C14.4235 11.1264 14.1183 11 13.8 11H10.2Z" fill="black"/>
<path d="M19 20H5V9H19M16 2V4H8V2H6V4H5C3.89 4 3 4.89 3 6V20C3 20.5304 3.21071 21.0391 3.58579 21.4142C3.96086 21.7893 4.46957 22 5 22H19C19.5304 22 20.0391 21.7893 20.4142 21.4142C20.7893 21.0391 21 20.5304 21 20V6C21 4.89 20.1 4 19 4H18V2" fill="black"/>
</svg>
