<svg width="24" height="24" viewBox="0 0 24 24" fill="none" xmlns="http://www.w3.org/2000/svg">
<path d="M11.3333 11C10.9797 11 10.6406 11.1405 10.3905 11.3905C10.1405 11.6406 10 11.9797 10 12.3333V16.3333C10 16.687 10.1405 17.0261 10.3905 17.2761C10.6406 17.5262 10.9797 17.6667 11.3333 17.6667H12.6667C13.0203 17.6667 13.3594 17.5262 13.6095 17.2761C13.8595 17.0261 14 16.687 14 16.3333V15.6667H12.6667V16.3333H11.3333V12.3333H12.6667V13H14V12.3333C14 11.9797 13.8595 11.6406 13.6095 11.3905C13.3594 11.1405 13.0203 11 12.6667 11H11.3333Z" fill="black"/>
<path d="M19 20H5V9H19M16 2V4H8V2H6V4H5C3.89 4 3 4.89 3 6V20C3 20.5304 3.21071 21.0391 3.58579 21.4142C3.96086 21.7893 4.46957 22 5 22H19C19.5304 22 20.0391 21.7893 20.4142 21.4142C20.7893 21.0391 21 20.5304 21 20V6C21 4.89 20.1 4 19 4H18V2" fill="black"/>
</svg>
